<svg width="53" height="53" viewBox="0 0 53 53" fill="none" xmlns="http://www.w3.org/2000/svg">
<path d="M51.2 26.3C51.2 40.1 40 51.3 26.2 51.3C12.4 51.3 1.2 40.1 1.2 26.3C1.2 12.5 12.4 1.3 26.2 1.3C40 1.3 51.2 12.5 51.2 26.3Z" fill="#143448"/>
<g opacity="0.68" clip-path="url(#clip0_201_14)">
<path d="M26.0693 9.99438C26.1224 9.99433 26.1754 9.99424 26.2285 9.99414C26.8533 9.99326 27.4764 10.0148 28.0992 10.0679C28.117 10.0694 28.1348 10.0709 28.1532 10.0724C29.8032 10.2118 31.4419 10.517 33.1806 11.0686C33.2002 11.0749 33.2002 11.0749 33.2202 11.0813C34.4795 11.4873 35.7127 12.0085 36.8511 12.6898C36.9095 12.7245 36.9686 12.758 37.0278 12.7915C37.6737 13.1634 38.2834 13.6094 38.8573 14.0851C38.8863 14.1091 38.9155 14.1329 38.9447 14.1567C39.0405 14.2349 39.1334 14.3156 39.2246 14.3994C39.2601 14.4319 39.296 14.4636 39.3323 14.4952C39.5363 14.6755 39.7294 14.8668 39.9213 15.06C39.9315 15.0702 39.9417 15.0804 39.9521 15.091C40.0625 15.2019 40.1702 15.3139 40.2714 15.4336C40.3005 15.4657 40.3296 15.4978 40.3589 15.5298C40.4314 15.6101 40.5007 15.6922 40.5682 15.7767C40.6006 15.8172 40.6333 15.8575 40.6662 15.8976C40.8016 16.0627 40.9282 16.2326 41.0508 16.4075C41.0784 16.4467 41.1063 16.4858 41.1342 16.5248C41.9986 17.7383 42.5937 19.161 42.9461 21.157C42.9494 21.1787 42.9526 21.2005 42.9559 21.2229C43.0446 21.8393 43.0534 22.454 42.6785 22.98C42.3768 23.3722 41.9409 23.6256 41.453 23.7016C40.9359 23.7657 40.3784 23.6828 39.9562 23.3549C39.5092 22.9904 39.3326 22.5121 39.2661 21.9539C39.0873 20.4617 38.4969 19.0753 37.4809 17.9656C37.4568 17.939 37.4329 17.9123 37.4097 17.8849C37.3155 17.7736 37.2139 17.6703 37.1114 17.5669C37.0807 17.5359 37.0503 17.5048 37.0198 17.4738C36.9137 17.3662 36.8064 17.265 36.6881 17.171C36.6443 17.1354 36.6032 17.0979 36.5622 17.0591C36.4474 16.9538 36.3232 16.861 36.1993 16.7671C36.1634 16.7398 36.1277 16.7122 36.0921 16.6844C35.6305 16.3263 35.1281 16.0211 34.6167 15.7415C34.5968 15.7306 34.5769 15.7197 34.5564 15.7085C34.196 15.5128 33.826 15.3424 33.4498 15.18C33.4282 15.1707 33.4066 15.1613 33.3844 15.1517C31.9307 14.5287 30.3722 14.1447 27.095 13.7854C27.0742 13.7844 27.0535 13.7834 27.032 13.7823C25.378 13.703 23.7071 13.8349 19.7709 14.8178C19.7591 14.8219 19.7473 14.826 19.7352 14.8303C18.9078 15.1211 18.0978 15.4889 17.3396 15.9319C17.2984 15.956 17.257 15.9799 17.2157 16.0038C16.8775 16.2 16.5498 16.4154 16.2344 16.6471C16.2208 16.657 16.2071 16.667 16.1931 16.6772C16.003 16.8158 15.8179 16.9592 15.6373 17.1102C15.5924 17.1475 15.5471 17.1842 15.5018 17.221C15.4191 17.2893 15.3399 17.3608 15.2615 17.434C15.2229 17.4695 15.1839 17.5041 15.1444 17.5385C15.0728 17.6016 15.0047 17.6675 14.9375 17.7352C14.9257 17.747 14.914 17.7588 14.9019 17.771C14.8772 17.7958 14.8525 17.8207 14.8279 17.8455C14.7907 17.883 14.7534 17.9203 14.7161 17.9576C14.5992 18.075 14.487 18.1924 14.3847 18.3232C14.3497 18.3675 14.3131 18.4095 14.2755 18.4514C14.206 18.5295 14.1424 18.6108 14.0803 18.6949C14.0688 18.7103 14.0574 18.7257 14.0457 18.7416C13.0754 20.0674 12.5589 21.6475 12.7916 23.2983C12.8785 23.8703 13.0485 24.4255 13.2876 24.9509C13.3065 24.9926 13.325 25.0344 13.3434 25.0764C13.6009 25.6549 13.9646 26.2048 14.3766 26.6831C14.4178 26.7314 14.4573 26.7806 14.4965 26.8305C14.6643 27.0379 14.8537 27.2274 15.0407 27.4169C15.0537 27.4302 15.0668 27.4435 15.0803 27.4572C15.1528 27.5301 15.227 27.5997 15.3045 27.6671C15.3469 27.7042 15.3878 27.7428 15.4289 27.7814C15.5117 27.8577 15.5975 27.9284 15.6862 27.9976C15.7552 28.0514 15.8229 28.1064 15.89 28.1625C16.0471 28.2933 16.2096 28.4131 16.378 28.5285C16.3876 28.5351 16.3972 28.5417 16.4071 28.5485C16.6916 28.7434 16.977 28.9357 17.2756 29.1081C17.3011 29.1229 17.3011 29.1229 17.3271 29.1379C18.4393 29.7796 19.6164 30.259 20.8479 30.6114C20.8601 30.6149 20.8722 30.6184 20.8848 30.622C22.3155 31.0331 23.8089 31.2423 25.2943 31.2905C25.3179 31.2912 25.3416 31.292 25.3659 31.2928C25.485 31.2966 25.6042 31.3003 25.7233 31.3036C26.8133 31.3352 26.8133 31.3352 27.2386 31.7343C27.2544 31.7488 27.2702 31.7633 27.2864 31.7781C28.0001 32.463 28.4442 33.504 28.9263 34.3564C29.2607 34.9511 29.2607 34.9511 29.6055 35.5395C29.629 35.5788 29.6523 35.6182 29.6756 35.6576C30.2844 36.6865 30.9246 37.7253 31.7445 38.5988C31.7592 38.6146 31.7739 38.6305 31.7891 38.6468C32.0574 38.9273 32.4225 39.2266 32.8238 39.2384C33.2313 39.2308 33.6182 39.0327 33.9166 38.7618C33.9256 38.7537 33.9345 38.7456 33.9438 38.7373C34.0073 38.6799 34.0699 38.6215 34.132 38.5626C34.1497 38.5458 34.1497 38.5458 34.1678 38.5287C34.2603 38.4387 34.3394 38.3379 34.4192 38.2365C34.4384 38.2128 34.4384 38.2128 34.4581 38.1886C34.8615 37.678 35.1714 37.0977 35.4604 36.5159C35.4697 36.4973 35.4789 36.4787 35.4885 36.4595C36.2736 34.8707 36.8113 33.1432 37.9878 29.0326C38.0046 28.9707 38.0215 28.9088 38.0384 28.8469C38.0587 28.7721 38.0791 28.6974 38.0994 28.6226C38.1033 28.6082 38.1072 28.5938 38.1113 28.579C38.1498 28.4373 38.1884 28.2956 38.2267 28.1538C38.2533 28.0551 38.2802 27.9565 38.3073 27.8579C38.3164 27.8245 38.3255 27.791 38.3344 27.7576C38.476 27.2286 38.7246 26.7631 39.2089 26.4774C39.6453 26.2302 40.1648 26.1933 40.645 26.3143C41.1712 26.4706 41.6043 26.7738 41.8724 27.2664C41.9359 27.387 41.9809 27.508 42.0127 27.641C42.0167 27.6572 42.0207 27.6734 42.0249 27.69C42.0496 27.8099 42.0527 27.93 42.0542 28.052C42.0545 28.0675 42.0548 28.0831 42.0551 28.0991C42.0549 28.3613 41.9847 28.6179 41.9151 28.8685C41.9072 28.8971 41.8994 28.9258 41.8915 28.9545C41.8706 29.031 41.8495 29.1074 41.8284 29.1839C41.8061 29.2646 41.7839 29.3454 41.7617 29.4262C41.7209 29.5747 41.68 29.7232 41.639 29.8717C41.6102 29.9761 41.5814 30.0805 41.5528 30.1849C41.2934 31.1301 41.0275 32.0732 40.7352 33.0085C40.7195 33.0586 40.7039 33.1088 40.6884 33.1589C40.31 34.3772 39.8834 35.5822 39.3738 36.7514C39.3648 36.7721 39.3558 36.7928 39.3466 36.8141C39.196 37.1605 39.0352 37.5012 38.8697 37.8405C38.8448 37.8917 38.8201 37.9429 38.7953 37.9941C38.6825 38.2261 38.5609 38.4518 38.4329 38.6756C38.4054 38.7239 38.3783 38.7724 38.3513 38.8209C37.9767 39.4933 37.546 40.1383 37.0477 40.724C37.0212 40.7552 36.995 40.7867 36.9688 40.8182C36.868 40.9389 36.7645 41.0537 36.6519 41.1634C36.6086 41.2061 36.6086 41.2061 36.5719 41.2541C36.5405 41.2937 36.5098 41.3241 36.4713 41.3563C36.4169 41.4031 36.3663 41.4518 36.3165 41.5035C36.2283 41.5934 36.1328 41.6715 36.0348 41.7503C36.0147 41.767 35.9945 41.7838 35.9744 41.8006C35.7184 42.0129 35.4443 42.2024 35.1552 42.3661C35.1417 42.3738 35.1282 42.3815 35.1142 42.3894C34.0934 42.9637 32.8697 43.1677 31.7335 42.8554C31.2737 42.7203 30.838 42.5169 30.434 42.2574C30.4161 42.2461 30.3982 42.2347 30.3798 42.223C30.1437 42.0685 29.9153 41.8978 29.7031 41.7112C29.6656 41.6783 29.6279 41.646 29.5896 41.614C29.4215 41.4727 29.2664 41.3198 29.1123 41.1631C29.0705 41.1206 29.0286 41.0782 28.9866 41.0359C28.9595 41.0085 28.9325 40.9811 28.9054 40.9536C28.8931 40.9412 28.8808 40.9287 28.8681 40.9159C28.7883 40.8346 28.7128 40.7504 28.6389 40.6635C28.6197 40.6413 28.6005 40.6191 28.5812 40.597C28.4062 40.3943 28.2381 40.1868 28.0742 39.9748C28.0448 39.9369 28.0152 39.8991 27.9856 39.8612C27.8544 39.693 27.7288 39.522 27.6079 39.3461C27.5777 39.3022 27.5473 39.2585 27.5168 39.2149C27.3915 39.0354 27.2683 38.8548 27.1489 38.6712C27.1392 38.6563 27.1294 38.6414 27.1194 38.6261C26.7464 38.0546 26.393 37.4707 26.0539 36.8781C26.0428 36.8589 26.0317 36.8396 26.0203 36.8197C25.8881 36.5892 25.7565 36.3583 25.6258 36.1269C25.5842 36.0534 25.5425 35.9799 25.5008 35.9065C25.4949 35.896 25.489 35.8855 25.4829 35.8747C25.4523 35.8207 25.4214 35.7669 25.3896 35.7135C25.3266 35.607 25.2753 35.5075 25.2374 35.3886C25.1917 35.2581 25.1473 35.147 25.0306 35.067C24.8234 34.9941 24.5799 35.0141 24.3638 35.0145C24.1525 35.0144 23.9446 34.9935 23.7348 34.9707C23.697 34.9668 23.6593 34.9629 23.6216 34.959C21.8763 34.7755 20.1609 34.3888 13.7212 31.2272C13.7003 31.2112 13.6794 31.1952 13.6585 31.1792C13.5501 31.0958 13.4434 31.0105 13.3382 30.9229C13.3068 30.8968 13.2753 30.8708 13.2437 30.845C13.0277 30.6685 12.8201 30.4835 12.6179 30.2912C12.5793 30.2545 12.5404 30.2181 12.5009 30.1822C12.3881 30.0797 12.2794 29.9736 12.1718 29.8654C12.1583 29.8519 12.1448 29.8383 12.1308 29.8243C12.0578 29.7504 11.9879 29.6749 11.9204 29.5958C11.8708 29.5385 11.8186 29.4837 11.7668 29.4285C11.6809 29.3363 11.5983 29.2428 11.5201 29.1438C11.4875 29.1028 11.4545 29.0623 11.4211 29.022C10.3299 27.7057 9.53741 26.1299 9.0359 23.4934C9.03271 23.4665 9.03271 23.4665 9.02945 23.4391C8.95962 22.8307 8.9681 22.1817 9.0359 21.5735C9.03822 21.5524 9.04053 21.5312 9.04292 21.5094C9.16699 20.4104 9.47178 19.3437 9.95143 18.3496C9.96126 18.329 9.97109 18.3084 9.98122 18.2872C10.3433 17.5314 10.7948 16.8301 11.3157 16.1762C11.3291 16.1594 11.3425 16.1426 11.3563 16.1252C11.5113 15.9324 11.6715 15.7442 11.8388 15.5621C11.871 15.5271 11.9028 15.4919 11.9346 15.4566C12.0511 15.3269 12.1712 15.2016 12.2941 15.0781C12.3246 15.0473 12.3551 15.0165 12.3855 14.9857C12.4769 14.8934 12.5686 14.8025 12.667 14.7178C12.7166 14.6749 12.7637 14.6296 12.8113 14.5846C12.8978 14.5034 12.9866 14.4263 13.0788 14.3516C13.1232 14.3152 13.1668 14.278 13.2102 14.2404C13.3454 14.1232 13.4861 14.0142 13.6283 13.9059C13.6664 13.8767 13.7043 13.8472 13.7421 13.8176C14.0363 13.5873 14.343 13.375 14.6547 13.1696C14.6693 13.16 14.6838 13.1504 14.6988 13.1405C15.1205 12.8633 15.556 12.6095 16.0011 12.3727C16.0208 12.3621 16.0406 12.3515 16.061 12.3406C17.0363 11.8198 18.0565 11.4029 19.1066 11.0622C19.1408 11.0511 19.175 11.0398 19.2092 11.0286C20.7715 10.5172 22.4103 10.2153 24.2437 10.0583C24.2777 10.0556 24.3118 10.0529 24.3458 10.0502C24.9202 10.0041 25.4934 9.99477 26.0693 9.99438Z" fill="#CBCBCB"/>
<path d="M20.878 21.3987C20.9427 21.4542 21.003 21.5134 21.0634 21.5735C21.0762 21.5852 21.0891 21.5969 21.1023 21.6089C21.408 21.8927 21.5811 22.3429 21.6042 22.7551C21.6223 23.309 21.4574 23.7776 21.092 24.1948C20.7555 24.5513 20.2833 24.7424 19.8002 24.7631C19.3429 24.7673 18.9204 24.6216 18.5681 24.3266C18.5527 24.3139 18.5372 24.3013 18.5213 24.2883C18.1625 23.9808 17.9525 23.5267 17.9101 23.0576C17.873 22.5419 18.0279 22.0667 18.3561 21.6711C18.975 20.9566 20.1229 20.7866 20.878 21.3987Z" fill="#CBCBCB"/>
<path d="M33.4039 21.4128C33.4312 21.4361 33.4585 21.4595 33.4858 21.483C33.4963 21.491 33.5069 21.4991 33.5177 21.5073C33.8454 21.7631 34.0367 22.2102 34.1061 22.6093C34.167 23.1399 34.0463 23.6312 33.7236 24.0549C33.384 24.4689 32.9497 24.701 32.4188 24.7556C31.9635 24.7959 31.4713 24.6563 31.1183 24.3583C31.0996 24.3418 31.0809 24.3252 31.0623 24.3085C31.0525 24.2997 31.0427 24.2909 31.0326 24.2818C30.6937 23.9717 30.4565 23.5333 30.4315 23.0659C30.4144 22.5504 30.521 22.0813 30.8648 21.6822C30.877 21.6673 30.8891 21.6525 30.9017 21.6372C31.5155 20.9091 32.6695 20.8281 33.4039 21.4128Z" fill="#CBCBCB"/>
<path d="M27.2192 21.4713C27.2377 21.4872 27.2562 21.5032 27.2746 21.5192C27.2882 21.5311 27.3018 21.543 27.3159 21.5552C27.6186 21.8411 27.826 22.2826 27.8527 22.6995C27.8544 22.7605 27.8549 22.8212 27.8546 22.8821C27.8545 22.9037 27.8544 22.9253 27.8543 22.9475C27.8482 23.3952 27.6869 23.7876 27.4002 24.1273C27.3882 24.1427 27.3763 24.1581 27.364 24.174C27.0778 24.5276 26.5997 24.7102 26.1635 24.7559C25.6919 24.7955 25.2218 24.6509 24.8522 24.3537C24.8216 24.3269 24.7913 24.2998 24.7614 24.2722C24.7476 24.2598 24.7339 24.2474 24.7197 24.2347C24.3849 23.9163 24.1833 23.4543 24.165 22.9923C24.1513 22.4453 24.3249 21.9762 24.6973 21.5769C25.3711 20.8744 26.487 20.8571 27.2192 21.4713Z" fill="#CBCBCB"/>
</g>
<defs>
<clipPath id="clip0_201_14">
<rect width="34" height="33" fill="white" transform="translate(9 10)"/>
</clipPath>
</defs>
</svg>
