<svg width="114" height="114" viewBox="0 0 114 114" fill="none" xmlns="http://www.w3.org/2000/svg">
<path d="M57.2505 19.001C57.483 19.0016 57.7155 19.0021 57.9551 19.0027C61.6162 19.0173 65.1549 19.2033 68.7386 20.0074C68.9728 20.0579 69.207 20.1084 69.4483 20.1605C78.6794 22.2035 88.0418 26.7254 93.3287 34.8944C95.7575 38.8075 97.6264 43.5787 96.9935 48.2623C96.3523 49.6158 95.6664 50.4577 94.2591 50.9966C92.7733 51.158 91.422 51.2007 90.0247 50.6359C88.5592 49.348 88.0309 48.3114 87.7271 46.3824C86.834 41.3707 84.3433 37.6906 80.2836 34.5906C71.1122 28.3237 59.2996 27.1142 48.5786 28.9685C41.8023 30.2624 35.6775 33.0348 30.7616 37.9325C30.5912 38.0959 30.4208 38.2592 30.2453 38.4274C27.3319 41.4785 26.3537 45.2952 26.4239 49.3755C26.4985 51.0907 26.9497 52.5067 27.7234 54.0348C27.9167 54.4166 27.9167 54.4166 28.1139 54.8062C31.5226 60.94 37.9084 64.6265 44.4735 66.5819C45.5677 66.8853 46.6674 67.1541 47.7753 67.4027C48.0709 67.4701 48.3666 67.5374 48.6713 67.6068C50.1778 67.8971 51.6834 68.0345 53.2119 68.148C53.7006 68.1849 53.7006 68.1849 54.1992 68.2225C54.8564 68.2702 55.514 68.3138 56.1719 68.3529C59.3903 68.5771 59.3903 68.5771 60.6513 70.0044C62.0135 71.7186 63.0634 73.6314 64.1433 75.5298C65.5944 78.047 67.0418 80.5356 68.7386 82.8973C68.925 83.1582 69.1114 83.419 69.3035 83.6877C70.4421 85.2205 71.3105 86.3045 73.2388 86.733C75.2905 86.3307 76.5647 84.6327 77.7011 82.9733C81.0245 77.4017 82.8504 70.844 84.5216 64.6256C84.6608 64.109 84.6608 64.109 84.8028 63.582C84.9752 62.932 85.1431 62.2808 85.3055 61.6283C85.8369 59.604 86.3851 58.1641 88.1958 56.9662C89.4896 56.5375 90.8612 56.5221 92.1431 56.9994C93.1883 57.563 94.0415 58.1279 94.5629 59.1997C95.2157 61.9709 94.314 64.4459 93.5376 67.0989C93.3973 67.5891 93.2571 68.0794 93.117 68.5696C91.4453 74.3589 89.5742 80.0311 86.6637 85.3279C86.4965 85.6502 86.3293 85.9725 86.157 86.3046C83.916 90.4405 80.529 94.0515 76.0302 95.6576C72.7539 96.4599 69.8994 95.8166 67.0486 94.1005C62.0182 90.6999 57.1781 83.9574 55.1266 78.2713C54.792 77.6505 54.792 77.6505 53.9865 77.5119C53.6612 77.4789 53.3358 77.446 53.0007 77.412C52.6377 77.3706 52.2748 77.3291 51.9008 77.2864C51.5106 77.2456 51.1205 77.2048 50.7185 77.1628C40.1449 75.9108 29.5739 71.7912 22.5585 63.4531C18.532 58.1787 16.5401 52.1652 17.0898 45.528C17.3431 43.8648 17.8018 42.2695 18.3051 40.6669C18.3928 40.3861 18.4806 40.1053 18.5709 39.816C19.8031 36.367 22.1853 33.5555 24.6852 30.9448C24.8748 30.736 25.0643 30.5273 25.2596 30.3122C30.1718 25.0802 37.4518 22.0565 44.3004 20.3872C44.5476 20.3268 44.7948 20.2664 45.0495 20.2041C49.1071 19.271 53.1054 18.9804 57.2505 19.001Z" fill="#021730"/>
<path d="M73.5866 44.8385C74.7952 45.4619 75.5074 46.1022 76.0302 47.3509C76.39 48.8734 76.3778 49.8734 75.7263 51.3005C75.0164 52.3417 74.4597 52.9541 73.2958 53.4272C71.7789 53.6425 70.5868 53.5948 69.2133 52.8955C67.8238 51.6754 67.3261 50.8375 67.1827 48.9851C67.2463 47.7354 67.6662 46.8101 68.4348 45.8318C69.9102 44.5091 71.7243 44.1433 73.5866 44.8385Z" fill="#398611"/>
<path d="M43.5218 44.6165C45.1465 45.2101 46.091 46.109 46.8638 47.6547C47.1096 49.6328 46.8336 50.9143 45.6485 52.5157C44.468 53.6247 43.1436 53.5798 41.5957 53.534C40.1282 53.3401 39.3447 52.6427 38.3949 51.5663C37.7785 49.9911 37.7673 48.3468 38.4139 46.7812C39.9207 45.0146 41.2127 44.3796 43.5218 44.6165Z" fill="#398611"/>
<path d="M58.4088 44.6165C59.816 45.3864 60.9336 46.1146 61.447 47.6547C61.6063 49.1721 61.6141 50.3524 60.9343 51.7372C60.0112 52.7601 59.3975 53.3458 57.9935 53.5126C56.4762 53.5666 55.3542 53.5382 54.1554 52.5157C52.975 51.1714 52.5414 50.4121 52.5711 48.5946C52.713 47.2109 53.3077 46.3577 54.3073 45.433C55.5996 44.5607 56.8817 44.4025 58.4088 44.6165Z" fill="#398611"/>
<path d="M111.8 1.60001H1.60001V111.8H111.8V1.60001Z" stroke="#F7F7F8" stroke-miterlimit="10"/>
<path d="M1.60001 1.60001L111.8 111.8" stroke="#F7F7F8" stroke-miterlimit="10"/>
<path d="M111.8 1.60001L1.60001 111.8" stroke="#F7F7F8" stroke-miterlimit="10"/>
<path d="M56.7 80.7C69.9548 80.7 80.7 69.9548 80.7 56.7C80.7 43.4452 69.9548 32.7 56.7 32.7C43.4452 32.7 32.7 43.4452 32.7 56.7C32.7 69.9548 43.4452 80.7 56.7 80.7Z" stroke="#F7F7F8" stroke-miterlimit="10"/>
<path d="M96.2 17.2H17.2V96.2H96.2V17.2Z" stroke="#F7F7F8" stroke-miterlimit="10"/>
<path d="M56.7 110.5C86.4129 110.5 110.5 86.4129 110.5 56.7C110.5 26.9871 86.4129 2.90001 56.7 2.90001C26.9871 2.90001 2.89999 26.9871 2.89999 56.7C2.89999 86.4129 26.9871 110.5 56.7 110.5Z" stroke="#F7F7F8" stroke-miterlimit="10"/>
</svg>
