<svg width="312" height="74" viewBox="0 0 312 74" fill="none" xmlns="http://www.w3.org/2000/svg">
<path d="M104.319 7.00526C104.942 7.01189 105.565 7.00993 106.189 7.00698C110.097 7.01142 113.653 7.56509 117.317 8.93235C117.324 9.79063 117.328 10.6489 117.331 11.5072C117.333 11.7468 117.335 11.9863 117.337 12.2332C117.342 13.8017 117.262 15.3397 117.09 16.8988C115.872 16.7681 114.746 16.5544 113.562 16.2302C108.773 14.9961 103.397 14.6346 98.6531 16.2159C98.376 17.3241 98.2021 18.5723 98.6065 19.6634C99.1245 20.4605 100.052 20.5756 100.929 20.7682C102.523 21.0341 104.133 21.2033 105.738 21.3888C114.429 22.4054 114.429 22.4054 116.862 25.3204C118.823 28.4083 119.134 31.9668 118.427 35.5203C117.797 37.9182 116.466 39.9542 114.319 41.2257C110.477 43.2915 106.364 43.6209 102.081 43.6005C101.909 43.6002 101.737 43.6 101.559 43.5997C90.7244 43.5671 90.7244 43.5671 89.0934 41.9361C89.0732 41.3292 89.0671 40.7283 89.0711 40.1214C89.0715 39.9398 89.0718 39.7583 89.0721 39.5712C89.0734 38.9891 89.0762 38.407 89.0791 37.8248C89.0803 37.4311 89.0813 37.0374 89.0822 36.6436C89.0848 35.6764 89.0887 34.7092 89.0934 33.742C90.212 33.8932 91.2615 34.1157 92.3511 34.4107C95.9114 35.2925 99.6522 35.4262 103.305 35.2926C103.511 35.2858 103.716 35.279 103.928 35.272C105.664 35.1798 107.252 34.745 108.896 34.1973C109.151 33.5309 109.167 32.8575 109.18 32.1488C109.186 31.9563 109.192 31.7638 109.198 31.5655C109.105 30.8775 108.904 30.612 108.44 30.1003C106.362 29.1281 103.755 29.1429 101.494 28.9271C97.7189 28.5611 93.6142 28.056 90.9143 25.0928C89.3433 22.9113 88.9777 20.4227 89.008 17.795C89.0054 17.5648 89.0027 17.3346 89 17.0975C89.0098 14.5722 89.6208 12.3812 91.3552 10.5034C94.7818 7.22978 99.8106 6.9532 104.319 7.00526Z" fill="#01162F"/>
<path d="M177.577 16.9477C179.833 18.7349 180.555 21.2433 180.958 23.9883C181.135 25.7014 181.104 27.417 181.093 29.1373C181.092 29.5414 181.092 29.9454 181.091 30.3494C181.089 31.4027 181.085 32.456 181.08 33.5093C181.074 34.7785 181.072 36.0477 181.07 37.3169C181.065 39.236 181.057 41.155 181.049 43.0741C178.044 43.0741 175.04 43.0741 171.944 43.0741C171.809 41.8551 171.688 40.7571 171.681 39.551C171.678 39.2798 171.676 39.0086 171.674 38.7292C171.672 38.4425 171.67 38.1558 171.668 37.8604C171.664 37.4013 171.659 36.9422 171.654 36.4831C171.642 35.3605 171.632 34.238 171.625 33.1153C171.621 32.4825 171.616 31.8497 171.608 31.2169C171.601 30.6239 171.597 30.0308 171.595 29.4377C171.582 26.916 171.582 26.916 170.485 24.7139C169.485 23.8732 168.068 23.8655 166.822 23.8996C165.783 24.0004 164.828 24.1733 164.126 24.9977C163.351 26.2731 163.267 27.4815 163.248 28.9398C163.246 29.0931 163.244 29.2465 163.241 29.4045C163.234 29.9082 163.228 30.4119 163.223 30.9156C163.218 31.2661 163.213 31.6165 163.209 31.967C163.196 32.8871 163.185 33.8073 163.174 34.7274C163.162 35.6673 163.15 36.6071 163.137 37.547C163.113 39.3894 163.09 41.2317 163.067 43.0741C161.775 43.0797 160.482 43.0839 159.19 43.0866C158.75 43.0878 158.31 43.0893 157.87 43.0913C157.239 43.0941 156.608 43.0954 155.977 43.0964C155.68 43.0981 155.68 43.0981 155.377 43.0999C154.905 43.1 154.434 43.0883 153.963 43.0741C153.594 42.7054 153.706 42.302 153.706 41.7924C153.706 41.5645 153.705 41.3366 153.704 41.1018C153.705 40.8497 153.705 40.5976 153.706 40.3379C153.705 40.074 153.705 39.8102 153.705 39.5383C153.704 38.6613 153.704 37.7843 153.705 36.9073C153.705 36.3009 153.705 35.6945 153.704 35.0881C153.704 33.8152 153.704 32.5424 153.705 31.2695C153.707 29.796 153.706 28.3225 153.705 26.8489C153.704 25.5859 153.704 24.3229 153.704 23.0598C153.705 22.3046 153.705 21.5493 153.704 20.794C153.704 19.9524 153.704 19.1109 153.706 18.2693C153.705 18.0172 153.705 17.7651 153.704 17.5054C153.705 17.2775 153.706 17.0496 153.706 16.8148C153.706 16.6156 153.706 16.4164 153.707 16.2111C153.735 15.7607 153.735 15.7607 153.963 15.5331C154.603 15.5129 155.237 15.5069 155.877 15.5109C156.069 15.5112 156.26 15.5115 156.458 15.5118C157.072 15.5131 157.687 15.516 158.302 15.5189C158.717 15.52 159.133 15.521 159.549 15.522C160.57 15.5243 161.591 15.5288 162.612 15.5331C162.762 16.81 162.912 18.0869 163.067 19.4025C163.368 19.0269 163.668 18.6514 163.978 18.2644C167.41 14.6151 173.414 14.2282 177.577 16.9477Z" fill="#01162F"/>
<path d="M255.819 15.6753C256.115 15.6727 256.41 15.6701 256.714 15.6673C260.296 15.6781 263.845 16.3114 266.545 18.8192C266.813 19.1079 266.813 19.1079 267.086 19.4025C267.236 19.5621 267.386 19.7217 267.541 19.8862C270.464 24.0885 270.425 29.7821 269.671 34.6526C269.139 37.6144 267.738 40.1858 265.265 41.9361C262.766 43.3965 259.927 43.8606 257.071 43.9846C256.876 43.994 256.681 44.0033 256.48 44.013C252.609 44.1064 248.435 43.5593 245.32 41.0923C242.719 38.5774 241.857 34.9025 241.752 31.3983C241.748 30.9088 241.747 30.4191 241.75 29.9295C241.751 29.6716 241.752 29.4137 241.753 29.148C241.807 25.0925 242.527 21.5774 245.376 18.5561C248.157 15.9427 252.198 15.643 255.819 15.6753ZM251.637 24.7514C250.163 26.8366 250.263 29.6679 250.542 32.091C250.784 33.3828 251.3 34.3242 252.22 35.2784C253.949 36.2128 256.149 36.2504 258.038 35.8474C259.13 35.4836 259.903 35.2068 260.544 34.2044C261.202 32.7503 261.255 31.3004 261.268 29.7304C261.27 29.5296 261.272 29.3287 261.275 29.1218C261.253 27.4794 260.998 25.9941 259.987 24.666C257.678 22.9215 253.87 22.8095 251.637 24.7514Z" fill="#398611"/>
<path d="M120.504 15.5331C123.884 15.5331 127.264 15.5331 130.746 15.5331C131.526 17.4824 132.22 19.429 132.866 21.4225C132.948 21.6736 132.948 21.6736 133.031 21.9297C134.048 25.0644 134.885 28.2205 135.621 31.4331C135.708 31.9133 135.708 31.9133 135.981 32.1488C136.01 32.0112 136.038 31.8736 136.067 31.7319C136.754 28.4476 137.606 25.2474 138.613 22.0485C138.666 21.8801 138.718 21.7117 138.773 21.5382C138.927 21.0468 139.083 20.5562 139.24 20.0658C139.33 19.784 139.42 19.5022 139.513 19.2119C139.957 17.9672 140.481 16.7527 140.989 15.5331C144.219 15.5331 147.448 15.5331 150.776 15.5331C150.618 16.4821 150.488 17.1518 150.156 18.0151C150.075 18.2279 149.994 18.4407 149.91 18.66C149.777 19.0038 149.777 19.0038 149.641 19.3545C149.547 19.5981 149.454 19.8417 149.358 20.0927C149.049 20.8968 148.739 21.7003 148.429 22.5037C148.212 23.0692 147.994 23.6348 147.777 24.2004C147.273 25.5139 146.767 26.8269 146.261 28.1397C145.706 29.5802 145.152 31.0214 144.599 32.4626C143.855 34.3998 143.109 36.3365 142.363 38.2729C141.604 40.2456 140.846 42.2192 140.09 44.1933C139.719 45.1604 139.348 46.1274 138.978 47.0944C138.774 47.6266 138.57 48.159 138.366 48.6914C138.085 49.4258 137.804 50.1598 137.522 50.8938C137.438 51.1139 137.354 51.3341 137.268 51.5608C137.191 51.7601 137.115 51.9593 137.036 52.1645C136.969 52.3386 136.902 52.5127 136.834 52.692C136.664 53.089 136.664 53.089 136.437 53.3167C135.747 53.3368 135.063 53.3429 134.373 53.3389C134.166 53.3386 133.959 53.3382 133.746 53.3379C133.083 53.3366 132.42 53.3338 131.756 53.3309C131.308 53.3297 130.859 53.3287 130.411 53.3278C129.309 53.3253 128.207 53.3213 127.105 53.3167C127.242 52.1779 127.76 51.2856 128.281 50.2839C130.6 46.0761 130.6 46.0761 131.079 41.4764C130.658 40.2306 130.018 39.1046 129.363 37.9685C128.581 36.5695 128.055 35.0466 127.481 33.5544C127.106 32.5895 126.718 31.6302 126.332 30.6702C125.214 27.883 124.102 25.0937 122.994 22.303C122.776 21.7547 122.557 21.2064 122.339 20.6583C122.032 19.8897 121.727 19.1207 121.421 18.3516C121.328 18.1189 121.235 17.8863 121.14 17.6466C121.055 17.4342 120.971 17.2218 120.885 17.0029C120.811 16.8171 120.737 16.6312 120.661 16.4398C120.504 15.9883 120.504 15.9883 120.504 15.5331Z" fill="#01162F"/>
<path d="M273.914 15.9883C276.919 15.9883 279.923 15.9883 283.019 15.9883C283.03 17.0956 283.041 18.2029 283.052 19.3438C283.061 20.0492 283.069 20.7545 283.077 21.4599C283.091 22.5772 283.104 23.6945 283.115 24.8118C283.123 25.7136 283.134 26.6153 283.146 27.517C283.15 27.8594 283.153 28.2019 283.156 28.5443C283.058 31.686 283.058 31.686 284.1 34.5476C285.722 35.6007 287.897 35.3863 289.72 35.0846C290.453 34.8272 290.749 34.5962 291.213 33.9697C291.835 32.1762 291.748 30.3116 291.762 28.4358C291.766 28.0761 291.771 27.7164 291.776 27.3567C291.787 26.4153 291.796 25.4738 291.805 24.5324C291.815 23.3999 291.829 22.2675 291.843 21.1351C291.863 19.4195 291.879 17.7039 291.896 15.9883C294.9 15.9883 297.904 15.9883 301 15.9883C301 25.0017 301 34.0152 301 43.3017C298.146 43.3017 295.291 43.3017 292.351 43.3017C291.994 42.9453 291.984 42.5221 291.881 42.0357C291.821 41.7535 291.821 41.7535 291.759 41.4657C291.729 41.3205 291.699 41.1753 291.668 41.0256C291.574 41.1136 291.48 41.2017 291.383 41.2924C288.903 43.529 286.049 44.0028 282.791 43.9846C280.566 43.8314 278.033 43.3688 276.418 41.7085C274.605 39.4334 273.876 36.925 273.888 34.0503C273.888 33.8548 273.888 33.6592 273.888 33.4578C273.888 32.8137 273.89 32.1696 273.892 31.5255C273.892 31.078 273.893 30.6306 273.893 30.1832C273.894 29.0071 273.896 27.831 273.899 26.6549C273.901 25.243 273.902 23.831 273.904 22.4191C273.906 20.2755 273.91 18.1319 273.914 15.9883Z" fill="#398611"/>
<path d="M208.59 7.79428C211.895 7.79428 215.199 7.79428 218.605 7.79428C219.329 9.38744 220.012 10.9431 220.61 12.5795C220.725 12.8895 220.725 12.8895 220.842 13.2058C221.084 13.8579 221.324 14.5105 221.563 15.1632C221.881 16.0234 222.199 16.8834 222.517 17.7434C222.592 17.9481 222.668 18.1528 222.746 18.3638C223.483 20.9979 223.483 20.9979 224.75 23.2719C224.809 23.1079 224.868 22.944 224.929 22.7751C226.241 19.1495 227.59 15.5408 228.989 11.9482C229.06 11.7663 229.131 11.5843 229.204 11.3969C229.405 10.8799 229.607 10.3631 229.809 9.84634C229.87 9.69111 229.93 9.53588 229.993 9.37595C230.413 8.30337 230.413 8.30337 230.668 7.79428C233.973 7.79428 237.278 7.79428 240.683 7.79428C240.464 8.88747 240.103 9.75694 239.623 10.747C239.495 11.0143 239.495 11.0143 239.365 11.2871C239.085 11.8731 238.803 12.4583 238.521 13.0436C238.324 13.4533 238.128 13.863 237.932 14.2729C237.53 15.1153 237.126 15.9575 236.723 16.7995C236.172 17.9495 235.624 19.101 235.079 20.2534C234.996 20.4278 234.913 20.6022 234.828 20.7819C234.421 21.6425 234.016 22.5043 233.618 23.3691C232.938 24.8395 232.257 26.2744 231.421 27.665C228.642 32.4865 229.19 37.8986 229.302 43.3017C226.223 43.3017 223.143 43.3017 219.97 43.3017C220.004 42.5858 220.038 41.8699 220.072 41.1323C220.288 34.4058 219.304 29.6905 215.997 23.8634C215.163 22.3789 214.457 20.8358 213.748 19.2886C213.386 18.5008 213.016 17.7169 212.647 16.9325C212.503 16.6257 212.359 16.3189 212.215 16.0121C211.836 15.2043 211.455 14.3972 211.075 13.5901C210.773 12.9491 210.472 12.3077 210.17 11.6663C210.028 11.3636 209.886 11.061 209.743 10.7585C209.547 10.3446 209.353 9.9301 209.159 9.5156C208.993 9.16395 208.993 9.16395 208.824 8.8052C208.59 8.2495 208.59 8.2495 208.59 7.79428Z" fill="#398611"/>
<path d="M207.907 16.4435C207.907 19.0725 207.907 21.7014 207.907 24.41C205.403 24.1823 205.403 24.1823 204.697 24.1103C199.831 23.5728 199.831 23.5728 195.374 25.1355C194.321 26.6644 194.14 28.0799 194.165 29.8869C194.162 30.0824 194.159 30.278 194.157 30.4795C194.163 31.7466 194.365 32.6106 194.933 33.742C195.008 33.9674 195.083 34.1927 195.161 34.4249C198.971 35.2864 202.493 35.169 206.369 34.7946C206.595 34.7732 206.82 34.7519 207.053 34.7298C207.256 34.7096 207.459 34.6893 207.668 34.6684C207.822 34.6632 207.976 34.6579 208.134 34.6525C208.362 34.8801 208.362 34.8801 208.388 35.5954C208.388 35.9121 208.387 36.2288 208.384 36.5454C208.384 36.7118 208.384 36.8782 208.383 37.0496C208.382 37.5831 208.379 38.1165 208.376 38.6499C208.375 39.0108 208.374 39.3716 208.373 39.7324C208.371 40.6187 208.367 41.505 208.362 42.3913C205.405 43.4489 202.469 43.5726 199.351 43.5968C198.901 43.6004 198.451 43.6065 198.001 43.6127C194.425 43.6101 190.832 43.0636 188.105 40.5704C184.785 37.1022 184.803 32.0159 184.898 27.5091C185.019 23.9402 185.916 20.5381 188.582 18.0457C193.647 13.8112 202.004 14.9678 207.907 16.4435Z" fill="#01162F"/>
<path d="M34.2805 3.00086C34.4785 3.00133 34.6765 3.00181 34.8805 3.00229C37.9986 3.01476 41.0124 3.17314 44.0646 3.85798C44.264 3.90101 44.4635 3.94404 44.669 3.98837C52.5309 5.72831 60.5047 9.57958 65.0074 16.5369C67.076 19.8696 68.6677 23.9331 68.1286 27.922C67.5826 29.0748 66.9984 29.7918 65.7998 30.2508C64.5344 30.3882 63.3835 30.4246 62.1935 29.9435C60.9454 28.8467 60.4954 27.9639 60.2366 26.321C59.4761 22.0526 57.3548 18.9184 53.8972 16.2781C46.0862 10.9407 36.0256 9.91064 26.8947 11.4899C21.1235 12.592 15.9072 14.9531 11.7204 19.1244C11.5753 19.2635 11.4302 19.4026 11.2807 19.5459C8.79941 22.1445 7.96636 25.395 8.0261 28.8701C8.08968 30.3309 8.47393 31.5369 9.13288 32.8383C9.29748 33.1636 9.29748 33.1636 9.46541 33.4953C12.3686 38.7194 17.8072 41.859 23.3985 43.5244C24.3304 43.7828 25.2671 44.0117 26.2106 44.2235C26.4624 44.2809 26.7142 44.3382 26.9737 44.3973C28.2568 44.6446 29.5391 44.7616 30.8409 44.8582C31.2571 44.8897 31.2571 44.8897 31.6817 44.9217C32.2415 44.9623 32.8015 44.9995 33.3618 45.0328C36.1029 45.2237 36.1029 45.2237 37.1768 46.4392C38.337 47.8993 39.2312 49.5283 40.1509 51.1451C41.3868 53.289 42.6194 55.4085 44.0646 57.4199C44.2233 57.642 44.3821 57.8642 44.5457 58.0931C45.5154 59.3985 46.255 60.3217 47.8973 60.6867C49.6447 60.344 50.7299 58.8978 51.6978 57.4846C54.5282 52.7394 56.0833 47.1544 57.5066 41.8583C57.6251 41.4183 57.6251 41.4183 57.7461 40.9695C57.8929 40.4159 58.0359 39.8613 58.1743 39.3055C58.6268 37.5815 59.0937 36.3552 60.6359 35.3349C61.7377 34.9698 62.9059 34.9567 63.9977 35.3632C64.8878 35.8433 65.6145 36.3243 66.0586 37.2371C66.6145 39.5973 65.8466 41.7053 65.1853 43.9647C65.0658 44.3822 64.9464 44.7998 64.8271 45.2173C63.4033 50.1479 61.8098 54.9788 59.331 59.4899C59.1886 59.7644 59.0461 60.0389 58.8994 60.3218C56.9908 63.8443 54.1062 66.9196 50.2746 68.2875C47.4844 68.9709 45.0532 68.423 42.6252 66.9614C38.3409 64.0652 34.2188 58.3227 32.4716 53.48C32.1866 52.9513 32.1866 52.9513 31.5006 52.8332C31.2235 52.8052 30.9464 52.7771 30.6609 52.7482C30.3518 52.7129 30.0427 52.6776 29.7242 52.6412C29.3919 52.6065 29.0596 52.5717 28.7173 52.5359C19.712 51.4696 10.7089 47.9611 4.73407 40.8597C1.30477 36.3676 -0.391713 31.246 0.0765133 25.5933C0.292215 24.1768 0.682864 22.8181 1.11153 21.4532C1.18624 21.214 1.26096 20.9749 1.33794 20.7285C2.38734 17.7911 4.41624 15.3966 6.54534 13.1731C6.70678 12.9953 6.86822 12.8175 7.03455 12.6344C11.2181 8.17835 17.4183 5.60317 23.2511 4.18142C23.4617 4.12997 23.6722 4.07852 23.8891 4.02551C27.3449 3.23077 30.7502 2.98331 34.2805 3.00086Z" fill="#021730"/>
<path d="M48.1935 25.006C49.2229 25.537 49.8295 26.0823 50.2746 27.1458C50.5811 28.4424 50.5707 29.2942 50.0159 30.5096C49.4113 31.3964 48.9371 31.9179 47.9459 32.3208C46.6539 32.5042 45.6387 32.4636 44.4689 31.868C43.2854 30.8289 42.8616 30.1153 42.7395 28.5376C42.7936 27.4732 43.1513 26.6853 43.8058 25.852C45.0624 24.7255 46.6074 24.414 48.1935 25.006Z" fill="#398611"/>
<path d="M22.5881 24.817C23.9717 25.3226 24.7761 26.0881 25.4343 27.4045C25.6436 29.0893 25.4086 30.1806 24.3993 31.5446C23.3939 32.4891 22.266 32.4508 20.9476 32.4118C19.6978 32.2466 19.0305 31.6527 18.2216 30.736C17.6966 29.3944 17.687 27.994 18.2378 26.6606C19.5211 25.156 20.6214 24.6152 22.5881 24.817Z" fill="#398611"/>
<path d="M35.2669 24.817C36.4653 25.4727 37.4173 26.0929 37.8545 27.4045C37.9901 28.6969 37.9968 29.7022 37.4178 30.8815C36.6316 31.7527 36.1089 32.2515 34.9132 32.3936C33.621 32.4396 32.6654 32.4154 31.6444 31.5446C30.6391 30.3997 30.2698 29.753 30.295 28.2051C30.4159 27.0266 30.9224 26.2999 31.7738 25.5124C32.8744 24.7695 33.9663 24.6347 35.2669 24.817Z" fill="#398611"/>
</svg>
