<svg width="312" height="74" viewBox="0 0 312 74" fill="none" xmlns="http://www.w3.org/2000/svg">
<path d="M93.8591 15.0058C94.5455 15.0131 95.2313 15.0109 95.9177 15.0077C100.219 15.0126 104.132 15.6219 108.165 17.1267C108.172 18.0713 108.177 19.0158 108.18 19.9604C108.183 20.2241 108.185 20.4878 108.187 20.7594C108.192 22.4856 108.104 24.1783 107.914 25.8942C106.574 25.7504 105.335 25.5152 104.032 25.1583C98.7609 23.8001 92.8448 23.4023 87.6238 25.1427C87.3189 26.3623 87.1275 27.736 87.5725 28.9368C88.1426 29.8141 89.1629 29.9407 90.1288 30.1527C91.8833 30.4453 93.6547 30.6315 95.4212 30.8358C104.986 31.9546 104.986 31.9546 107.664 35.1627C109.821 38.5611 110.164 42.4775 109.386 46.3883C108.693 49.0274 107.228 51.268 104.865 52.6674C100.636 54.9409 96.1101 55.3035 91.3969 55.281C91.2073 55.2807 91.0176 55.2804 90.8221 55.2801C78.8978 55.2443 78.8978 55.2443 77.1027 53.4492C77.0806 52.7813 77.0739 52.12 77.0783 51.4521C77.0786 51.2523 77.079 51.0525 77.0794 50.8466C77.0808 50.2059 77.0839 49.5653 77.0871 48.9246C77.0883 48.4913 77.0895 48.0579 77.0905 47.6246C77.0933 46.5601 77.0976 45.4957 77.1027 44.4312C78.3339 44.5976 79.4889 44.8425 80.688 45.1671C84.6064 46.1376 88.7234 46.2848 92.7434 46.1378C92.9698 46.1303 93.1962 46.1228 93.4294 46.1151C95.3398 46.0135 97.0878 45.535 98.8963 44.9322C99.1779 44.1988 99.1951 43.4577 99.2094 42.6777C99.2159 42.4659 99.2223 42.2541 99.229 42.0358C99.1271 41.2786 98.906 40.9864 98.3953 40.4232C96.1075 39.3533 93.2383 39.3696 90.7503 39.1321C86.5957 38.7292 82.0782 38.1733 79.1067 34.9122C77.3778 32.5114 76.9755 29.7725 77.0088 26.8805C77.0059 26.6272 77.003 26.3739 77 26.1129C77.0107 23.3336 77.6832 20.9224 79.5921 18.8557C83.3633 15.2529 88.8977 14.9485 93.8591 15.0058Z" fill="#01162F"/>
<path d="M174.484 25.948C176.967 27.915 177.762 30.6756 178.205 33.6966C178.4 35.582 178.366 37.4701 178.354 39.3635C178.353 39.8081 178.352 40.2528 178.352 40.6974C178.35 41.8567 178.345 43.0159 178.339 44.1751C178.333 45.5719 178.331 46.9687 178.328 48.3656C178.323 50.4777 178.314 52.5897 178.305 54.7017C174.998 54.7017 171.692 54.7017 168.285 54.7017C168.136 53.3601 168.003 52.1518 167.995 50.8244C167.992 50.5259 167.99 50.2274 167.987 49.9199C167.985 49.6043 167.984 49.2888 167.982 48.9637C167.976 48.4585 167.971 47.9532 167.966 47.4479C167.952 46.2125 167.941 44.977 167.934 43.7415C167.93 43.045 167.923 42.3486 167.915 41.6521C167.907 40.9995 167.903 40.3468 167.901 39.6941C167.886 36.9187 167.886 36.9187 166.679 34.4953C165.579 33.5699 164.019 33.5615 162.648 33.599C161.504 33.71 160.454 33.9002 159.681 34.8075C158.828 36.2112 158.735 37.5411 158.715 39.1461C158.712 39.3148 158.71 39.4836 158.707 39.6575C158.699 40.2118 158.693 40.7662 158.687 41.3205C158.682 41.7062 158.676 42.092 158.671 42.4777C158.657 43.4904 158.645 44.503 158.633 45.5157C158.62 46.55 158.606 47.5844 158.592 48.6188C158.565 50.6464 158.54 52.6741 158.515 54.7017C157.093 54.7079 155.671 54.7125 154.248 54.7155C153.764 54.7168 153.28 54.7185 152.795 54.7206C152.101 54.7237 151.406 54.7251 150.712 54.7262C150.385 54.7281 150.385 54.7281 150.052 54.7301C149.533 54.7302 149.014 54.7173 148.495 54.7017C148.09 54.296 148.213 53.852 148.213 53.2911C148.212 53.0403 148.212 52.7895 148.211 52.5311C148.211 52.2537 148.212 51.9762 148.213 51.6904C148.212 51.4 148.212 51.1096 148.211 50.8104C148.21 49.8452 148.211 48.88 148.212 47.9147C148.211 47.2474 148.211 46.58 148.211 45.9126C148.21 44.5118 148.211 43.1109 148.212 41.7101C148.214 40.0884 148.213 38.4666 148.212 36.8449C148.211 35.4549 148.211 34.0649 148.211 32.6748C148.212 31.8436 148.212 31.0124 148.211 30.1811C148.21 29.2549 148.211 28.3288 148.213 27.4026C148.212 27.1251 148.212 26.8477 148.211 26.5618C148.212 26.311 148.212 26.0602 148.213 25.8018C148.213 25.5825 148.213 25.3633 148.213 25.1374C148.245 24.6417 148.245 24.6417 148.495 24.3912C149.2 24.369 149.898 24.3623 150.602 24.3667C150.813 24.3671 151.024 24.3674 151.241 24.3678C151.918 24.3692 152.594 24.3723 153.271 24.3755C153.728 24.3768 154.186 24.3779 154.643 24.3789C155.767 24.3815 156.891 24.3864 158.014 24.3912C158.18 25.7965 158.345 27.2018 158.515 28.6497C158.846 28.2364 159.177 27.823 159.517 27.3972C163.294 23.3808 169.903 22.9551 174.484 25.948Z" fill="#01162F"/>
<path d="M260.594 24.5477C260.92 24.5448 261.245 24.5419 261.58 24.5389C265.521 24.5507 269.427 25.2477 272.399 28.0078C272.694 28.3255 272.694 28.3255 272.994 28.6497C273.159 28.8253 273.325 29.001 273.495 29.182C276.712 33.8069 276.669 40.0731 275.84 45.4333C275.254 48.693 273.712 51.5229 270.99 53.4492C268.24 55.0565 265.115 55.5673 261.972 55.7037C261.757 55.7141 261.543 55.7244 261.321 55.735C257.062 55.8378 252.467 55.2357 249.039 52.5206C246.177 49.7528 245.228 45.7083 245.113 41.8518C245.108 41.313 245.108 40.7742 245.11 40.2353C245.111 39.9515 245.112 39.6676 245.113 39.3752C245.173 34.9119 245.965 31.0433 249.102 27.7181C252.161 24.842 256.609 24.5121 260.594 24.5477ZM255.991 34.5364C254.37 36.8314 254.48 39.9474 254.787 42.6141C255.053 44.0358 255.621 45.0719 256.633 46.1221C258.536 47.1504 260.958 47.1918 263.037 46.7483C264.238 46.3479 265.089 46.0433 265.794 44.94C266.518 43.3397 266.576 41.7441 266.591 40.0161C266.593 39.7951 266.596 39.5741 266.598 39.3464C266.574 37.5388 266.294 35.9041 265.182 34.4425C262.641 32.5226 258.449 32.3993 255.991 34.5364Z" fill="#398611"/>
<path d="M111.672 24.3912C115.392 24.3912 119.112 24.3912 122.944 24.3912C123.802 26.5365 124.566 28.6789 125.277 30.8729C125.367 31.1491 125.367 31.1491 125.459 31.431C126.578 34.881 127.499 38.3544 128.31 41.8901C128.405 42.4186 128.405 42.4186 128.706 42.6777C128.737 42.5263 128.768 42.3749 128.8 42.219C129.557 38.6044 130.494 35.0823 131.602 31.5618C131.66 31.3764 131.718 31.1911 131.778 31.0002C131.947 30.4594 132.119 29.9194 132.292 29.3797C132.391 29.0695 132.491 28.7594 132.593 28.4399C133.081 27.0701 133.658 25.7334 134.217 24.3912C137.771 24.3912 141.326 24.3912 144.988 24.3912C144.814 25.4357 144.672 26.1727 144.306 27.1228C144.217 27.357 144.127 27.5912 144.035 27.8325C143.889 28.2109 143.889 28.2109 143.739 28.5968C143.636 28.8649 143.533 29.133 143.428 29.4093C143.088 30.2943 142.747 31.1785 142.405 32.0628C142.166 32.6851 141.927 33.3076 141.688 33.9301C141.133 35.3756 140.576 36.8207 140.019 38.2655C139.408 39.8509 138.799 41.437 138.19 43.0231C137.371 45.1551 136.551 47.2866 135.73 49.4177C134.893 51.5888 134.06 53.7608 133.227 55.9335C132.82 56.9978 132.411 58.062 132.003 59.1263C131.779 59.7121 131.555 60.2979 131.33 60.8839C131.021 61.6921 130.712 62.5 130.402 63.3078C130.309 63.55 130.217 63.7923 130.122 64.0419C130.037 64.2611 129.953 64.4804 129.866 64.7063C129.793 64.8978 129.72 65.0894 129.644 65.2868C129.457 65.7238 129.457 65.7238 129.207 65.9743C128.448 65.9965 127.695 66.0031 126.936 65.9987C126.708 65.9984 126.48 65.998 126.246 65.9977C125.516 65.9962 124.786 65.9931 124.056 65.9899C123.562 65.9887 123.069 65.9875 122.575 65.9865C121.362 65.9837 120.149 65.9794 118.936 65.9743C119.088 64.721 119.658 63.7389 120.231 62.6365C122.784 58.0056 122.784 58.0056 123.31 52.9433C122.847 51.5723 122.143 50.333 121.422 49.0827C120.561 47.543 119.983 45.867 119.35 44.2247C118.938 43.1628 118.511 42.107 118.086 41.0504C116.856 37.9829 115.632 34.9132 114.412 31.8419C114.172 31.2384 113.932 30.635 113.691 30.0317C113.354 29.1858 113.018 28.3395 112.682 27.4931C112.579 27.2371 112.477 26.981 112.372 26.7173C112.279 26.4835 112.186 26.2497 112.091 26.0088C112.01 25.8043 111.928 25.5997 111.845 25.389C111.672 24.8922 111.672 24.8922 111.672 24.3912Z" fill="#01162F"/>
<path d="M280.509 24.8922C283.816 24.8922 287.122 24.8922 290.529 24.8922C290.541 26.1108 290.554 27.3295 290.566 28.5851C290.575 29.3614 290.584 30.1377 290.594 30.914C290.609 32.1436 290.623 33.3733 290.635 34.603C290.644 35.5954 290.656 36.5878 290.669 37.5802C290.674 37.9571 290.677 38.3339 290.68 38.7108C290.573 42.1684 290.573 42.1684 291.719 45.3178C293.504 46.4768 295.898 46.2408 297.904 45.9088C298.711 45.6256 299.037 45.3713 299.547 44.6817C300.232 42.7079 300.136 40.6558 300.152 38.5914C300.157 38.1955 300.162 37.7996 300.167 37.4038C300.179 36.3677 300.189 35.3315 300.199 34.2954C300.211 33.0491 300.226 31.8028 300.241 30.5565C300.263 28.6684 300.28 26.7803 300.299 24.8922C303.605 24.8922 306.912 24.8922 310.319 24.8922C310.319 34.812 310.319 44.7318 310.319 54.9522C307.177 54.9522 304.036 54.9522 300.8 54.9522C300.407 54.56 300.396 54.0942 300.283 53.5588C300.217 53.2484 300.217 53.2484 300.149 52.9316C300.116 52.7718 300.082 52.6119 300.048 52.4472C299.945 52.5441 299.842 52.641 299.735 52.7408C297.005 55.2024 293.864 55.7237 290.279 55.7037C287.83 55.5352 285.043 55.026 283.265 53.1987C281.269 50.695 280.467 47.9342 280.481 44.7705C280.481 44.5553 280.481 44.3401 280.481 44.1184C280.481 43.4095 280.483 42.7006 280.485 41.9918C280.485 41.4993 280.486 41.0069 280.486 40.5144C280.487 39.2201 280.489 37.9258 280.492 36.6314C280.495 35.0775 280.496 33.5236 280.498 31.9696C280.5 29.6105 280.505 27.2513 280.509 24.8922Z" fill="#398611"/>
<path d="M208.615 15.8742C212.253 15.8742 215.89 15.8742 219.638 15.8742C220.434 17.6275 221.186 19.3397 221.845 21.1405C221.971 21.4817 221.971 21.4817 222.1 21.8298C222.366 22.5476 222.63 23.2658 222.894 23.9841C223.243 24.9308 223.593 25.8773 223.943 26.8238C224.026 27.0491 224.11 27.2744 224.195 27.5065C225.007 30.4056 225.007 30.4056 226.401 32.9082C226.466 32.7278 226.531 32.5473 226.598 32.3615C228.042 28.3713 229.526 24.3996 231.067 20.4458C231.145 20.2456 231.222 20.0453 231.303 19.839C231.524 19.2701 231.746 18.7013 231.969 18.1326C232.035 17.9617 232.102 17.7909 232.171 17.6149C232.634 16.4344 232.634 16.4344 232.914 15.8742C236.551 15.8742 240.189 15.8742 243.936 15.8742C243.695 17.0773 243.298 18.0342 242.77 19.1238C242.629 19.418 242.629 19.418 242.486 19.7182C242.177 20.3632 241.867 21.0072 241.556 21.6513C241.34 22.1022 241.125 22.5532 240.909 23.0043C240.466 23.9314 240.022 24.8583 239.578 25.785C238.971 27.0506 238.369 28.3178 237.768 29.5861C237.677 29.7781 237.586 29.9701 237.493 30.1679C237.044 31.1149 236.599 32.0635 236.161 33.0152C235.413 34.6334 234.662 36.2127 233.743 37.7431C230.684 43.0495 231.288 49.0058 231.411 54.9522C228.022 54.9522 224.632 54.9522 221.141 54.9522C221.178 54.1643 221.215 53.3764 221.253 52.5647C221.491 45.1618 220.407 39.9723 216.768 33.5592C215.849 31.9254 215.073 30.2272 214.293 28.5243C213.894 27.6574 213.487 26.7946 213.08 25.9314C212.922 25.5937 212.764 25.256 212.605 24.9184C212.188 24.0294 211.77 23.141 211.351 22.2528C211.018 21.5473 210.687 20.8415 210.355 20.1356C210.199 19.8024 210.042 19.4693 209.885 19.1365C209.669 18.6809 209.456 18.2248 209.242 17.7686C209.06 17.3816 209.06 17.3816 208.874 16.9867C208.615 16.3752 208.615 16.3752 208.615 15.8742Z" fill="#398611"/>
<path d="M207.864 25.3932C207.864 28.2865 207.864 31.1797 207.864 34.1607C205.109 33.9102 205.109 33.9102 204.332 33.8309C198.976 33.2394 198.976 33.2394 194.071 34.9592C192.912 36.6419 192.713 38.1997 192.74 40.1884C192.737 40.4036 192.734 40.6188 192.731 40.8406C192.738 42.2351 192.961 43.186 193.585 44.4312C193.668 44.6792 193.751 44.9272 193.836 45.1827C198.029 46.1309 201.906 46.0016 206.171 45.5896C206.42 45.5661 206.668 45.5426 206.925 45.5184C207.148 45.4961 207.372 45.4738 207.602 45.4508C207.771 45.445 207.94 45.4392 208.115 45.4332C208.365 45.6837 208.365 45.6837 208.393 46.471C208.393 46.8195 208.392 47.168 208.389 47.5165C208.389 47.6996 208.389 47.8827 208.388 48.0714C208.387 48.6585 208.384 49.2456 208.381 49.8326C208.379 50.2298 208.378 50.6269 208.377 51.024C208.374 51.9994 208.37 52.9748 208.365 53.9502C205.11 55.1142 201.88 55.2503 198.448 55.277C197.953 55.2809 197.458 55.2876 196.962 55.2944C193.027 55.2917 189.072 54.6902 186.07 51.9462C182.418 48.1293 182.437 42.5315 182.541 37.5714C182.675 33.6437 183.662 29.8995 186.596 27.1565C192.171 22.4961 201.368 23.7691 207.864 25.3932Z" fill="#01162F"/>
<path d="M34.2805 4.00086C34.4785 4.00133 34.6765 4.00181 34.8805 4.00229C37.9986 4.01476 41.0124 4.17314 44.0646 4.85798C44.264 4.90101 44.4635 4.94404 44.669 4.98837C52.5309 6.72831 60.5047 10.5796 65.0074 17.5369C67.076 20.8696 68.6677 24.9331 68.1286 28.922C67.5826 30.0748 66.9984 30.7918 65.7998 31.2508C64.5344 31.3882 63.3835 31.4246 62.1935 30.9435C60.9454 29.8467 60.4954 28.9639 60.2366 27.321C59.4761 23.0526 57.3548 19.9184 53.8972 17.2781C46.0862 11.9407 36.0256 10.9106 26.8947 12.4899C21.1235 13.592 15.9072 15.9531 11.7204 20.1244C11.5753 20.2635 11.4302 20.4026 11.2807 20.5459C8.79941 23.1445 7.96636 26.395 8.0261 29.8701C8.08968 31.3309 8.47393 32.5369 9.13288 33.8383C9.29748 34.1636 9.29748 34.1636 9.46541 34.4953C12.3686 39.7194 17.8072 42.859 23.3985 44.5244C24.3304 44.7828 25.2671 45.0117 26.2106 45.2235C26.4624 45.2809 26.7142 45.3382 26.9737 45.3973C28.2568 45.6446 29.5391 45.7616 30.8409 45.8582C31.2571 45.8897 31.2571 45.8897 31.6817 45.9217C32.2415 45.9623 32.8015 45.9995 33.3618 46.0328C36.1029 46.2237 36.1029 46.2237 37.1768 47.4392C38.337 48.8993 39.2312 50.5283 40.1509 52.1451C41.3868 54.289 42.6194 56.4085 44.0646 58.4199C44.2233 58.642 44.3821 58.8642 44.5457 59.0931C45.5154 60.3985 46.255 61.3217 47.8973 61.6867C49.6447 61.344 50.7299 59.8978 51.6978 58.4846C54.5282 53.7394 56.0833 48.1544 57.5066 42.8583C57.6251 42.4183 57.6251 42.4183 57.7461 41.9695C57.8929 41.4159 58.0359 40.8613 58.1743 40.3055C58.6268 38.5815 59.0937 37.3552 60.6359 36.3349C61.7377 35.9698 62.9059 35.9567 63.9977 36.3632C64.8878 36.8433 65.6145 37.3243 66.0586 38.2371C66.6145 40.5973 65.8466 42.7053 65.1853 44.9647C65.0658 45.3822 64.9464 45.7998 64.8271 46.2173C63.4033 51.1479 61.8098 55.9788 59.331 60.4899C59.1886 60.7644 59.0461 61.0389 58.8994 61.3218C56.9908 64.8443 54.1062 67.9196 50.2746 69.2875C47.4844 69.9709 45.0532 69.423 42.6252 67.9614C38.3409 65.0652 34.2188 59.3227 32.4716 54.48C32.1866 53.9513 32.1866 53.9513 31.5006 53.8332C31.2235 53.8052 30.9464 53.7771 30.6609 53.7482C30.3518 53.7129 30.0427 53.6776 29.7242 53.6412C29.3919 53.6065 29.0596 53.5717 28.7173 53.5359C19.712 52.4696 10.7089 48.9611 4.73407 41.8597C1.30477 37.3676 -0.391713 32.246 0.0765133 26.5933C0.292215 25.1768 0.682864 23.8181 1.11153 22.4532C1.18624 22.214 1.26096 21.9749 1.33794 21.7285C2.38734 18.7911 4.41624 16.3966 6.54534 14.1731C6.70678 13.9953 6.86822 13.8175 7.03455 13.6344C11.2181 9.17835 17.4183 6.60317 23.2511 5.18142C23.4617 5.12997 23.6722 5.07852 23.8891 5.02551C27.3449 4.23077 30.7502 3.98331 34.2805 4.00086Z" fill="#021730"/>
<path d="M48.1935 26.006C49.2229 26.537 49.8295 27.0823 50.2746 28.1458C50.5811 29.4424 50.5707 30.2942 50.0159 31.5096C49.4113 32.3964 48.9371 32.9179 47.9459 33.3208C46.6539 33.5042 45.6387 33.4636 44.4689 32.868C43.2854 31.8289 42.8616 31.1153 42.7395 29.5376C42.7936 28.4732 43.1513 27.6853 43.8058 26.852C45.0624 25.7255 46.6074 25.414 48.1935 26.006Z" fill="#398611"/>
<path d="M22.5881 25.817C23.9717 26.3226 24.7761 27.0881 25.4343 28.4045C25.6436 30.0893 25.4086 31.1806 24.3993 32.5446C23.3939 33.4891 22.266 33.4508 20.9476 33.4118C19.6978 33.2466 19.0305 32.6527 18.2216 31.736C17.6966 30.3944 17.687 28.994 18.2378 27.6606C19.5211 26.156 20.6214 25.6152 22.5881 25.817Z" fill="#398611"/>
<path d="M35.2669 25.817C36.4653 26.4727 37.4173 27.0929 37.8545 28.4045C37.9901 29.6969 37.9968 30.7021 37.4178 31.8815C36.6316 32.7527 36.1089 33.2515 34.9132 33.3936C33.621 33.4396 32.6654 33.4154 31.6444 32.5446C30.6391 31.3997 30.2698 30.753 30.295 29.205C30.4159 28.0266 30.9224 27.2999 31.7738 26.5124C32.8744 25.7695 33.9663 25.6347 35.2669 25.817Z" fill="#398611"/>
</svg>
