<svg width="60" height="60" viewBox="0 0 60 60" fill="none" xmlns="http://www.w3.org/2000/svg">
<path d="M29.7205 0.000671762C29.8748 0.0010394 30.0292 0.00140705 30.1882 0.00178583C32.6187 0.0115044 34.9678 0.134955 37.3468 0.668768C37.5023 0.702307 37.6578 0.735846 37.818 0.770401C43.9461 2.12662 50.1614 5.12856 53.6711 10.5516C55.2835 13.1493 56.5241 16.3166 56.104 19.4259C55.6783 20.3244 55.223 20.8833 54.2888 21.2411C53.3024 21.3482 52.4053 21.3766 51.4777 21.0016C50.5049 20.1467 50.1541 19.4585 49.9524 18.1779C49.3596 14.8509 47.7061 12.4079 45.011 10.3499C38.9226 6.18955 31.0807 5.38661 23.9635 6.61762C19.4651 7.47661 15.3992 9.31706 12.1357 12.5684C12.0226 12.6769 11.9095 12.7853 11.793 12.897C9.85884 14.9225 9.20951 17.4562 9.25608 20.1649C9.30564 21.3035 9.60515 22.2435 10.1188 23.258C10.2471 23.5115 10.2471 23.5115 10.378 23.7701C12.6409 27.8421 16.8801 30.2893 21.2384 31.5874C21.9648 31.7888 22.6948 31.9673 23.4303 32.1323C23.6266 32.177 23.8229 32.2218 24.0251 32.2678C25.0252 32.4605 26.0247 32.5517 27.0394 32.6271C27.3638 32.6516 27.3638 32.6516 27.6948 32.6766C28.1311 32.7082 28.5677 32.7372 29.0044 32.7631C31.141 32.9119 31.141 32.9119 31.9781 33.8594C32.8824 34.9975 33.5794 36.2673 34.2963 37.5275C35.2596 39.1986 36.2204 40.8506 37.3468 42.4185C37.4706 42.5916 37.5944 42.7648 37.7219 42.9432C38.4777 43.9607 39.0542 44.6803 40.3344 44.9648C41.6963 44.6978 42.5422 43.5705 43.2967 42.4689C45.5029 38.7702 46.715 34.4168 47.8245 30.2888C47.9169 29.9458 47.9169 29.9458 48.0111 29.5959C48.1256 29.1644 48.237 28.7321 48.3449 28.2989C48.6976 26.9551 49.0615 25.9992 50.2636 25.204C51.1225 24.9194 52.033 24.9092 52.884 25.226C53.5779 25.6002 54.1443 25.9752 54.4904 26.6867C54.9238 28.5264 54.3252 30.1694 53.8097 31.9306C53.7166 32.2561 53.6236 32.5815 53.5306 32.907C52.4208 36.7502 51.1787 40.5157 49.2465 44.032C49.1355 44.246 49.0245 44.4599 48.9101 44.6804C47.4224 47.4261 45.174 49.8232 42.1874 50.8894C40.0125 51.4221 38.1175 50.995 36.2249 49.8558C32.8855 47.5982 29.6724 43.1222 28.3105 39.3475C28.0884 38.9354 28.0884 38.9354 27.5536 38.8433C27.3377 38.8214 27.1217 38.7996 26.8992 38.777C26.6582 38.7495 26.4173 38.722 26.169 38.6937C25.91 38.6666 25.651 38.6395 25.3841 38.6116C18.3648 37.7804 11.3473 35.0457 6.69005 29.5104C4.01702 26.0089 2.69467 22.0168 3.05964 17.6107C3.22777 16.5066 3.53227 15.4475 3.8664 14.3837C3.92464 14.1972 3.98287 14.0108 4.04288 13.8188C4.86085 11.5292 6.44231 9.66272 8.10188 7.92959C8.22771 7.79101 8.35355 7.65244 8.4832 7.50966C11.7441 4.03635 16.577 2.02908 21.1235 0.92088C21.2876 0.880776 21.4517 0.840673 21.6208 0.799354C24.3144 0.179876 26.9687 -0.0130089 29.7205 0.000671762Z" fill="#021730"/>
<path d="M40.5652 17.1529C41.3676 17.5668 41.8404 17.9919 42.1874 18.8208C42.4263 19.8315 42.4182 20.4954 41.9857 21.4428C41.5144 22.134 41.1448 22.5406 40.3722 22.8546C39.3652 22.9975 38.5738 22.9658 37.662 22.5017C36.7395 21.6917 36.4092 21.1354 36.314 19.9057C36.3562 19.0761 36.635 18.4619 37.1452 17.8124C38.1246 16.9343 39.3289 16.6915 40.5652 17.1529Z" fill="#398611"/>
<path d="M20.6066 17.0056C21.6851 17.3997 22.3121 17.9964 22.8252 19.0225C22.9884 20.3357 22.8052 21.1864 22.0184 22.2495C21.2348 22.9857 20.3556 22.9559 19.3279 22.9255C18.3538 22.7968 17.8336 22.3338 17.2031 21.6193C16.7939 20.5736 16.7864 19.482 17.2157 18.4427C18.216 17.2699 19.0737 16.8483 20.6066 17.0056Z" fill="#398611"/>
<path d="M30.4894 17.0056C31.4235 17.5167 32.1655 18.0001 32.5063 19.0225C32.6121 20.0299 32.6172 20.8134 32.1659 21.7327C31.5531 22.4118 31.1457 22.8006 30.2137 22.9113C29.2064 22.9472 28.4616 22.9283 27.6657 22.2495C26.8822 21.3571 26.5943 20.8531 26.614 19.6465C26.7082 18.7279 27.103 18.1615 27.7666 17.5477C28.6245 16.9686 29.4756 16.8635 30.4894 17.0056Z" fill="#398611"/>
</svg>
