<svg width="412" height="132" viewBox="0 0 412 132" fill="none" xmlns="http://www.w3.org/2000/svg">
<path d="M108.146 22.0076C109.048 22.0172 109.949 22.0143 110.85 22.0101C116.5 22.0165 121.641 22.8169 126.938 24.7936C126.948 26.0344 126.954 27.2752 126.959 28.516C126.961 28.8624 126.964 29.2087 126.967 29.5656C126.974 31.8331 126.858 34.0566 126.609 36.3106C124.849 36.1217 123.221 35.8127 121.509 35.344C114.585 33.5599 106.814 33.0373 99.9554 35.3234C99.5548 36.9255 99.3034 38.73 99.888 40.3074C100.637 41.4598 101.977 41.6261 103.246 41.9046C105.551 42.289 107.878 42.5336 110.198 42.8018C122.762 44.2715 122.762 44.2715 126.28 48.4857C129.114 52.9499 129.565 58.0944 128.542 63.2316C127.632 66.6983 125.707 69.6417 122.604 71.4799C117.049 74.4664 111.103 74.9427 104.912 74.9131C104.663 74.9127 104.413 74.9124 104.157 74.912C88.493 74.8649 88.493 74.8649 86.135 72.5069C86.1058 71.6295 86.097 70.7608 86.1028 69.8834C86.1033 69.621 86.1038 69.3585 86.1042 69.0881C86.1061 68.2465 86.1102 67.4049 86.1144 66.5633C86.116 65.9941 86.1175 65.4249 86.1189 64.8557C86.1225 63.4574 86.1282 62.0591 86.135 60.6608C87.7522 60.8794 89.2694 61.2011 90.8446 61.6274C95.9918 62.9024 101.4 63.0956 106.68 62.9025C106.978 62.8927 107.275 62.8829 107.582 62.8727C110.091 62.7394 112.387 62.1108 114.763 61.3189C115.133 60.3555 115.156 59.382 115.174 58.3574C115.183 58.0792 115.191 57.8009 115.2 57.5142C115.066 56.5196 114.776 56.1358 114.105 55.3959C111.1 53.9904 107.331 54.0118 104.062 53.6999C98.6049 53.1707 92.6707 52.4405 88.7674 48.1566C86.4963 45.0029 85.9678 41.4052 86.0116 37.6063C86.0078 37.2735 86.0039 36.9407 86 36.5979C86.0141 32.9471 86.8975 29.7796 89.405 27.0648C94.3588 22.3322 101.629 21.9323 108.146 22.0076Z" fill="white"/>
<path d="M214.055 36.3813C217.317 38.9652 218.361 42.5914 218.943 46.5599C219.199 49.0365 219.154 51.5167 219.138 54.0039C219.137 54.588 219.136 55.172 219.136 55.7561C219.133 57.2789 219.127 58.8017 219.119 60.3244C219.111 62.1593 219.108 63.9941 219.105 65.829C219.098 68.6034 219.086 71.3778 219.074 74.1522C214.731 74.1522 210.387 74.1522 205.912 74.1522C205.716 72.3899 205.542 70.8025 205.531 69.0589C205.528 68.6668 205.524 68.2747 205.521 67.8707C205.518 67.4563 205.516 67.0418 205.513 66.6147C205.507 65.951 205.5 65.2873 205.492 64.6236C205.475 63.0007 205.46 61.3778 205.451 59.7548C205.445 58.8399 205.437 57.9251 205.426 57.0102C205.416 56.1529 205.41 55.2955 205.407 54.4381C205.388 50.7925 205.388 50.7925 203.802 47.609C202.357 46.3934 200.309 46.3823 198.507 46.4317C197.005 46.5774 195.625 46.8274 194.61 48.0191C193.489 49.863 193.367 51.61 193.34 53.7183C193.337 53.94 193.334 54.1617 193.33 54.3901C193.32 55.1182 193.312 55.8464 193.304 56.5746C193.297 57.0813 193.29 57.588 193.283 58.0947C193.265 59.4249 193.248 60.7551 193.233 62.0854C193.216 63.4441 193.198 64.8029 193.18 66.1616C193.144 68.8251 193.111 71.4887 193.079 74.1522C191.21 74.1603 189.342 74.1663 187.473 74.1703C186.837 74.1719 186.201 74.1742 185.565 74.177C184.652 74.181 183.74 74.1829 182.828 74.1843C182.398 74.1869 182.398 74.1869 181.96 74.1895C181.279 74.1895 180.598 74.1726 179.916 74.1522C179.383 73.6192 179.546 73.0359 179.546 72.2992C179.545 71.9697 179.544 71.6403 179.543 71.3008C179.543 70.9364 179.544 70.5719 179.545 70.1964C179.544 69.815 179.544 69.4335 179.543 69.0405C179.542 67.7726 179.543 66.5047 179.544 65.2368C179.543 64.3601 179.543 63.4835 179.543 62.6068C179.542 60.7666 179.543 58.9265 179.544 57.0864C179.546 54.9561 179.546 52.8258 179.544 50.6955C179.542 48.8695 179.542 47.0436 179.543 45.2176C179.543 44.1257 179.543 43.0338 179.542 41.9419C179.542 40.7253 179.543 39.5087 179.545 38.292C179.544 37.9276 179.543 37.5631 179.543 37.1876C179.544 36.8582 179.545 36.5287 179.546 36.1893C179.546 35.9012 179.546 35.6132 179.546 35.3164C179.587 34.6653 179.587 34.6653 179.916 34.3363C180.842 34.3071 181.759 34.2983 182.684 34.3041C182.961 34.3046 183.238 34.3051 183.523 34.3055C184.412 34.3074 185.3 34.3115 186.189 34.3157C186.79 34.3173 187.391 34.3189 187.992 34.3202C189.468 34.3236 190.944 34.33 192.421 34.3363C192.638 36.1823 192.855 38.0283 193.079 39.9302C193.513 39.3873 193.947 38.8443 194.395 38.285C199.356 33.0091 208.037 32.4498 214.055 36.3813Z" fill="white"/>
<path d="M327.169 34.5419C327.597 34.5381 328.024 34.5342 328.464 34.5303C333.642 34.5458 338.772 35.4614 342.676 39.087C343.063 39.5044 343.063 39.5044 343.458 39.9302C343.675 40.1609 343.892 40.3917 344.116 40.6294C348.342 46.7047 348.285 54.9359 347.196 61.9772C346.426 66.2591 344.401 69.9765 340.825 72.5069C337.213 74.6182 333.108 75.2891 328.979 75.4684C328.697 75.4819 328.415 75.4955 328.124 75.5095C322.529 75.6445 316.494 74.8536 311.99 71.287C308.231 67.6513 306.985 62.3384 306.833 57.2725C306.827 56.5647 306.826 55.8569 306.83 55.1491C306.831 54.7762 306.832 54.4034 306.834 54.0192C306.912 48.1563 307.953 43.0745 312.073 38.7065C316.092 34.9284 321.934 34.4951 327.169 34.5419ZM321.123 47.663C318.993 50.6777 319.137 54.7708 319.541 58.2738C319.89 60.1414 320.636 61.5024 321.966 62.8819C324.465 64.2328 327.647 64.2871 330.378 63.7046C331.956 63.1785 333.074 62.7784 334 61.3292C334.951 59.227 335.028 57.131 335.046 54.8612C335.05 54.5708 335.053 54.2805 335.056 53.9814C335.025 51.6069 334.656 49.4596 333.195 47.5396C329.857 45.0176 324.351 44.8556 321.123 47.663Z" fill="white"/>
<path d="M131.545 34.3362C136.431 34.3362 141.318 34.3362 146.353 34.3362C147.48 37.1543 148.483 39.9686 149.417 42.8506C149.535 43.2135 149.535 43.2135 149.656 43.5837C151.126 48.1156 152.336 52.6784 153.4 57.3228C153.526 58.0171 153.526 58.0171 153.921 58.3574C153.962 58.1586 154.003 57.9597 154.045 57.7548C155.038 53.0067 156.269 48.3802 157.726 43.7555C157.802 43.5121 157.878 43.2686 157.956 43.0178C158.179 42.3074 158.405 41.5981 158.632 40.8891C158.762 40.4817 158.893 40.0744 159.027 39.6547C159.668 37.8553 160.425 36.0994 161.16 34.3362C165.829 34.3362 170.499 34.3362 175.31 34.3362C175.081 35.7083 174.894 36.6764 174.413 37.9245C174.296 38.2322 174.179 38.5398 174.058 38.8568C173.865 39.3538 173.865 39.3538 173.668 39.8608C173.533 40.213 173.398 40.5652 173.259 40.928C172.813 42.0906 172.365 43.2521 171.916 44.4136C171.602 45.2312 171.288 46.0488 170.974 46.8665C170.245 48.7654 169.514 50.6636 168.782 52.5615C167.979 54.6441 167.179 56.7276 166.379 58.8112C165.303 61.6117 164.226 64.4116 163.147 67.2111C162.049 70.063 160.953 72.9162 159.86 75.7702C159.325 77.1683 158.788 78.5663 158.252 79.9642C157.957 80.7337 157.663 81.5033 157.369 82.2731C156.963 83.3347 156.556 84.3959 156.148 85.4571C156.027 85.7753 155.906 86.0935 155.781 86.4214C155.67 86.7094 155.559 86.9974 155.445 87.2941C155.349 87.5458 155.252 87.7974 155.153 88.0567C154.908 88.6307 154.908 88.6307 154.579 88.9598C153.582 88.9889 152.593 88.9977 151.596 88.9919C151.297 88.9914 150.998 88.991 150.69 88.9905C149.731 88.9886 148.772 88.9845 147.813 88.9803C147.164 88.9787 146.516 88.9772 145.867 88.9758C144.274 88.9722 142.681 88.9665 141.088 88.9598C141.287 87.3134 142.035 86.0234 142.788 84.5753C146.142 78.4921 146.142 78.4921 146.833 71.8423C146.224 70.0414 145.3 68.4135 144.352 66.771C143.222 64.7485 142.462 62.5468 141.631 60.3895C141.09 58.9946 140.529 57.6078 139.971 56.2198C138.355 52.1904 136.747 48.1579 135.144 44.1235C134.829 43.3307 134.514 42.5381 134.197 41.7457C133.754 40.6345 133.313 39.5228 132.871 38.4109C132.737 38.0746 132.603 37.7383 132.464 37.3918C132.342 37.0847 132.221 36.7776 132.096 36.4611C131.989 36.1925 131.882 35.9238 131.772 35.647C131.545 34.9944 131.545 34.9944 131.545 34.3362Z" fill="white"/>
<path d="M353.329 34.9944C357.673 34.9944 362.017 34.9944 366.492 34.9944C366.508 36.5952 366.524 38.1961 366.541 39.8454C366.552 40.8652 366.564 41.8849 366.577 42.9046C366.596 44.5199 366.615 46.1352 366.631 47.7505C366.643 49.0542 366.658 50.3578 366.675 51.6614C366.681 52.1564 366.686 52.6515 366.69 53.1466C366.549 57.6885 366.549 57.6885 368.055 61.8254C370.4 63.3479 373.545 63.038 376.18 62.6018C377.239 62.2297 377.668 61.8958 378.338 60.9899C379.237 58.3971 379.112 55.7015 379.132 52.9897C379.138 52.4697 379.145 51.9496 379.151 51.4296C379.168 50.0686 379.181 48.7075 379.194 47.3465C379.209 45.7093 379.229 44.0721 379.249 42.435C379.278 39.9548 379.301 37.4746 379.325 34.9944C383.669 34.9944 388.012 34.9944 392.487 34.9944C392.487 48.0251 392.487 61.0557 392.487 74.4813C388.361 74.4813 384.235 74.4813 379.983 74.4813C379.468 73.966 379.453 73.3542 379.304 72.6509C379.217 72.243 379.217 72.243 379.128 71.8269C379.085 71.617 379.041 71.407 378.996 71.1907C378.86 71.3179 378.724 71.4452 378.585 71.5763C374.999 74.8098 370.872 75.4947 366.163 75.4684C362.946 75.247 359.285 74.5782 356.949 72.1779C354.328 68.8889 353.274 65.2624 353.292 61.1065C353.292 60.8238 353.292 60.5411 353.292 60.2499C353.292 59.3187 353.295 58.3876 353.297 57.4564C353.298 56.8095 353.298 56.1627 353.299 55.5158C353.3 53.8155 353.303 52.1153 353.307 50.4151C353.311 48.3738 353.312 46.3326 353.314 44.2913C353.317 41.1923 353.324 38.0934 353.329 34.9944Z" fill="white"/>
<path d="M258.89 23.1483C263.668 23.1483 268.446 23.1483 273.369 23.1483C274.415 25.4515 275.403 27.7006 276.268 30.0662C276.434 30.5144 276.434 30.5144 276.604 30.9716C276.952 31.9145 277.299 32.858 277.646 33.8015C278.105 35.0451 278.565 36.2884 279.024 37.5317C279.134 37.8276 279.243 38.1236 279.356 38.4285C280.422 42.2368 280.422 42.2368 282.253 45.5242C282.339 45.2872 282.424 45.0502 282.512 44.806C284.408 39.5645 286.359 34.3473 288.382 29.1536C288.484 28.8906 288.587 28.6275 288.692 28.3565C288.983 27.6091 289.275 26.862 289.567 26.1149C289.654 25.8905 289.742 25.6661 289.832 25.4349C290.441 23.8843 290.441 23.8843 290.809 23.1483C295.586 23.1483 300.364 23.1483 305.287 23.1483C304.971 24.7287 304.449 25.9857 303.755 27.417C303.57 27.8035 303.57 27.8035 303.382 28.1978C302.977 29.045 302.569 29.8911 302.161 30.7372C301.877 31.3295 301.594 31.9219 301.311 32.5144C300.728 33.7323 300.145 34.9498 299.562 36.1671C298.766 37.8296 297.974 39.4943 297.185 41.1603C297.066 41.4125 296.946 41.6647 296.823 41.9245C296.234 43.1685 295.649 44.4145 295.073 45.6648C294.091 47.7904 293.105 49.865 291.897 51.8752C287.879 58.8458 288.672 66.67 288.834 74.4812C284.382 74.4812 279.93 74.4812 275.343 74.4812C275.392 73.4462 275.44 72.4112 275.491 71.3449C275.803 61.6204 274.379 54.8036 269.599 46.3793C268.392 44.2332 267.373 42.0024 266.348 39.7655C265.824 38.6267 265.289 37.4934 264.755 36.3594C264.547 35.9159 264.339 35.4723 264.131 35.0287C263.583 33.8609 263.033 32.694 262.483 31.5272C262.046 30.6006 261.611 29.6734 261.175 28.7461C260.97 28.3084 260.764 27.8709 260.557 27.4336C260.274 26.8352 259.993 26.236 259.713 25.6368C259.473 25.1284 259.473 25.1284 259.229 24.6098C258.89 23.8064 258.89 23.8064 258.89 23.1483Z" fill="white"/>
<path d="M257.903 35.6525C257.903 39.4531 257.903 43.2537 257.903 47.1695C254.283 46.8404 254.283 46.8404 253.263 46.7363C246.227 45.9593 246.227 45.9593 239.784 48.2184C238.261 50.4288 238.001 52.4752 238.036 55.0874C238.032 55.3701 238.028 55.6529 238.024 55.9441C238.033 57.776 238.326 59.0251 239.147 60.6608C239.255 60.9866 239.364 61.3124 239.476 61.648C244.984 62.8935 250.077 62.7237 255.679 62.1825C256.006 62.1516 256.332 62.1207 256.669 62.0889C256.962 62.0596 257.256 62.0303 257.558 62.0001C257.781 61.9925 258.003 61.9849 258.232 61.9771C258.561 62.3061 258.561 62.3061 258.598 63.3403C258.598 63.7981 258.596 64.2559 258.593 64.7136C258.593 64.9542 258.592 65.1948 258.592 65.4426C258.59 66.2138 258.586 66.985 258.582 67.7561C258.58 68.2778 258.578 68.7994 258.577 69.3211C258.573 70.6024 258.568 71.8837 258.561 73.165C254.286 74.694 250.042 74.8728 245.534 74.9079C244.884 74.913 244.233 74.9218 243.582 74.9307C238.413 74.9271 233.217 74.137 229.275 70.5326C224.476 65.5186 224.502 58.1654 224.639 51.6498C224.814 46.4904 226.111 41.572 229.965 37.9687C237.288 31.8469 249.369 33.5191 257.903 35.6525Z" fill="white"/>
<path d="M42.2805 14.0009C42.4785 14.0013 42.6765 14.0018 42.8805 14.0023C45.9986 14.0148 49.0124 14.1731 52.0646 14.858C52.264 14.901 52.4635 14.944 52.669 14.9884C60.5309 16.7283 68.5047 20.5796 73.0074 27.5369C75.076 30.8696 76.6677 34.9331 76.1286 38.922C75.5826 40.0748 74.9984 40.7918 73.7998 41.2508C72.5344 41.3882 71.3835 41.4246 70.1935 40.9435C68.9454 39.8467 68.4954 38.9639 68.2366 37.321C67.4761 33.0526 65.3548 29.9184 61.8972 27.2781C54.0862 21.9407 44.0256 20.9106 34.8947 22.4899C29.1235 23.592 23.9072 25.9531 19.7204 30.1244C19.5753 30.2635 19.4302 30.4026 19.2807 30.5459C16.7994 33.1445 15.9664 36.395 16.0261 39.8701C16.0897 41.3309 16.4739 42.5369 17.1329 43.8383C17.2975 44.1636 17.2975 44.1636 17.4654 44.4953C20.3686 49.7194 25.8072 52.859 31.3985 54.5244C32.3304 54.7828 33.2671 55.0117 34.2106 55.2235C34.4624 55.2809 34.7142 55.3382 34.9737 55.3973C36.2568 55.6446 37.5391 55.7616 38.8409 55.8582C39.2571 55.8897 39.2571 55.8897 39.6817 55.9217C40.2415 55.9623 40.8015 55.9995 41.3618 56.0328C44.1029 56.2237 44.1029 56.2237 45.1768 57.4392C46.337 58.8993 47.2312 60.5283 48.1509 62.1451C49.3868 64.289 50.6194 66.4085 52.0646 68.4199C52.2233 68.642 52.3821 68.8642 52.5457 69.0931C53.5154 70.3985 54.255 71.3217 55.8973 71.6867C57.6447 71.344 58.7299 69.8978 59.6978 68.4846C62.5282 63.7394 64.0833 58.1544 65.5066 52.8583C65.6251 52.4183 65.6251 52.4183 65.7461 51.9695C65.8929 51.4159 66.0359 50.8613 66.1743 50.3055C66.6268 48.5815 67.0937 47.3552 68.6359 46.3349C69.7377 45.9698 70.9059 45.9567 71.9977 46.3632C72.8878 46.8433 73.6145 47.3243 74.0586 48.2371C74.6145 50.5973 73.8466 52.7053 73.1853 54.9647C73.0658 55.3822 72.9464 55.7998 72.8271 56.2173C71.4033 61.1479 69.8098 65.9788 67.331 70.4899C67.1886 70.7644 67.0461 71.0389 66.8994 71.3218C64.9908 74.8443 62.1062 77.9196 58.2746 79.2875C55.4844 79.9709 53.0532 79.423 50.6252 77.9614C46.3409 75.0652 42.2188 69.3227 40.4716 64.48C40.1866 63.9513 40.1866 63.9513 39.5006 63.8332C39.2235 63.8052 38.9464 63.7771 38.6609 63.7482C38.3518 63.7129 38.0427 63.6776 37.7242 63.6412C37.3919 63.6065 37.0596 63.5717 36.7173 63.5359C27.712 62.4696 18.7089 58.9611 12.7341 51.8597C9.30477 47.3676 7.60829 42.246 8.07651 36.5933C8.29221 35.1768 8.68286 33.8181 9.11153 32.4532C9.18624 32.214 9.26096 31.9749 9.33794 31.7285C10.3873 28.7911 12.4162 26.3966 14.5453 24.1731C14.7068 23.9953 14.8682 23.8175 15.0345 23.6344C19.2181 19.1783 25.4183 16.6032 31.2511 15.1814C31.4617 15.13 31.6722 15.0785 31.8891 15.0255C35.3449 14.2308 38.7502 13.9833 42.2805 14.0009Z" fill="white"/>
<path d="M56.1935 36.006C57.2229 36.5369 57.8294 37.0823 58.2746 38.1458C58.5811 39.4424 58.5707 40.2942 58.0159 41.5096C57.4112 42.3964 56.9371 42.9179 55.9458 43.3208C54.6539 43.5042 53.6386 43.4635 52.4688 42.868C51.2854 41.8289 50.8616 41.1153 50.7394 39.5376C50.7936 38.4732 51.1512 37.6852 51.8058 36.852C53.0624 35.7255 54.6074 35.414 56.1935 36.006Z" fill="white"/>
<path d="M30.5881 35.817C31.9717 36.3226 32.7761 37.0881 33.4343 38.4045C33.6436 40.0893 33.4086 41.1806 32.3993 42.5446C31.3939 43.489 30.266 43.4508 28.9476 43.4118C27.6978 43.2466 27.0305 42.6527 26.2216 41.736C25.6966 40.3944 25.687 38.994 26.2378 37.6606C27.5211 36.156 28.6214 35.6152 30.5881 35.817Z" fill="white"/>
<path d="M43.2669 35.817C44.4653 36.4727 45.4173 37.0929 45.8545 38.4045C45.9901 39.6969 45.9968 40.7022 45.4178 41.8815C44.6316 42.7527 44.1089 43.2516 42.9132 43.3936C41.621 43.4396 40.6654 43.4155 39.6444 42.5446C38.6391 41.3997 38.2698 40.753 38.295 39.2051C38.4159 38.0266 38.9224 37.2999 39.7738 36.5124C40.8744 35.7695 41.9663 35.6347 43.2669 35.817Z" fill="white"/>
</svg>
