<svg width="412" height="132" viewBox="0 0 412 132" fill="none" xmlns="http://www.w3.org/2000/svg">
<path d="M120.461 35.0074C121.334 35.0167 122.207 35.0139 123.081 35.0098C128.556 35.016 133.538 35.7917 138.671 37.7071C138.68 38.9095 138.686 40.1119 138.691 41.3143C138.693 41.65 138.696 41.9856 138.699 42.3314C138.706 44.5288 138.593 46.6834 138.352 48.8676C136.646 48.6846 135.069 48.3851 133.409 47.9309C126.7 46.202 119.169 45.6956 112.523 47.911C112.135 49.4635 111.892 51.2121 112.458 52.7407C113.184 53.8574 114.483 54.0186 115.712 54.2884C117.945 54.6609 120.2 54.898 122.449 55.1579C134.624 56.5821 134.624 56.5821 138.033 60.6658C140.78 64.9918 141.216 69.9771 140.225 74.9553C139.343 78.3147 137.478 81.1669 134.471 82.9482C129.088 85.8423 123.326 86.3038 117.326 86.2752C117.085 86.2748 116.843 86.2745 116.595 86.2741C101.416 86.2285 101.416 86.2285 99.1308 83.9435C99.1026 83.0933 99.094 82.2514 99.0996 81.4012C99.1001 81.1469 99.1005 80.8925 99.101 80.6305C99.1028 79.8149 99.1068 78.9994 99.1109 78.1838C99.1125 77.6323 99.1139 77.0807 99.1152 76.5291C99.1187 75.1741 99.1242 73.8191 99.1308 72.4641C100.698 72.6759 102.168 72.9876 103.695 73.4008C108.682 74.6362 113.923 74.8235 119.04 74.6364C119.329 74.6269 119.617 74.6173 119.914 74.6075C122.345 74.4783 124.571 73.8692 126.873 73.1018C127.231 72.1682 127.253 71.2249 127.271 70.232C127.279 69.9623 127.288 69.6927 127.296 69.4149C127.166 68.4511 126.885 68.0791 126.235 67.3621C123.323 66.0002 119.67 66.0209 116.503 65.7187C111.215 65.2058 105.464 64.4982 101.682 60.347C99.4809 57.2909 98.9688 53.8045 99.0112 50.1232C99.0075 49.8007 99.0038 49.4782 99 49.146C99.0137 45.6082 99.8697 42.5388 102.3 39.9081C107.1 35.3219 114.145 34.9344 120.461 35.0074Z" fill="#01162F"/>
<path d="M223.091 48.9361C226.252 51.44 227.264 54.954 227.828 58.7996C228.076 61.1996 228.032 63.603 228.017 66.0132C228.016 66.5792 228.015 67.1452 228.014 67.7112C228.012 69.1869 228.006 70.6625 227.999 72.1381C227.991 73.9161 227.988 75.6942 227.984 77.4723C227.978 80.1608 227.966 82.8493 227.955 85.5378C223.746 85.5378 219.537 85.5378 215.2 85.5378C215.01 83.83 214.841 82.2919 214.831 80.6022C214.828 80.2222 214.824 79.8423 214.821 79.4508C214.819 79.0492 214.816 78.6475 214.814 78.2337C214.807 77.5905 214.801 76.9473 214.794 76.3042C214.777 74.7315 214.763 73.1588 214.753 71.5861C214.748 70.6995 214.74 69.813 214.729 68.9265C214.719 68.0957 214.713 67.2649 214.711 66.434C214.692 62.9012 214.692 62.9012 213.155 59.8163C211.755 58.6383 209.77 58.6276 208.024 58.6754C206.568 58.8166 205.231 59.0588 204.248 60.2137C203.161 62.0005 203.044 63.6934 203.017 65.7364C203.014 65.9513 203.011 66.1661 203.008 66.3874C202.998 67.0931 202.99 67.7987 202.982 68.5044C202.975 68.9954 202.969 69.4864 202.962 69.9774C202.944 71.2664 202.929 72.5555 202.913 73.8445C202.897 75.1612 202.879 76.4779 202.862 77.7946C202.828 80.3757 202.795 82.9567 202.764 85.5378C200.953 85.5457 199.143 85.5515 197.332 85.5553C196.716 85.5569 196.099 85.5591 195.483 85.5619C194.599 85.5657 193.715 85.5676 192.83 85.569C192.414 85.5714 192.414 85.5714 191.99 85.574C191.33 85.574 190.669 85.5576 190.009 85.5378C189.493 85.0213 189.65 84.4561 189.65 83.7422C189.649 83.4229 189.648 83.1037 189.647 82.7747C189.648 82.4216 189.648 82.0684 189.649 81.7045C189.648 81.3349 189.648 80.9652 189.647 80.5844C189.646 79.3557 189.647 78.1271 189.648 76.8984C189.648 76.0489 189.647 75.1993 189.647 74.3498C189.646 72.5666 189.647 70.7834 189.649 69.0003C189.65 66.9359 189.65 64.8716 189.648 62.8072C189.647 61.0378 189.646 59.2684 189.647 57.4989C189.648 56.4408 189.648 55.3827 189.647 54.3246C189.646 53.1456 189.647 51.9667 189.649 50.7877C189.648 50.4345 189.648 50.0814 189.647 49.7175C189.648 49.3982 189.649 49.079 189.65 48.75C189.65 48.4709 189.65 48.1918 189.65 47.9042C189.69 47.2733 189.69 47.2733 190.009 46.9544C190.906 46.9261 191.794 46.9177 192.691 46.9233C192.959 46.9237 193.228 46.9242 193.505 46.9246C194.366 46.9264 195.227 46.9304 196.088 46.9345C196.67 46.9361 197.252 46.9375 197.835 46.9388C199.265 46.9421 200.696 46.9483 202.126 46.9544C202.337 48.7433 202.547 50.5321 202.764 52.3752C203.185 51.8491 203.606 51.3229 204.04 50.7809C208.847 45.6683 217.259 45.1264 223.091 48.9361Z" fill="#01162F"/>
<path d="M332.704 47.1537C333.118 47.15 333.532 47.1463 333.958 47.1425C338.976 47.1575 343.947 48.0447 347.731 51.5581C348.106 51.9625 348.106 51.9625 348.488 52.3752C348.699 52.5988 348.909 52.8224 349.126 53.0528C353.221 58.94 353.166 66.9164 352.11 73.7397C351.365 77.8891 349.402 81.4914 345.937 83.9434C342.437 85.9894 338.459 86.6396 334.458 86.8133C334.184 86.8264 333.911 86.8396 333.629 86.8531C328.207 86.984 322.359 86.2176 317.995 82.7614C314.352 79.2382 313.144 74.0898 312.998 69.1807C312.991 68.4948 312.99 67.8089 312.994 67.123C312.995 66.7617 312.996 66.4004 312.998 66.0281C313.074 60.3466 314.082 55.4222 318.075 51.1894C321.969 47.5282 327.631 47.1083 332.704 47.1537ZM326.845 59.8687C324.781 62.79 324.92 66.7564 325.311 70.151C325.65 71.9608 326.373 73.2797 327.662 74.6165C330.084 75.9255 333.167 75.9781 335.813 75.4136C337.342 74.9039 338.426 74.5162 339.323 73.1118C340.245 71.0747 340.319 69.0435 340.337 66.844C340.34 66.5626 340.343 66.2813 340.347 65.9914C340.316 63.6905 339.959 61.6096 338.543 59.7491C335.309 57.3051 329.973 57.1482 326.845 59.8687Z" fill="#398611"/>
<path d="M143.135 46.9543C147.87 46.9543 152.606 46.9543 157.484 46.9543C158.577 49.6852 159.548 52.4124 160.454 55.2051C160.568 55.5568 160.568 55.5568 160.685 55.9156C162.11 60.3072 163.283 64.7287 164.314 69.2293C164.436 69.9021 164.436 69.9021 164.818 70.232C164.858 70.0393 164.898 69.8465 164.938 69.648C165.901 65.0469 167.094 60.5635 168.505 56.082C168.579 55.8461 168.653 55.6102 168.729 55.3672C168.944 54.6788 169.163 53.9914 169.383 53.3044C169.51 52.9096 169.636 52.5149 169.767 52.1081C170.387 50.3644 171.122 48.6629 171.833 46.9543C176.358 46.9543 180.883 46.9543 185.545 46.9543C185.323 48.2839 185.142 49.2221 184.676 50.4316C184.563 50.7297 184.449 51.0278 184.332 51.335C184.145 51.8166 184.145 51.8166 183.954 52.3079C183.824 52.6492 183.693 52.9904 183.558 53.3421C183.126 54.4686 182.691 55.5942 182.257 56.7198C181.952 57.512 181.648 58.3044 181.344 59.0968C180.637 60.9369 179.929 62.7763 179.22 64.6155C178.442 66.6336 177.666 68.6526 176.891 70.6716C175.848 73.3855 174.804 76.0987 173.759 78.8116C172.695 81.5752 171.633 84.34 170.574 87.1057C170.055 88.4606 169.535 89.8152 169.016 91.1699C168.73 91.9156 168.444 92.6614 168.159 93.4073C167.766 94.4361 167.372 95.4645 166.977 96.4928C166.859 96.8011 166.742 97.1095 166.621 97.4272C166.513 97.7063 166.406 97.9854 166.295 98.2729C166.202 98.5168 166.109 98.7606 166.012 99.0119C165.775 99.5681 165.775 99.5681 165.456 99.887C164.49 99.9153 163.531 99.9237 162.565 99.9181C162.275 99.9177 161.986 99.9172 161.687 99.9168C160.758 99.915 159.829 99.911 158.899 99.9069C158.271 99.9053 157.642 99.9039 157.014 99.9026C155.47 99.899 153.926 99.8935 152.382 99.887C152.575 98.2916 153.3 97.0415 154.03 95.6383C157.28 89.7434 157.28 89.7434 157.95 83.2995C157.36 81.5542 156.465 79.9767 155.546 78.3851C154.451 76.4252 153.714 74.2917 152.909 72.2012C152.385 70.8494 151.841 69.5055 151.3 68.1605C149.735 64.2558 148.176 60.3482 146.623 56.4386C146.318 55.6704 146.012 54.9023 145.706 54.1344C145.276 53.0577 144.848 51.9803 144.421 50.9029C144.29 50.577 144.16 50.2511 144.026 49.9153C143.908 49.6177 143.79 49.3201 143.669 49.0135C143.565 48.7531 143.462 48.4928 143.355 48.2245C143.135 47.5921 143.135 47.5921 143.135 46.9543Z" fill="#01162F"/>
<path d="M358.054 47.5922C362.263 47.5922 366.472 47.5922 370.809 47.5922C370.825 49.1434 370.84 50.6947 370.856 52.293C370.868 53.2812 370.879 54.2694 370.891 55.2575C370.91 56.8228 370.929 58.3881 370.944 59.9534C370.955 61.2167 370.97 62.48 370.987 63.7432C370.993 64.2229 370.998 64.7027 371.001 65.1824C370.865 69.5838 370.865 69.5838 372.324 73.5926C374.596 75.068 377.644 74.7676 380.197 74.345C381.224 73.9844 381.639 73.6608 382.288 72.783C383.16 70.2705 383.039 67.6583 383.058 65.0304C383.064 64.5265 383.07 64.0225 383.077 63.5186C383.093 62.1997 383.106 60.8808 383.118 59.5619C383.133 57.9754 383.153 56.3889 383.171 54.8025C383.199 52.399 383.222 49.9956 383.245 47.5922C387.454 47.5922 391.663 47.5922 396 47.5922C396 60.2195 396 72.8468 396 85.8567C392.001 85.8567 388.003 85.8567 383.883 85.8567C383.384 85.3574 383.369 84.7645 383.225 84.083C383.141 83.6878 383.141 83.6878 383.055 83.2846C383.012 83.0811 382.97 82.8776 382.926 82.668C382.795 82.7913 382.663 82.9146 382.528 83.0417C379.053 86.1751 375.054 86.8388 370.49 86.8133C367.374 86.5987 363.825 85.9507 361.562 83.6246C359.021 80.4375 358 76.9232 358.018 72.896C358.018 72.622 358.018 72.3481 358.018 72.0659C358.018 71.1635 358.021 70.2612 358.023 69.3589C358.024 68.732 358.024 68.1052 358.024 67.4783C358.026 65.8307 358.029 64.1831 358.032 62.5355C358.036 60.5574 358.038 58.5794 358.04 56.6013C358.043 53.5982 358.049 50.5952 358.054 47.5922Z" fill="#398611"/>
<path d="M266.538 36.1127C271.168 36.1127 275.798 36.1127 280.569 36.1127C281.583 38.3447 282.54 40.5241 283.379 42.8165C283.539 43.2508 283.539 43.2508 283.703 43.6939C284.041 44.6076 284.378 45.5218 284.714 46.4362C285.159 47.6413 285.604 48.8461 286.049 50.0509C286.155 50.3377 286.261 50.6245 286.37 50.92C287.403 54.6103 287.403 54.6103 289.178 57.796C289.261 57.5663 289.344 57.3366 289.429 57.1C291.266 52.0208 293.157 46.9651 295.117 41.9321C295.216 41.6772 295.315 41.4224 295.418 41.1598C295.7 40.4355 295.982 39.7115 296.265 38.9876C296.35 38.7701 296.435 38.5526 296.523 38.3286C297.112 36.8259 297.112 36.8259 297.469 36.1127C302.099 36.1127 306.729 36.1127 311.499 36.1127C311.193 37.6442 310.687 38.8623 310.014 40.2493C309.835 40.6238 309.835 40.6238 309.653 41.0059C309.26 41.8269 308.865 42.6468 308.47 43.4667C308.195 44.0407 307.92 44.6147 307.646 45.1889C307.081 46.3691 306.516 47.5489 305.951 48.7285C305.179 50.3396 304.412 51.9527 303.648 53.5672C303.532 53.8116 303.416 54.0559 303.297 54.3077C302.726 55.5133 302.16 56.7207 301.602 57.9322C300.649 59.9921 299.694 62.0024 298.524 63.9504C294.63 70.7052 295.399 78.2872 295.555 85.8567C291.241 85.8567 286.927 85.8567 282.482 85.8567C282.529 84.8537 282.576 83.8508 282.625 82.8174C282.928 73.394 281.548 66.7881 276.916 58.6246C275.746 56.545 274.758 54.3832 273.765 52.2156C273.258 51.112 272.739 50.0138 272.222 48.9149C272.02 48.4851 271.819 48.0553 271.617 47.6254C271.086 46.4938 270.553 45.363 270.02 44.2323C269.597 43.3343 269.175 42.4358 268.753 41.5372C268.554 41.1131 268.354 40.6892 268.154 40.2654C267.88 39.6856 267.608 39.1049 267.335 38.5242C267.104 38.0316 267.104 38.0316 266.867 37.529C266.538 36.7505 266.538 36.7505 266.538 36.1127Z" fill="#398611"/>
<path d="M265.582 48.2298C265.582 51.9128 265.582 55.5957 265.582 59.3903C262.074 59.0714 262.074 59.0714 261.085 58.9706C254.268 58.2176 254.268 58.2176 248.024 60.4067C246.548 62.5487 246.295 64.5317 246.33 67.0632C246.326 67.3371 246.322 67.6111 246.319 67.8933C246.327 69.6685 246.61 70.879 247.406 72.464C247.511 72.7797 247.616 73.0954 247.725 73.4207C253.063 74.6276 257.998 74.4631 263.427 73.9386C263.743 73.9087 264.06 73.8787 264.386 73.8479C264.67 73.8195 264.955 73.7911 265.248 73.7619C265.463 73.7545 265.679 73.7471 265.901 73.7395C266.219 74.0584 266.219 74.0584 266.256 75.0606C266.256 75.5042 266.254 75.9478 266.251 76.3914C266.25 76.6245 266.25 76.8576 266.249 77.0978C266.247 77.8451 266.243 78.5924 266.239 79.3397C266.238 79.8452 266.236 80.3507 266.235 80.8562C266.231 82.0979 266.226 83.3395 266.219 84.5812C262.076 86.0628 257.964 86.236 253.596 86.2701C252.965 86.275 252.335 86.2835 251.704 86.2922C246.695 86.2887 241.66 85.523 237.84 82.0302C233.19 77.1715 233.215 70.0459 233.347 63.732C233.517 58.7322 234.774 53.9661 238.509 50.4744C245.605 44.5421 257.312 46.1625 265.582 48.2298Z" fill="#01162F"/>
<path d="M53.2505 23.001C53.483 23.0016 53.7155 23.0021 53.9551 23.0027C57.6162 23.0173 61.1549 23.2033 64.7386 24.0074C64.9728 24.0579 65.207 24.1084 65.4483 24.1605C74.6794 26.2035 84.0418 30.7254 89.3287 38.8944C91.7575 42.8075 93.6264 47.5787 92.9935 52.2623C92.3523 53.6158 91.6664 54.4577 90.2591 54.9966C88.7733 55.158 87.422 55.2007 86.0247 54.6359C84.5592 53.348 84.0309 52.3114 83.7271 50.3824C82.834 45.3707 80.3433 41.6906 76.2836 38.5906C67.1122 32.3237 55.2996 31.1142 44.5786 32.9685C37.8023 34.2624 31.6775 37.0348 26.7616 41.9325C26.5912 42.0959 26.4208 42.2592 26.2453 42.4274C23.3319 45.4785 22.3537 49.2952 22.4239 53.3755C22.4985 55.0907 22.9497 56.5067 23.7234 58.0348C23.9167 58.4166 23.9167 58.4166 24.1139 58.8062C27.5226 64.94 33.9084 68.6265 40.4735 70.5819C41.5677 70.8853 42.6674 71.1541 43.7753 71.4027C44.0709 71.4701 44.3666 71.5374 44.6713 71.6068C46.1778 71.8971 47.6834 72.0345 49.2119 72.148C49.7006 72.1849 49.7006 72.1849 50.1992 72.2225C50.8564 72.2702 51.514 72.3138 52.1719 72.3529C55.3903 72.5771 55.3903 72.5771 56.6513 74.0044C58.0135 75.7186 59.0634 77.6314 60.1433 79.5298C61.5944 82.047 63.0418 84.5356 64.7386 86.8973C64.925 87.1582 65.1114 87.419 65.3035 87.6877C66.4421 89.2205 67.3105 90.3045 69.2388 90.733C71.2905 90.3307 72.5647 88.6327 73.7011 86.9733C77.0245 81.4017 78.8504 74.844 80.5216 68.6256C80.6608 68.109 80.6608 68.109 80.8028 67.582C80.9752 66.932 81.1431 66.2808 81.3055 65.6283C81.8369 63.604 82.3851 62.1641 84.1958 60.9662C85.4896 60.5375 86.8612 60.5221 88.1431 60.9994C89.1883 61.563 90.0415 62.1279 90.5629 63.1997C91.2157 65.9709 90.314 68.4459 89.5376 71.0989C89.3973 71.5891 89.2571 72.0794 89.117 72.5696C87.4453 78.3589 85.5742 84.0311 82.6637 89.3279C82.4965 89.6502 82.3293 89.9725 82.157 90.3046C79.916 94.4405 76.529 98.0515 72.0302 99.6576C68.7539 100.46 65.8994 99.8166 63.0486 98.1005C58.0182 94.6999 53.1781 87.9574 51.1266 82.2713C50.792 81.6505 50.792 81.6505 49.9865 81.5119C49.6612 81.4789 49.3358 81.446 49.0007 81.412C48.6377 81.3706 48.2748 81.3291 47.9008 81.2864C47.5106 81.2456 47.1205 81.2048 46.7185 81.1628C36.1449 79.9108 25.5739 75.7912 18.5585 67.4531C14.532 62.1787 12.5401 56.1652 13.0898 49.528C13.3431 47.8648 13.8018 46.2695 14.3051 44.6669C14.3928 44.3861 14.4806 44.1053 14.5709 43.816C15.8031 40.367 18.1853 37.5555 20.6852 34.9448C20.8748 34.736 21.0643 34.5273 21.2596 34.3122C26.1718 29.0802 33.4518 26.0565 40.3004 24.3872C40.5476 24.3268 40.7948 24.2664 41.0495 24.2041C45.1071 23.271 49.1054 22.9804 53.2505 23.001Z" fill="#021730"/>
<path d="M69.5866 48.8384C70.7952 49.4618 71.5074 50.1021 72.0301 51.3509C72.39 52.8733 72.3778 53.8734 71.7263 55.3005C71.0164 56.3417 70.4596 56.9541 69.2958 57.4272C67.7788 57.6425 66.5868 57.5947 65.2133 56.8955C63.8237 55.6754 63.3261 54.8375 63.1827 52.9851C63.2463 51.7354 63.6662 50.8101 64.4347 49.8318C65.9102 48.5091 67.7242 48.1433 69.5866 48.8384Z" fill="#398611"/>
<path d="M39.5219 48.6165C41.1465 49.2101 42.091 50.109 42.8638 51.6547C43.1096 53.6328 42.8337 54.9142 41.6486 56.5157C40.4681 57.6247 39.1437 57.5798 37.5957 57.534C36.1283 57.34 35.3447 56.6427 34.395 55.5663C33.7786 53.9911 33.7673 52.3468 34.4139 50.7812C35.9208 49.0146 37.2127 48.3796 39.5219 48.6165Z" fill="#398611"/>
<path d="M54.4088 48.6165C55.8159 49.3864 56.9336 50.1146 57.4469 51.6546C57.6062 53.172 57.614 54.3524 56.9342 55.7371C56.0111 56.7601 55.3974 57.3458 53.9934 57.5126C52.4761 57.5666 51.3542 57.5382 50.1553 56.5157C48.975 55.1714 48.5414 54.4121 48.571 52.5946C48.713 51.2109 49.3076 50.3576 50.3073 49.433C51.5996 48.5607 52.8816 48.4024 54.4088 48.6165Z" fill="#398611"/>
</svg>
