<svg width="63" height="63" viewBox="0 0 63 63" fill="none" xmlns="http://www.w3.org/2000/svg">
<path d="M30.7446 5.00067C30.8991 5.00104 31.0536 5.00141 31.2127 5.00179C33.6454 5.01151 35.9967 5.13508 38.3778 5.66937C38.5335 5.70294 38.6891 5.73651 38.8494 5.7711C44.983 7.12854 51.2039 10.1332 54.7168 15.5611C56.3306 18.1612 57.5724 21.3314 57.1519 24.4434C56.7259 25.3428 56.2701 25.9022 55.335 26.2603C54.3478 26.3675 53.4499 26.3959 52.5215 26.0205C51.5477 25.1648 51.1967 24.4761 50.9948 23.1943C50.4014 19.8643 48.7465 17.4191 46.049 15.3592C39.955 11.1951 32.1061 10.3915 24.9825 11.6236C20.4799 12.4834 16.4104 14.3255 13.1439 17.5798C13.0307 17.6883 12.9175 17.7968 12.8009 17.9086C10.865 19.9359 10.2151 22.4719 10.2617 25.1831C10.3113 26.3228 10.6111 27.2636 11.1252 28.279C11.2536 28.5327 11.2536 28.5327 11.3846 28.7915C13.6496 32.8672 17.8926 35.3167 22.2548 36.6159C22.9819 36.8175 23.7126 36.9961 24.4487 37.1613C24.6452 37.2061 24.8416 37.2508 25.0441 37.297C26.0451 37.4898 27.0455 37.5811 28.0611 37.6565C28.3858 37.6811 28.3858 37.6811 28.7171 37.7061C29.1538 37.7378 29.5908 37.7667 30.0279 37.7927C32.1664 37.9416 32.1664 37.9416 33.0042 38.89C33.9093 40.029 34.607 41.3 35.3245 42.5614C36.2887 44.234 37.2504 45.8875 38.3778 47.4568C38.5017 47.6301 38.6256 47.8034 38.7532 47.9819C39.5098 49.0004 40.0868 49.7207 41.3681 50.0054C42.7313 49.7381 43.5779 48.6098 44.333 47.5072C46.5413 43.8052 47.7545 39.4479 48.8649 35.3161C48.9574 34.9728 48.9574 34.9728 49.0517 34.6226C49.1663 34.1908 49.2779 33.7581 49.3858 33.3245C49.7388 31.9795 50.1031 31.0227 51.3063 30.2267C52.1659 29.9419 53.0773 29.9316 53.929 30.2488C54.6235 30.6233 55.1905 30.9986 55.5369 31.7108C55.9706 33.5521 55.3715 35.1967 54.8556 36.9594C54.7624 37.2852 54.6693 37.6109 54.5762 37.9367C53.4654 41.7834 52.2222 45.5523 50.2883 49.0717C50.1771 49.2859 50.066 49.5001 49.9515 49.7207C48.4625 52.4689 46.212 54.8682 43.2228 55.9354C41.0459 56.4685 39.1492 56.041 37.2549 54.9008C33.9124 52.6412 30.6964 48.1611 29.3333 44.383C29.111 43.9705 29.111 43.9705 28.5758 43.8784C28.3596 43.8565 28.1435 43.8346 27.9207 43.812C27.6796 43.7845 27.4384 43.757 27.1899 43.7286C26.9307 43.7015 26.6714 43.6744 26.4043 43.6464C19.3787 42.8145 12.3548 40.0773 7.69338 34.537C5.01794 31.0324 3.6944 27.0367 4.05969 22.6266C4.22798 21.5215 4.53275 20.4615 4.86718 19.3966C4.92547 19.21 4.98376 19.0235 5.04382 18.8312C5.86253 16.5396 7.44541 14.6714 9.10648 12.9367C9.23243 12.798 9.35838 12.6593 9.48814 12.5164C12.752 9.03999 17.5893 7.03092 22.1398 5.92171C22.3041 5.88157 22.4683 5.84143 22.6376 5.80008C25.3336 5.18004 27.9904 4.98698 30.7446 5.00067Z" fill="white"/>
<path d="M41.5991 22.1684C42.4022 22.5827 42.8755 23.0081 43.2228 23.8378C43.4619 24.8494 43.4538 25.5139 43.0209 26.4621C42.5492 27.154 42.1792 27.5609 41.4059 27.8752C40.398 28.0183 39.6059 27.9866 38.6933 27.522C37.77 26.7113 37.4394 26.1545 37.3441 24.9237C37.3863 24.0933 37.6653 23.4785 38.176 22.8284C39.1563 21.9496 40.3617 21.7066 41.5991 22.1684Z" fill="white"/>
<path d="M21.6225 22.021C22.702 22.4154 23.3296 23.0126 23.8431 24.0397C24.0064 25.3541 23.8231 26.2055 23.0356 27.2696C22.2512 28.0065 21.3712 27.9767 20.3427 27.9462C19.3676 27.8174 18.847 27.354 18.2159 26.6388C17.8064 25.5921 17.7989 24.4995 18.2286 23.4593C19.2298 22.2855 20.0882 21.8635 21.6225 22.021Z" fill="white"/>
<path d="M31.5142 22.021C32.4492 22.5326 33.1918 23.0164 33.5329 24.0397C33.6388 25.0479 33.644 25.8322 33.1923 26.7523C32.5789 27.432 32.1711 27.8212 31.2382 27.932C30.2301 27.9679 29.4846 27.949 28.688 27.2696C27.9037 26.3764 27.6156 25.8719 27.6353 24.6642C27.7296 23.7448 28.1247 23.1779 28.7889 22.5635C29.6476 21.9839 30.4995 21.8788 31.5142 22.021Z" fill="white"/>
</svg>
