<svg width="423" height="78" viewBox="0 0 423 78" fill="none" xmlns="http://www.w3.org/2000/svg">
<path d="M113.365 6.00802C114.316 6.01813 115.267 6.01514 116.218 6.01065C122.179 6.01742 127.602 6.8619 133.191 8.94731C133.201 10.2564 133.207 11.5655 133.213 12.8746C133.215 13.24 133.218 13.6054 133.221 13.9819C133.229 16.3743 133.106 18.7201 132.844 21.0981C130.987 20.8988 129.269 20.5728 127.463 20.0783C120.158 18.196 111.959 17.6447 104.723 20.0566C104.301 21.7469 104.036 23.6506 104.652 25.3148C105.442 26.5306 106.856 26.7061 108.195 26.9999C110.627 27.4055 113.082 27.6635 115.53 27.9466C128.785 29.4971 128.785 29.4971 132.497 33.9432C135.487 38.6531 135.962 44.0806 134.883 49.5005C133.923 53.158 131.892 56.2634 128.618 58.2027C122.757 61.3536 116.484 61.8561 109.953 61.8249C109.69 61.8245 109.427 61.8241 109.156 61.8237C92.6302 61.774 92.6302 61.774 90.1424 59.2863C90.1116 58.3606 90.1024 57.444 90.1085 56.5184C90.109 56.2415 90.1095 55.9646 90.11 55.6793C90.1119 54.7914 90.1163 53.9035 90.1207 53.0156C90.1224 52.4151 90.124 51.8145 90.1254 51.214C90.1293 49.7388 90.1353 48.2635 90.1424 46.7883C91.8486 47.0189 93.4493 47.3583 95.1112 47.8081C100.542 49.1532 106.247 49.3571 111.819 49.1534C112.132 49.143 112.446 49.1326 112.769 49.1219C115.417 48.9812 117.839 48.3181 120.346 47.4826C120.736 46.4662 120.76 45.4391 120.78 44.3582C120.789 44.0646 120.798 43.771 120.807 43.4685C120.666 42.4192 120.359 42.0142 119.651 41.2337C116.481 39.7508 112.504 39.7734 109.056 39.4444C103.299 38.886 97.0378 38.1156 92.9197 33.596C90.5236 30.2688 89.966 26.473 90.0122 22.4651C90.0082 22.114 90.0041 21.7629 90 21.4012C90.0149 17.5495 90.9469 14.2077 93.5923 11.3436C98.8188 6.35047 106.489 5.92862 113.365 6.00802Z" fill="#01162F"/>
<path d="M225.102 21.1727C228.543 23.8987 229.645 27.7245 230.259 31.9113C230.529 34.5242 230.481 37.1409 230.465 39.765C230.464 40.3812 230.463 40.9974 230.462 41.6137C230.459 43.2203 230.453 44.8268 230.445 46.4334C230.436 48.3692 230.433 50.305 230.429 52.2409C230.423 55.168 230.409 58.095 230.397 61.0221C225.815 61.0221 221.232 61.0221 216.511 61.0221C216.304 59.1627 216.12 57.4881 216.109 55.6485C216.105 55.2348 216.102 54.8211 216.098 54.3949C216.095 53.9577 216.093 53.5204 216.09 53.0698C216.083 52.3696 216.076 51.6693 216.068 50.9691C216.05 49.2569 216.034 47.5447 216.024 45.8324C216.018 44.8672 216.01 43.902 215.998 42.9368C215.987 42.0323 215.981 41.1277 215.978 40.2231C215.958 36.3768 215.958 36.3768 214.284 33.0182C212.76 31.7358 210.599 31.724 208.698 31.7761C207.113 31.9299 205.657 32.1936 204.586 33.4509C203.404 35.3962 203.275 37.2394 203.247 39.4637C203.244 39.6976 203.24 39.9315 203.237 40.1724C203.226 40.9407 203.217 41.7089 203.208 42.4772C203.201 43.0118 203.194 43.5464 203.187 44.081C203.167 45.4844 203.15 46.8878 203.134 48.2912C203.116 49.7247 203.097 51.1583 203.078 52.5918C203.04 55.4019 203.005 58.212 202.971 61.0221C201 61.0306 199.029 61.0369 197.057 61.0411C196.386 61.0429 195.715 61.0453 195.044 61.0483C194.081 61.0524 193.119 61.0544 192.156 61.056C191.703 61.0587 191.703 61.0587 191.241 61.0614C190.522 61.0615 189.803 61.0436 189.085 61.0221C188.522 60.4597 188.694 59.8444 188.693 59.0671C188.692 58.7195 188.691 58.3719 188.69 58.0138C188.691 57.6293 188.692 57.2448 188.692 56.8486C188.692 56.4462 188.691 56.0437 188.691 55.6291C188.689 54.2914 188.69 52.9538 188.691 51.6161C188.691 50.6911 188.691 49.7662 188.69 48.8413C188.69 46.8999 188.69 44.9585 188.692 43.0171C188.694 40.7696 188.693 38.5221 188.691 36.2746C188.69 34.3481 188.69 32.4217 188.691 30.4953C188.691 29.3433 188.691 28.1913 188.69 27.0393C188.689 25.7557 188.691 24.4721 188.692 23.1885C188.692 22.804 188.691 22.4195 188.69 22.0233C188.691 21.6758 188.692 21.3282 188.693 20.97C188.693 20.6662 188.694 20.3623 188.694 20.0492C188.737 19.3622 188.737 19.3622 189.085 19.0151C190.061 18.9843 191.028 18.9751 192.004 18.9812C192.297 18.9817 192.589 18.9822 192.89 18.9827C193.828 18.9846 194.765 18.989 195.702 18.9934C196.336 18.9951 196.97 18.9967 197.604 18.9981C199.162 19.0017 200.719 19.0085 202.277 19.0151C202.506 20.9627 202.735 22.9103 202.971 24.9169C203.429 24.3441 203.888 23.7712 204.36 23.1811C209.594 17.6148 218.752 17.0249 225.102 21.1727Z" fill="#01162F"/>
<path d="M344.441 19.2321C344.892 19.228 345.342 19.224 345.806 19.2198C351.269 19.2362 356.682 20.2022 360.801 24.0273C361.209 24.4676 361.209 24.4676 361.626 24.9169C361.855 25.1603 362.084 25.4038 362.32 25.6546C366.779 32.0642 366.718 40.7484 365.569 48.1771C364.757 52.6946 362.62 56.6166 358.848 59.2862C355.037 61.5137 350.706 62.2216 346.35 62.4107C346.053 62.425 345.755 62.4394 345.448 62.4541C339.545 62.5966 333.178 61.7621 328.427 57.9993C324.46 54.1634 323.145 48.5582 322.986 43.2136C322.979 42.4668 322.978 41.72 322.982 40.9733C322.983 40.5799 322.985 40.1865 322.986 39.7812C323.069 33.5957 324.167 28.2342 328.513 23.6259C332.754 19.6398 338.918 19.1827 344.441 19.2321ZM338.062 33.0753C335.814 36.2558 335.967 40.5742 336.392 44.27C336.761 46.2404 337.548 47.6762 338.951 49.1317C341.588 50.5568 344.945 50.6142 347.826 49.9996C349.491 49.4445 350.67 49.0225 351.647 47.4935C352.651 45.2756 352.731 43.0642 352.751 40.6695C352.755 40.3632 352.758 40.0569 352.762 39.7413C352.729 37.2362 352.34 34.9707 350.798 32.9451C347.277 30.2843 341.468 30.1134 338.062 33.0753Z" fill="#398611"/>
<path d="M138.051 19.0151C143.207 19.0151 148.362 19.0151 153.674 19.0151C154.863 21.9882 155.921 24.9574 156.907 27.998C157.031 28.3809 157.031 28.3809 157.159 28.7715C158.71 33.5528 159.987 38.3666 161.109 43.2666C161.242 43.9991 161.242 43.9991 161.658 44.3582C161.702 44.1484 161.745 43.9386 161.789 43.7224C162.838 38.713 164.136 33.8318 165.673 28.9527C165.753 28.6959 165.833 28.439 165.916 28.1744C166.151 27.4249 166.389 26.6766 166.629 25.9286C166.766 25.4988 166.904 25.069 167.046 24.6262C167.722 22.7278 168.521 20.8753 169.296 19.0151C174.222 19.0151 179.149 19.0151 184.224 19.0151C183.983 20.4627 183.785 21.4841 183.279 22.8009C183.155 23.1254 183.031 23.45 182.903 23.7844C182.7 24.3088 182.7 24.3088 182.492 24.8437C182.35 25.2152 182.208 25.5868 182.061 25.9696C181.591 27.1961 181.117 28.4216 180.644 29.647C180.313 30.5096 179.981 31.3722 179.65 32.2349C178.881 34.2383 178.11 36.241 177.338 38.2433C176.491 40.4405 175.646 42.6386 174.802 44.8369C173.667 47.7915 172.53 50.7455 171.393 53.6991C170.234 56.7079 169.078 59.7181 167.925 62.7291C167.36 64.2042 166.794 65.6791 166.228 67.154C165.917 67.9658 165.606 68.7778 165.296 69.5899C164.868 70.7099 164.438 71.8296 164.009 72.9491C163.881 73.2848 163.753 73.6206 163.621 73.9664C163.504 74.2703 163.387 74.5742 163.267 74.8872C163.165 75.1527 163.063 75.4182 162.959 75.6917C162.7 76.2974 162.7 76.2974 162.353 76.6445C161.301 76.6753 160.257 76.6845 159.205 76.6784C158.89 76.6779 158.574 76.6774 158.249 76.6769C157.238 76.675 156.226 76.6706 155.214 76.6662C154.53 76.6645 153.846 76.6629 153.162 76.6615C151.481 76.6576 149.8 76.6516 148.119 76.6445C148.329 74.9076 149.119 73.5466 149.913 72.0188C153.451 65.6009 153.451 65.6009 154.181 58.5852C153.538 56.6851 152.564 54.9676 151.563 53.2348C150.371 51.1009 149.569 48.7781 148.693 46.5021C148.122 45.0304 147.53 43.5673 146.941 42.1029C145.236 37.8518 143.54 33.5974 141.849 29.3409C141.516 28.5046 141.183 27.6683 140.85 26.8323C140.382 25.66 139.916 24.4871 139.451 23.314C139.309 22.9592 139.167 22.6044 139.021 22.2388C138.893 21.9148 138.764 21.5908 138.632 21.2569C138.52 20.9735 138.407 20.69 138.291 20.398C138.051 19.7094 138.051 19.7094 138.051 19.0151Z" fill="#01162F"/>
<path d="M372.04 19.7094C376.623 19.7094 381.206 19.7094 385.927 19.7094C385.944 21.3984 385.961 23.0873 385.979 24.8274C385.991 25.9033 386.003 26.9791 386.017 28.055C386.037 29.7591 386.058 31.4633 386.074 33.1675C386.086 34.5429 386.103 35.9182 386.121 37.2936C386.127 37.8159 386.132 38.3382 386.137 38.8605C385.988 43.6524 385.988 43.6524 387.576 48.017C390.05 49.6233 393.368 49.2962 396.148 48.8361C397.266 48.4435 397.718 48.0912 398.425 47.1355C399.373 44.4 399.242 41.5561 399.263 38.695C399.27 38.1464 399.276 37.5977 399.283 37.0491C399.301 35.6131 399.315 34.1772 399.328 32.7413C399.344 31.014 399.366 29.2867 399.386 27.5595C399.417 24.9428 399.441 22.3262 399.467 19.7094C404.049 19.7094 408.632 19.7094 413.353 19.7094C413.353 33.4572 413.353 47.2049 413.353 61.3693C409 61.3693 404.646 61.3693 400.161 61.3693C399.617 60.8256 399.602 60.1802 399.445 59.4382C399.353 59.0079 399.353 59.0079 399.259 58.5689C399.213 58.3474 399.167 58.1258 399.119 57.8976C398.976 58.0319 398.833 58.1661 398.685 58.3044C394.902 61.7159 390.549 62.4385 385.58 62.4108C382.187 62.1771 378.323 61.4715 375.859 58.9391C373.093 55.4691 371.981 51.6431 372.001 47.2585C372.001 46.9602 372.001 46.662 372.001 46.3547C372.001 45.3723 372.004 44.3899 372.007 43.4075C372.007 42.7251 372.008 42.0426 372.008 41.3601C372.009 39.5663 372.013 37.7725 372.017 35.9787C372.021 33.8251 372.022 31.6716 372.024 29.518C372.028 26.2485 372.034 22.979 372.04 19.7094Z" fill="#398611"/>
<path d="M272.404 7.21149C277.445 7.21149 282.486 7.21149 287.679 7.21149C288.784 9.64145 289.825 12.0143 290.739 14.5101C290.914 14.9829 290.914 14.9829 291.092 15.4654C291.46 16.4601 291.827 17.4555 292.192 18.451C292.677 19.763 293.161 21.0747 293.646 22.3864C293.762 22.6987 293.877 23.0109 293.996 23.3326C295.121 27.3504 295.121 27.3504 297.053 30.8187C297.143 30.5687 297.233 30.3186 297.326 30.061C299.326 24.5311 301.384 19.0268 303.519 13.5473C303.627 13.2697 303.735 12.9922 303.846 12.7063C304.153 11.9178 304.461 11.1295 304.769 10.3414C304.861 10.1046 304.954 9.86787 305.049 9.62393C305.691 7.98798 305.691 7.98798 306.079 7.21149C311.12 7.21149 316.161 7.21149 321.354 7.21149C321.021 8.87887 320.47 10.205 319.738 11.7151C319.543 12.1229 319.543 12.1229 319.344 12.5388C318.917 13.4327 318.486 14.3253 318.056 15.218C317.757 15.8429 317.458 16.4679 317.159 17.093C316.545 18.3779 315.93 19.6624 315.314 20.9467C314.474 22.7007 313.639 24.457 312.807 26.2147C312.681 26.4808 312.554 26.7468 312.424 27.0209C311.803 28.3334 311.186 29.648 310.579 30.967C309.542 33.2097 308.502 35.3984 307.228 37.5193C302.988 44.8734 303.825 53.1282 303.996 61.3693C299.299 61.3693 294.602 61.3693 289.762 61.3693C289.814 60.2773 289.865 59.1854 289.918 58.0603C290.248 47.8008 288.746 40.6087 283.703 31.7209C282.429 29.4567 281.354 27.1031 280.272 24.7432C279.72 23.5417 279.155 22.346 278.592 21.1496C278.372 20.6817 278.153 20.2137 277.933 19.7457C277.355 18.5137 276.775 17.2825 276.195 16.0515C275.734 15.0739 275.275 14.0956 274.815 13.1173C274.598 12.6555 274.381 12.194 274.163 11.7327C273.865 11.1013 273.568 10.4691 273.272 9.83692C273.02 9.30057 273.02 9.30057 272.762 8.75339C272.404 7.90582 272.404 7.90582 272.404 7.21149Z" fill="#398611"/>
<path d="M271.363 20.4038C271.363 24.4135 271.363 28.4233 271.363 32.5545C267.544 32.2074 267.544 32.2074 266.467 32.0975C259.045 31.2777 259.045 31.2777 252.247 33.6611C250.64 35.9932 250.365 38.1522 250.403 40.9082C250.399 41.2065 250.394 41.5047 250.39 41.812C250.399 43.7447 250.708 45.0626 251.574 46.7883C251.689 47.132 251.803 47.4757 251.921 47.8298C257.733 49.1438 263.106 48.9647 269.017 48.3937C269.361 48.3611 269.706 48.3285 270.061 48.2949C270.37 48.264 270.68 48.2331 270.999 48.2013C271.234 48.1933 271.468 48.1852 271.71 48.177C272.057 48.5241 272.057 48.5241 272.096 49.6152C272.096 50.0982 272.094 50.5812 272.091 51.0641C272.09 51.3179 272.09 51.5717 272.089 51.8332C272.087 52.6468 272.083 53.4604 272.079 54.2741C272.077 54.8244 272.075 55.3748 272.074 55.9251C272.07 57.277 272.064 58.6288 272.057 59.9806C267.546 61.5937 263.069 61.7823 258.313 61.8194C257.627 61.8247 256.94 61.834 256.254 61.8435C250.8 61.8396 245.319 61.0061 241.159 57.2033C236.097 51.9134 236.124 44.1556 236.268 37.2814C236.453 31.8381 237.821 26.649 241.887 22.8475C249.613 16.3888 262.359 18.153 271.363 20.4038Z" fill="#01162F"/>
<path d="M41.2805 6.00086C41.4785 6.00133 41.6765 6.00181 41.8805 6.00229C44.9986 6.01476 48.0124 6.17314 51.0646 6.85798C51.264 6.90101 51.4635 6.94404 51.669 6.98837C59.5309 8.72831 67.5047 12.5796 72.0074 19.5369C74.076 22.8696 75.6677 26.9331 75.1286 30.922C74.5826 32.0748 73.9984 32.7918 72.7998 33.2508C71.5344 33.3882 70.3835 33.4246 69.1935 32.9435C67.9454 31.8467 67.4954 30.9639 67.2366 29.321C66.4761 25.0526 64.3548 21.9184 60.8972 19.2781C53.0862 13.9407 43.0256 12.9106 33.8947 14.4899C28.1235 15.592 22.9072 17.9531 18.7204 22.1244C18.5753 22.2635 18.4302 22.4026 18.2807 22.5459C15.7994 25.1445 14.9664 28.395 15.0261 31.8701C15.0897 33.3309 15.4739 34.5369 16.1329 35.8383C16.2975 36.1636 16.2975 36.1636 16.4654 36.4953C19.3686 41.7194 24.8072 44.859 30.3985 46.5244C31.3304 46.7828 32.2671 47.0117 33.2106 47.2235C33.4624 47.2809 33.7142 47.3382 33.9737 47.3973C35.2568 47.6446 36.5391 47.7616 37.8409 47.8582C38.2571 47.8897 38.2571 47.8897 38.6817 47.9217C39.2415 47.9623 39.8015 47.9995 40.3618 48.0328C43.1029 48.2237 43.1029 48.2237 44.1768 49.4392C45.337 50.8993 46.2312 52.5283 47.1509 54.1451C48.3868 56.289 49.6194 58.4085 51.0646 60.4199C51.2233 60.642 51.3821 60.8642 51.5457 61.0931C52.5154 62.3985 53.255 63.3217 54.8973 63.6867C56.6447 63.344 57.7299 61.8978 58.6978 60.4846C61.5282 55.7394 63.0833 50.1544 64.5066 44.8583C64.6251 44.4183 64.6251 44.4183 64.7461 43.9695C64.8929 43.4159 65.0359 42.8613 65.1743 42.3055C65.6268 40.5815 66.0937 39.3552 67.6359 38.3349C68.7377 37.9698 69.9059 37.9567 70.9977 38.3632C71.8878 38.8433 72.6145 39.3243 73.0586 40.2371C73.6145 42.5973 72.8466 44.7053 72.1853 46.9647C72.0658 47.3822 71.9464 47.7998 71.8271 48.2173C70.4033 53.1479 68.8098 57.9788 66.331 62.4899C66.1886 62.7644 66.0461 63.0389 65.8994 63.3218C63.9908 66.8443 61.1062 69.9196 57.2746 71.2875C54.4844 71.9709 52.0532 71.423 49.6252 69.9614C45.3409 67.0652 41.2188 61.3227 39.4716 56.48C39.1866 55.9513 39.1866 55.9513 38.5006 55.8332C38.2235 55.8052 37.9464 55.7771 37.6609 55.7482C37.3518 55.7129 37.0427 55.6776 36.7242 55.6412C36.3919 55.6065 36.0596 55.5717 35.7173 55.5359C26.712 54.4696 17.7089 50.9611 11.7341 43.8597C8.30477 39.3676 6.60829 34.246 7.07651 28.5933C7.29221 27.1768 7.68286 25.8181 8.11153 24.4532C8.18624 24.214 8.26096 23.9749 8.33794 23.7285C9.38734 20.7911 11.4162 18.3966 13.5453 16.1731C13.7068 15.9953 13.8682 15.8175 14.0345 15.6344C18.2181 11.1783 24.4183 8.60317 30.2511 7.18142C30.4617 7.12997 30.6722 7.07852 30.8891 7.02551C34.3449 6.23077 37.7502 5.98331 41.2805 6.00086Z" fill="#021730"/>
<path d="M55.1935 28.006C56.2229 28.5369 56.8294 29.0823 57.2746 30.1458C57.5811 31.4424 57.5707 32.2942 57.0159 33.5096C56.4112 34.3964 55.9371 34.9179 54.9458 35.3208C53.6539 35.5042 52.6386 35.4635 51.4688 34.868C50.2854 33.8289 49.8616 33.1153 49.7394 31.5376C49.7936 30.4732 50.1512 29.6852 50.8058 28.852C52.0624 27.7255 53.6074 27.414 55.1935 28.006Z" fill="#398611"/>
<path d="M29.5881 27.817C30.9717 28.3226 31.7761 29.0881 32.4343 30.4045C32.6436 32.0893 32.4086 33.1806 31.3993 34.5446C30.3939 35.489 29.266 35.4508 27.9476 35.4118C26.6978 35.2466 26.0305 34.6527 25.2216 33.736C24.6966 32.3944 24.687 30.994 25.2378 29.6606C26.5211 28.156 27.6214 27.6152 29.5881 27.817Z" fill="#398611"/>
<path d="M42.2669 27.817C43.4653 28.4727 44.4173 29.0929 44.8545 30.4045C44.9901 31.6969 44.9968 32.7022 44.4178 33.8815C43.6316 34.7527 43.1089 35.2516 41.9132 35.3936C40.621 35.4396 39.6654 35.4155 38.6444 34.5446C37.6391 33.3997 37.2698 32.753 37.295 31.2051C37.4159 30.0266 37.9224 29.2999 38.7738 28.5124C39.8744 27.7695 40.9663 27.6347 42.2669 27.817Z" fill="#398611"/>
</svg>
