<svg width="411" height="352" viewBox="0 0 411 352" fill="none" xmlns="http://www.w3.org/2000/svg">
<g clip-path="url(#clip0_202_367)">
<path d="M360.09 330.165C373.25 317.004 315.253 237.669 230.549 152.966C145.845 68.2616 66.5105 10.2643 53.35 23.4248C40.1894 36.5854 98.1868 115.92 182.891 200.624C267.595 285.328 346.929 343.325 360.09 330.165Z" stroke="white" stroke-width="2" stroke-miterlimit="10" stroke-dasharray="3 3"/>
<path d="M228.897 191.826C272.555 116.21 297.362 48.8001 284.305 41.2614C271.248 33.7227 225.271 88.9101 181.613 164.526C137.955 240.142 113.148 307.552 126.205 315.091C139.262 322.629 185.238 267.442 228.897 191.826Z" stroke="white" stroke-width="2" stroke-miterlimit="10" stroke-dasharray="3.01 3.01"/>
<path d="M206.2 265C206.2 265.5 206.2 266 206.1 266.5" stroke="white" stroke-width="2" stroke-miterlimit="10"/>
<path d="M205.7 271.5H205.6" stroke="white" stroke-width="2" stroke-miterlimit="10"/>
<path d="M205.6 271.5C202.4 294.9 185.8 315.3 165.9 328.6" stroke="white" stroke-width="2" stroke-miterlimit="10" stroke-dasharray="2.98 2.98"/>
<path d="M166 328.6C165.6 328.9 165.2 329.2 164.7 329.4" stroke="white" stroke-width="2" stroke-miterlimit="10"/>
<path d="M394.7 77.7C394.6 78.2 394.6 78.7 394.5 79.2" stroke="white" stroke-width="2" stroke-miterlimit="10"/>
<path d="M393.4 84C384.4 119.1 343.5 151.9 295.9 174.2" stroke="white" stroke-width="2" stroke-miterlimit="10" stroke-dasharray="3.01 3.01"/>
<path d="M295.9 174.2C295.4 174.4 295 174.6 294.5 174.8" stroke="white" stroke-width="2" stroke-miterlimit="10"/>
<path d="M219.9 28.9C220 29.4 220 29.9 220.1 30.4" stroke="white" stroke-width="2" stroke-miterlimit="10"/>
<path d="M220.6 35.2C223 64.5 218 88.5 209.9 103" stroke="white" stroke-width="2" stroke-miterlimit="10" stroke-dasharray="2.9 2.9"/>
<path d="M209.9 103C209.7 103.4 209.4 103.9 209.2 104.3" stroke="white" stroke-width="2" stroke-miterlimit="10"/>
<path d="M291 196.6C291.5 196.6 292 196.6 292.5 196.6" stroke="white" stroke-width="2" stroke-miterlimit="10"/>
<path d="M297.3 196.9C326.6 198.7 349.6 207.1 362.9 217.1" stroke="white" stroke-width="2" stroke-miterlimit="10" stroke-dasharray="2.9 2.9"/>
<path d="M362.9 217.1C363.3 217.4 363.7 217.7 364.1 218" stroke="white" stroke-width="2" stroke-miterlimit="10"/>
<path d="M46.5 233.2C46.9 232.8 47.2 232.5 47.6 232.1" stroke="white" stroke-width="2" stroke-miterlimit="10"/>
<path d="M51.2 228.7C78.1 203.3 106 189.7 126.8 186.6" stroke="white" stroke-width="2" stroke-miterlimit="10" stroke-dasharray="2.99 2.99"/>
<path d="M126.8 186.7C127.3 186.6 127.8 186.6 128.3 186.5" stroke="white" stroke-width="2" stroke-miterlimit="10"/>
<path d="M128.2 186.5C127.7 186.3 127.3 186.1 126.8 185.9" stroke="white" stroke-width="2" stroke-miterlimit="10"/>
<path d="M122.4 184.1C73 163.4 38.6 136 22.4 112.7" stroke="white" stroke-width="2" stroke-miterlimit="10" stroke-dasharray="2.91 2.91"/>
<path d="M22.4 112.6C22.1 112.2 21.8 111.8 21.6 111.4" stroke="white" stroke-width="2" stroke-miterlimit="10"/>
<path d="M210.2 296.7C273.823 296.7 325.4 245.123 325.4 181.5C325.4 117.877 273.823 66.3 210.2 66.3C146.577 66.3 95 117.877 95 181.5C95 245.123 146.577 296.7 210.2 296.7Z" stroke="white" stroke-width="2" stroke-miterlimit="10" stroke-dasharray="3.02 3.02"/>
<path d="M292.4 181.5C292.4 226.9 255.6 263.7 210.2 263.7C164.8 263.7 128 226.9 128 181.5C128 136.1 164.8 99.3 210.2 99.3C255.6 99.3 292.4 136.1 292.4 181.5Z" fill="#80F176"/>
<path d="M14.1 110.4C18.7392 110.4 22.5 106.639 22.5 102C22.5 97.3608 18.7392 93.6 14.1 93.6C9.46081 93.6 5.7 97.3608 5.7 102C5.7 106.639 9.46081 110.4 14.1 110.4Z" fill="#80F176"/>
<path d="M375.6 233.4C380.239 233.4 384 229.639 384 225C384 220.361 380.239 216.6 375.6 216.6C370.961 216.6 367.2 220.361 367.2 225C367.2 229.639 370.961 233.4 375.6 233.4Z" fill="#80F176"/>
<path d="M154.7 343.8C159.339 343.8 163.1 340.039 163.1 335.4C163.1 330.761 159.339 327 154.7 327C150.061 327 146.3 330.761 146.3 335.4C146.3 340.039 150.061 343.8 154.7 343.8Z" fill="#80F176"/>
<path d="M41.1 248.1C45.7392 248.1 49.5 244.339 49.5 239.7C49.5 235.061 45.7392 231.3 41.1 231.3C36.4608 231.3 32.7 235.061 32.7 239.7C32.7 244.339 36.4608 248.1 41.1 248.1Z" fill="#80F176"/>
<path d="M216 24.5C220.639 24.5 224.4 20.7392 224.4 16.1C224.4 11.4608 220.639 7.7 216 7.7C211.361 7.7 207.6 11.4608 207.6 16.1C207.6 20.7392 211.361 24.5 216 24.5Z" fill="#80F176"/>
<path d="M396.9 74.7C401.539 74.7 405.3 70.9392 405.3 66.3C405.3 61.6608 401.539 57.9 396.9 57.9C392.261 57.9 388.5 61.6608 388.5 66.3C388.5 70.9392 392.261 74.7 396.9 74.7Z" fill="#80F176"/>
<path d="M128.2 65.2C130.575 65.2 132.5 63.2748 132.5 60.9C132.5 58.5252 130.575 56.6 128.2 56.6C125.825 56.6 123.9 58.5252 123.9 60.9C123.9 63.2748 125.825 65.2 128.2 65.2Z" fill="#80F176"/>
<path d="M256.7 274.3C259.075 274.3 261 272.375 261 270C261 267.625 259.075 265.7 256.7 265.7C254.325 265.7 252.4 267.625 252.4 270C252.4 272.375 254.325 274.3 256.7 274.3Z" fill="#80F176"/>
<path d="M93.6 175.5C95.9748 175.5 97.9 173.575 97.9 171.2C97.9 168.825 95.9748 166.9 93.6 166.9C91.2252 166.9 89.3 168.825 89.3 171.2C89.3 173.575 91.2252 175.5 93.6 175.5Z" fill="#80F176"/>
<path d="M353.4 143.2C355.775 143.2 357.7 141.275 357.7 138.9C357.7 136.525 355.775 134.6 353.4 134.6C351.025 134.6 349.1 136.525 349.1 138.9C349.1 141.275 351.025 143.2 353.4 143.2Z" fill="#80F176"/>
<path d="M207.28 152.001C207.478 152.001 207.677 152.002 207.881 152.002C210.999 152.015 214.012 152.173 217.065 152.858C217.264 152.901 217.463 152.944 217.669 152.988C225.531 154.728 233.505 158.58 238.007 165.537C240.076 168.87 241.668 172.933 241.129 176.922C240.583 178.075 239.998 178.792 238.8 179.251C237.534 179.388 236.383 179.425 235.193 178.944C233.945 177.847 233.495 176.964 233.237 175.321C232.476 171.053 230.355 167.918 226.897 165.278C219.086 159.941 209.026 158.911 199.895 160.49C194.124 161.592 188.907 163.953 184.72 168.124C184.575 168.264 184.43 168.403 184.281 168.546C181.799 171.144 180.966 174.395 181.026 177.87C181.09 179.331 181.474 180.537 182.133 181.838C182.297 182.164 182.297 182.164 182.465 182.495C185.369 187.719 190.807 190.859 196.399 192.524C197.33 192.783 198.267 193.012 199.211 193.223C199.462 193.281 199.714 193.338 199.974 193.397C201.257 193.645 202.539 193.762 203.841 193.858C204.257 193.89 204.257 193.89 204.682 193.922C205.241 193.962 205.802 193.999 206.362 194.033C209.103 194.224 209.103 194.224 210.177 195.439C211.337 196.899 212.231 198.528 213.151 200.145C214.387 202.289 215.619 204.408 217.065 206.42C217.223 206.642 217.382 206.864 217.546 207.093C218.515 208.398 219.255 209.322 220.897 209.687C222.645 209.344 223.73 207.898 224.698 206.485C227.528 201.739 229.083 196.154 230.507 190.858C230.625 190.418 230.625 190.418 230.746 189.969C230.893 189.416 231.036 188.861 231.174 188.306C231.627 186.582 232.094 185.355 233.636 184.335C234.738 183.97 235.906 183.957 236.998 184.363C237.888 184.843 238.615 185.324 239.059 186.237C239.615 188.597 238.847 190.705 238.185 192.965C238.066 193.382 237.946 193.8 237.827 194.217C236.403 199.148 234.81 203.979 232.331 208.49C232.189 208.764 232.046 209.039 231.899 209.322C229.991 212.844 227.106 215.92 223.275 217.288C220.484 217.971 218.053 217.423 215.625 215.961C211.341 213.065 207.219 207.323 205.472 202.48C205.187 201.951 205.187 201.951 204.501 201.833C204.223 201.805 203.946 201.777 203.661 201.748C203.352 201.713 203.043 201.678 202.724 201.641C202.392 201.606 202.06 201.572 201.717 201.536C192.712 200.47 183.709 196.961 177.734 189.86C174.305 185.368 172.608 180.246 173.077 174.593C173.292 173.177 173.683 171.818 174.112 170.453C174.186 170.214 174.261 169.975 174.338 169.728C175.387 166.791 177.416 164.397 179.545 162.173C179.707 161.995 179.868 161.818 180.035 161.634C184.218 157.178 190.418 154.603 196.251 153.181C196.462 153.13 196.672 153.079 196.889 153.026C200.345 152.231 203.75 151.983 207.28 152.001Z" fill="#021730"/>
<path d="M221.194 174.006C222.223 174.537 222.829 175.082 223.275 176.146C223.581 177.442 223.571 178.294 223.016 179.51C222.411 180.396 221.937 180.918 220.946 181.321C219.654 181.504 218.639 181.464 217.469 180.868C216.285 179.829 215.862 179.115 215.739 177.538C215.794 176.473 216.151 175.685 216.806 174.852C218.062 173.726 219.607 173.414 221.194 174.006Z" fill="#398611"/>
<path d="M195.588 173.817C196.972 174.323 197.776 175.088 198.434 176.405C198.644 178.089 198.409 179.181 197.399 180.545C196.394 181.489 195.266 181.451 193.948 181.412C192.698 181.247 192.03 180.653 191.222 179.736C190.697 178.394 190.687 176.994 191.238 175.661C192.521 174.156 193.621 173.615 195.588 173.817Z" fill="#398611"/>
<path d="M208.267 173.817C209.465 174.473 210.417 175.093 210.854 176.405C210.99 177.697 210.997 178.702 210.418 179.882C209.632 180.753 209.109 181.252 207.913 181.394C206.621 181.44 205.665 181.415 204.644 180.545C203.639 179.4 203.27 178.753 203.295 177.205C203.416 176.027 203.922 175.3 204.774 174.512C205.874 173.769 206.966 173.635 208.267 173.817Z" fill="#398611"/>
</g>
<defs>
<clipPath id="clip0_202_367">
<rect width="411" height="351.5" fill="white"/>
</clipPath>
</defs>
</svg>
