<svg width="418" height="78" viewBox="0 0 418 78" fill="none" xmlns="http://www.w3.org/2000/svg">
<g clip-path="url(#clip0_202_456)">
<path d="M125.461 15.0074C126.334 15.0167 127.207 15.0139 128.081 15.0098C133.556 15.016 138.538 15.7917 143.671 17.7071C143.68 18.9095 143.686 20.1119 143.691 21.3143C143.693 21.65 143.696 21.9856 143.699 22.3314C143.706 24.5288 143.593 26.6834 143.352 28.8676C141.646 28.6846 140.069 28.3851 138.409 27.9309C131.7 26.202 124.169 25.6956 117.523 27.911C117.135 29.4635 116.892 31.2121 117.458 32.7407C118.184 33.8574 119.483 34.0186 120.712 34.2884C122.945 34.6609 125.2 34.898 127.449 35.1579C139.624 36.5821 139.624 36.5821 143.033 40.6658C145.78 44.9918 146.216 49.9771 145.225 54.9553C144.343 58.3147 142.478 61.1669 139.471 62.9482C134.088 65.8423 128.326 66.3038 122.326 66.2752C122.085 66.2748 121.843 66.2745 121.595 66.2741C106.416 66.2285 106.416 66.2285 104.131 63.9435C104.103 63.0933 104.094 62.2514 104.1 61.4012C104.1 61.1469 104.101 60.8925 104.101 60.6305C104.103 59.8149 104.107 58.9994 104.111 58.1838C104.112 57.6323 104.114 57.0807 104.115 56.5291C104.119 55.1741 104.124 53.8191 104.131 52.4641C105.698 52.6759 107.168 52.9876 108.695 53.4008C113.682 54.6362 118.923 54.8235 124.04 54.6364C124.329 54.6269 124.617 54.6173 124.914 54.6075C127.345 54.4783 129.571 53.8692 131.873 53.1018C132.231 52.1682 132.253 51.2249 132.271 50.232C132.279 49.9623 132.288 49.6927 132.296 49.4149C132.166 48.4511 131.885 48.0791 131.235 47.3621C128.323 46.0002 124.67 46.0209 121.503 45.7187C116.215 45.2058 110.464 44.4982 106.682 40.347C104.481 37.2909 103.969 33.8045 104.011 30.1232C104.008 29.8007 104.004 29.4782 104 29.146C104.014 25.6082 104.87 22.5388 107.3 19.9081C112.1 15.3219 119.145 14.9344 125.461 15.0074Z" fill="#01162F"/>
<path d="M228.091 28.9361C231.252 31.44 232.264 34.954 232.828 38.7996C233.076 41.1995 233.032 43.603 233.017 46.0132C233.016 46.5792 233.015 47.1452 233.014 47.7112C233.012 49.1868 233.006 50.6624 232.999 52.1381C232.991 53.9161 232.988 55.6942 232.984 57.4723C232.978 60.1608 232.966 62.8492 232.955 65.5378C228.746 65.5378 224.537 65.5378 220.2 65.5378C220.01 63.83 219.841 62.2918 219.831 60.6021C219.828 60.2222 219.824 59.8422 219.821 59.4508C219.819 59.0491 219.816 58.6475 219.814 58.2336C219.807 57.5905 219.801 56.9473 219.794 56.3041C219.777 54.7315 219.763 53.1588 219.753 51.5861C219.748 50.6995 219.74 49.813 219.729 48.9265C219.719 48.0957 219.713 47.2648 219.711 46.434C219.692 42.9012 219.692 42.9012 218.155 39.8162C216.755 38.6383 214.77 38.6275 213.024 38.6754C211.568 38.8166 210.231 39.0588 209.248 40.2137C208.161 42.0005 208.044 43.6934 208.017 45.7364C208.014 45.9512 208.011 46.1661 208.008 46.3874C207.998 47.093 207.99 47.7987 207.982 48.5043C207.975 48.9954 207.969 49.4864 207.962 49.9774C207.944 51.2664 207.929 52.5554 207.913 53.8445C207.897 55.1612 207.879 56.4779 207.862 57.7946C207.828 60.3756 207.795 62.9567 207.764 65.5378C205.953 65.5457 204.143 65.5515 202.332 65.5553C201.716 65.5569 201.099 65.5591 200.483 65.5618C199.599 65.5657 198.715 65.5675 197.83 65.5689C197.414 65.5714 197.414 65.5714 196.99 65.5739C196.33 65.574 195.669 65.5576 195.009 65.5378C194.493 65.0213 194.65 64.4561 194.65 63.7422C194.649 63.4229 194.648 63.1036 194.647 62.7747C194.648 62.4215 194.648 62.0684 194.649 61.7045C194.648 61.3348 194.648 60.9652 194.647 60.5844C194.646 59.3557 194.647 58.127 194.648 56.8984C194.648 56.0488 194.647 55.1993 194.647 54.3498C194.646 52.5666 194.647 50.7834 194.649 49.0002C194.65 46.9359 194.65 44.8715 194.648 42.8072C194.647 41.0378 194.646 39.2683 194.647 37.4989C194.648 36.4408 194.648 35.3827 194.647 34.3246C194.646 33.1456 194.647 31.9666 194.649 30.7877C194.648 30.4345 194.648 30.0813 194.647 29.7174C194.648 29.3982 194.649 29.0789 194.65 28.75C194.65 28.4709 194.65 28.1918 194.65 27.9042C194.69 27.2732 194.69 27.2732 195.009 26.9544C195.906 26.9261 196.794 26.9176 197.691 26.9232C197.959 26.9237 198.228 26.9241 198.505 26.9246C199.366 26.9264 200.227 26.9304 201.088 26.9344C201.67 26.936 202.252 26.9375 202.835 26.9388C204.265 26.942 205.696 26.9483 207.126 26.9544C207.337 28.7432 207.547 30.5321 207.764 32.3752C208.185 31.849 208.606 31.3229 209.04 30.7808C213.847 25.6682 222.259 25.1263 228.091 28.9361Z" fill="#01162F"/>
<path d="M337.704 27.1537C338.118 27.15 338.532 27.1463 338.958 27.1425C343.976 27.1575 348.947 28.0447 352.731 31.5581C353.106 31.9626 353.106 31.9626 353.488 32.3752C353.699 32.5988 353.909 32.8224 354.126 33.0528C358.221 38.94 358.166 46.9165 357.11 53.7398C356.365 57.8891 354.402 61.4914 350.937 63.9435C347.437 65.9895 343.459 66.6396 339.458 66.8133C339.184 66.8265 338.911 66.8396 338.629 66.8532C333.207 66.984 327.359 66.2176 322.995 62.7614C319.352 59.2382 318.144 54.0898 317.998 49.1807C317.991 48.4949 317.99 47.8089 317.994 47.123C317.995 46.7617 317.996 46.4004 317.998 46.0281C318.074 40.3467 319.082 35.4222 323.075 31.1894C326.969 27.5282 332.631 27.1084 337.704 27.1537ZM331.845 39.8687C329.781 42.7901 329.92 46.7565 330.311 50.151C330.65 51.9608 331.373 53.2797 332.662 54.6165C335.084 55.9255 338.167 55.9782 340.813 55.4137C342.342 54.9039 343.426 54.5162 344.323 53.1118C345.245 51.0747 345.319 49.0436 345.337 46.844C345.34 46.5627 345.343 46.2813 345.347 45.9915C345.316 43.6905 344.959 41.6097 343.543 39.7491C340.309 37.3052 334.973 37.1482 331.845 39.8687Z" fill="#398611"/>
<path d="M148.135 26.9544C152.87 26.9544 157.606 26.9544 162.484 26.9544C163.577 29.6852 164.548 32.4124 165.454 35.2052C165.568 35.5568 165.568 35.5568 165.685 35.9156C167.11 40.3072 168.283 44.7287 169.314 49.2294C169.436 49.9022 169.436 49.9022 169.818 50.232C169.858 50.0393 169.898 49.8466 169.938 49.648C170.901 45.0469 172.094 40.5636 173.505 36.0821C173.579 35.8462 173.653 35.6103 173.729 35.3672C173.944 34.6788 174.163 33.9914 174.383 33.3044C174.51 32.9096 174.636 32.5149 174.767 32.1082C175.387 30.3645 176.122 28.6629 176.833 26.9544C181.358 26.9544 185.883 26.9544 190.545 26.9544C190.323 28.2839 190.142 29.2221 189.676 30.4316C189.563 30.7297 189.449 31.0278 189.332 31.335C189.145 31.8166 189.145 31.8166 188.954 32.3079C188.824 32.6492 188.693 32.9905 188.558 33.3421C188.126 34.4687 187.691 35.5942 187.257 36.7198C186.952 37.5121 186.648 38.3044 186.344 39.0968C185.637 40.9369 184.929 42.7763 184.22 44.6155C183.442 46.6336 182.666 48.6526 181.891 50.6717C180.848 53.3855 179.804 56.0988 178.759 58.8116C177.695 61.5752 176.633 64.3401 175.574 67.1057C175.055 68.4606 174.535 69.8153 174.016 71.17C173.73 71.9156 173.444 72.6614 173.159 73.4073C172.766 74.4361 172.372 75.4645 171.977 76.4928C171.859 76.8011 171.742 77.1095 171.621 77.4272C171.513 77.7063 171.406 77.9854 171.295 78.273C171.202 78.5168 171.109 78.7607 171.012 79.0119C170.775 79.5681 170.775 79.5681 170.456 79.887C169.49 79.9153 168.531 79.9238 167.565 79.9182C167.275 79.9177 166.986 79.9173 166.687 79.9168C165.758 79.915 164.829 79.911 163.899 79.9069C163.271 79.9054 162.642 79.9039 162.014 79.9026C160.47 79.8991 158.926 79.8936 157.382 79.887C157.575 78.2916 158.3 77.0416 159.03 75.6383C162.28 69.7434 162.28 69.7434 162.95 63.2995C162.36 61.5542 161.465 59.9767 160.546 58.3852C159.451 56.4252 158.714 54.2917 157.909 52.2012C157.385 50.8494 156.841 49.5056 156.3 48.1606C154.735 44.2558 153.176 40.3482 151.623 36.4387C151.318 35.6704 151.012 34.9024 150.706 34.1345C150.276 33.0577 149.848 31.9804 149.421 30.9029C149.29 30.577 149.16 30.2511 149.026 29.9153C148.908 29.6177 148.79 29.3201 148.669 29.0135C148.565 28.7532 148.462 28.4928 148.355 28.2246C148.135 27.5921 148.135 27.5921 148.135 26.9544Z" fill="#01162F"/>
<path d="M363.054 27.5921C367.263 27.5921 371.472 27.5921 375.809 27.5921C375.825 29.1434 375.84 30.6947 375.856 32.293C375.868 33.2812 375.879 34.2693 375.891 35.2575C375.91 36.8228 375.929 38.388 375.944 39.9534C375.955 41.2167 375.97 42.4799 375.987 43.7432C375.993 44.2229 375.998 44.7027 376.001 45.1824C375.865 49.5837 375.865 49.5837 377.324 53.5926C379.596 55.068 382.644 54.7676 385.197 54.3449C386.224 53.9844 386.639 53.6608 387.288 52.783C388.16 50.2704 388.039 47.6583 388.058 45.0304C388.064 44.5265 388.07 44.0225 388.077 43.5186C388.093 42.1997 388.106 40.8808 388.118 39.5619C388.133 37.9753 388.153 36.3889 388.171 34.8024C388.199 32.399 388.222 29.9956 388.245 27.5921C392.454 27.5921 396.663 27.5921 401 27.5921C401 40.2194 401 52.8467 401 65.8567C397.001 65.8567 393.003 65.8567 388.883 65.8567C388.384 65.3574 388.369 64.7645 388.225 64.083C388.141 63.6878 388.141 63.6878 388.055 63.2845C388.012 63.0811 387.97 62.8776 387.926 62.668C387.795 62.7913 387.663 62.9146 387.528 63.0417C384.053 66.1751 380.054 66.8388 375.49 66.8133C372.374 66.5987 368.825 65.9506 366.562 63.6246C364.021 60.4374 363 56.9232 363.018 52.8959C363.018 52.622 363.018 52.3481 363.018 52.0659C363.018 51.1635 363.021 50.2612 363.023 49.3588C363.024 48.732 363.024 48.1051 363.024 47.4783C363.026 45.8307 363.029 44.1831 363.032 42.5355C363.036 40.5574 363.038 38.5793 363.04 36.6013C363.043 33.5982 363.049 30.5952 363.054 27.5921Z" fill="#398611"/>
<path d="M271.538 16.1127C276.168 16.1127 280.798 16.1127 285.569 16.1127C286.583 18.3447 287.54 20.5241 288.379 22.8165C288.539 23.2508 288.539 23.2508 288.703 23.6939C289.041 24.6076 289.378 25.5218 289.714 26.4362C290.159 27.6413 290.604 28.8461 291.049 30.0509C291.155 30.3377 291.261 30.6245 291.37 30.92C292.403 34.6103 292.403 34.6103 294.178 37.796C294.261 37.5663 294.344 37.3366 294.429 37.1C296.266 32.0208 298.157 26.9651 300.117 21.9321C300.216 21.6772 300.315 21.4224 300.418 21.1598C300.7 20.4355 300.982 19.7115 301.265 18.9876C301.35 18.7701 301.435 18.5526 301.523 18.3286C302.112 16.8259 302.112 16.8259 302.469 16.1127C307.099 16.1127 311.729 16.1127 316.499 16.1127C316.193 17.6442 315.687 18.8623 315.014 20.2493C314.835 20.6238 314.835 20.6238 314.653 21.0059C314.26 21.8269 313.865 22.6468 313.47 23.4667C313.195 24.0407 312.92 24.6147 312.646 25.1889C312.081 26.3691 311.516 27.5489 310.951 28.7285C310.179 30.3396 309.412 31.9527 308.648 33.5672C308.532 33.8116 308.416 34.0559 308.297 34.3077C307.726 35.5133 307.16 36.7207 306.602 37.9322C305.649 39.9921 304.694 42.0024 303.524 43.9504C299.63 50.7052 300.399 58.2872 300.555 65.8567C296.241 65.8567 291.927 65.8567 287.482 65.8567C287.529 64.8537 287.576 63.8508 287.625 62.8174C287.928 53.394 286.548 46.7881 281.916 38.6246C280.746 36.545 279.758 34.3832 278.765 32.2156C278.258 31.112 277.739 30.0138 277.222 28.9149C277.02 28.4851 276.819 28.0553 276.617 27.6254C276.086 26.4938 275.553 25.363 275.02 24.2323C274.597 23.3343 274.175 22.4358 273.753 21.5372C273.554 21.1131 273.354 20.6892 273.154 20.2654C272.88 19.6856 272.608 19.1049 272.335 18.5242C272.104 18.0316 272.104 18.0316 271.867 17.529C271.538 16.7505 271.538 16.7505 271.538 16.1127Z" fill="#398611"/>
<path d="M270.582 28.2298C270.582 31.9128 270.582 35.5957 270.582 39.3903C267.074 39.0714 267.074 39.0714 266.085 38.9706C259.268 38.2176 259.268 38.2176 253.024 40.4067C251.548 42.5487 251.295 44.5317 251.33 47.0632C251.326 47.3371 251.322 47.6111 251.319 47.8933C251.327 49.6685 251.61 50.879 252.406 52.464C252.511 52.7797 252.616 53.0954 252.725 53.4207C258.063 54.6276 262.998 54.4631 268.427 53.9386C268.743 53.9087 269.06 53.8787 269.386 53.8479C269.67 53.8195 269.955 53.7911 270.248 53.7619C270.463 53.7545 270.679 53.7471 270.901 53.7395C271.219 54.0584 271.219 54.0584 271.256 55.0606C271.256 55.5042 271.254 55.9478 271.251 56.3914C271.25 56.6245 271.25 56.8576 271.249 57.0978C271.247 57.8451 271.243 58.5924 271.239 59.3397C271.238 59.8452 271.236 60.3507 271.235 60.8562C271.231 62.0979 271.226 63.3395 271.219 64.5812C267.076 66.0628 262.964 66.236 258.596 66.2701C257.965 66.275 257.335 66.2835 256.704 66.2922C251.695 66.2887 246.66 65.523 242.84 62.0302C238.19 57.1715 238.215 50.0459 238.347 43.732C238.517 38.7322 239.774 33.9661 243.509 30.4744C250.605 24.5421 262.312 26.1625 270.582 28.2298Z" fill="#01162F"/>
<path d="M34.2805 4.00086C34.4785 4.00133 34.6765 4.00181 34.8805 4.00229C37.9986 4.01476 41.0124 4.17314 44.0646 4.85798C44.264 4.90101 44.4635 4.94404 44.669 4.98837C52.5309 6.72831 60.5047 10.5796 65.0074 17.5369C67.076 20.8696 68.6677 24.9331 68.1286 28.922C67.5826 30.0748 66.9984 30.7918 65.7998 31.2508C64.5344 31.3882 63.3835 31.4246 62.1935 30.9435C60.9454 29.8467 60.4954 28.9639 60.2366 27.321C59.4761 23.0526 57.3548 19.9184 53.8972 17.2781C46.0862 11.9407 36.0256 10.9106 26.8947 12.4899C21.1235 13.592 15.9072 15.9531 11.7204 20.1244C11.5753 20.2635 11.4302 20.4026 11.2807 20.5459C8.79941 23.1445 7.96636 26.395 8.0261 29.8701C8.08968 31.3309 8.47393 32.5369 9.13288 33.8383C9.29748 34.1636 9.29748 34.1636 9.46541 34.4953C12.3686 39.7194 17.8072 42.859 23.3985 44.5244C24.3304 44.7828 25.2671 45.0117 26.2106 45.2235C26.4624 45.2809 26.7142 45.3382 26.9737 45.3973C28.2568 45.6446 29.5391 45.7616 30.8409 45.8582C31.2571 45.8897 31.2571 45.8897 31.6817 45.9217C32.2415 45.9623 32.8015 45.9995 33.3618 46.0328C36.1029 46.2237 36.1029 46.2237 37.1768 47.4392C38.337 48.8993 39.2312 50.5283 40.1509 52.1451C41.3868 54.289 42.6194 56.4085 44.0646 58.4199C44.2233 58.642 44.3821 58.8642 44.5457 59.0931C45.5154 60.3985 46.255 61.3217 47.8973 61.6867C49.6447 61.344 50.7299 59.8978 51.6978 58.4846C54.5282 53.7394 56.0833 48.1544 57.5066 42.8583C57.6251 42.4183 57.6251 42.4183 57.7461 41.9695C57.8929 41.4159 58.0359 40.8613 58.1743 40.3055C58.6268 38.5815 59.0937 37.3552 60.6359 36.3349C61.7377 35.9698 62.9059 35.9567 63.9977 36.3632C64.8878 36.8433 65.6145 37.3243 66.0586 38.2371C66.6145 40.5973 65.8466 42.7053 65.1853 44.9647C65.0658 45.3822 64.9464 45.7998 64.8271 46.2173C63.4033 51.1479 61.8098 55.9788 59.331 60.4899C59.1886 60.7644 59.0461 61.0389 58.8994 61.3218C56.9908 64.8443 54.1062 67.9196 50.2746 69.2875C47.4844 69.9709 45.0532 69.423 42.6252 67.9614C38.3409 65.0652 34.2188 59.3227 32.4716 54.48C32.1866 53.9513 32.1866 53.9513 31.5006 53.8332C31.2235 53.8052 30.9464 53.7771 30.6609 53.7482C30.3518 53.7129 30.0427 53.6776 29.7242 53.6412C29.3919 53.6065 29.0596 53.5717 28.7173 53.5359C19.712 52.4696 10.7089 48.9611 4.73407 41.8597C1.30477 37.3676 -0.391713 32.246 0.0765133 26.5933C0.292215 25.1768 0.682864 23.8181 1.11153 22.4532C1.18624 22.214 1.26096 21.9749 1.33794 21.7285C2.38734 18.7911 4.41624 16.3966 6.54534 14.1731C6.70678 13.9953 6.86822 13.8175 7.03455 13.6344C11.2181 9.17835 17.4183 6.60317 23.2511 5.18142C23.4617 5.12997 23.6722 5.07852 23.8891 5.02551C27.3449 4.23077 30.7502 3.98331 34.2805 4.00086Z" fill="#021730"/>
<path d="M48.1935 26.006C49.2229 26.5369 49.8295 27.0823 50.2746 28.1458C50.5811 29.4424 50.5707 30.2942 50.0159 31.5096C49.4113 32.3964 48.9371 32.9179 47.9459 33.3208C46.6539 33.5042 45.6387 33.4635 44.4689 32.868C43.2854 31.8289 42.8616 31.1153 42.7395 29.5376C42.7936 28.4732 43.1513 27.6852 43.8058 26.852C45.0624 25.7255 46.6074 25.414 48.1935 26.006Z" fill="#398611"/>
<path d="M22.5881 25.817C23.9717 26.3226 24.7761 27.0881 25.4343 28.4045C25.6436 30.0893 25.4086 31.1806 24.3993 32.5446C23.3939 33.489 22.266 33.4508 20.9476 33.4118C19.6978 33.2466 19.0305 32.6527 18.2216 31.736C17.6966 30.3944 17.687 28.994 18.2378 27.6606C19.5211 26.156 20.6214 25.6152 22.5881 25.817Z" fill="#398611"/>
<path d="M35.2669 25.817C36.4653 26.4727 37.4173 27.0929 37.8545 28.4045C37.9901 29.6969 37.9968 30.7022 37.4178 31.8815C36.6316 32.7527 36.1089 33.2516 34.9132 33.3936C33.621 33.4396 32.6654 33.4155 31.6444 32.5446C30.6391 31.3997 30.2698 30.753 30.295 29.2051C30.4159 28.0266 30.9224 27.2999 31.7738 26.5124C32.8744 25.7695 33.9663 25.6347 35.2669 25.817Z" fill="#398611"/>
</g>
<defs>
<clipPath id="clip0_202_456">
<rect width="418" height="78" fill="white"/>
</clipPath>
</defs>
</svg>
