<svg width="375" height="91" viewBox="0 0 375 91" fill="none" xmlns="http://www.w3.org/2000/svg">
<path d="M109.726 17.0132C110.529 17.0217 111.332 17.0192 112.135 17.0154C117.168 17.0211 121.747 17.7341 126.465 19.4948C126.474 20.6 126.479 21.7053 126.483 22.8105C126.486 23.119 126.488 23.4275 126.491 23.7454C126.497 25.7652 126.394 27.7458 126.172 29.7534C124.604 29.5852 123.154 29.3099 121.629 28.8924C115.462 27.3033 108.54 26.8378 102.431 28.8741C102.074 30.3012 101.85 31.9085 102.371 33.3135C103.038 34.34 104.231 34.4882 105.362 34.7362C107.415 35.0786 109.487 35.2965 111.554 35.5354C122.746 36.8445 122.746 36.8445 125.879 40.5983C128.404 44.5747 128.805 49.1571 127.894 53.733C127.083 56.821 125.368 59.4427 122.604 61.0801C117.656 63.7403 112.36 64.1645 106.845 64.1382C106.624 64.1378 106.402 64.1375 106.173 64.1372C92.2206 64.0952 92.2206 64.0952 90.1202 61.9949C90.0943 61.2134 90.0864 60.4395 90.0916 59.658C90.092 59.4243 90.0924 59.1905 90.0929 58.9496C90.0945 58.1999 90.0982 57.4503 90.1019 56.7007C90.1034 56.1937 90.1047 55.6866 90.1059 55.1796C90.1091 53.9341 90.1142 52.6886 90.1202 51.4431C91.5607 51.6378 92.9122 51.9243 94.3153 52.3041C98.9 53.4397 103.717 53.6119 108.421 53.4399C108.686 53.4311 108.951 53.4224 109.224 53.4133C111.459 53.2946 113.504 52.7347 115.62 52.0293C115.95 51.1712 115.97 50.304 115.987 49.3914C115.994 49.1435 116.002 48.8957 116.01 48.6403C115.89 47.7544 115.632 47.4125 115.034 46.7535C112.357 45.5015 109 45.5206 106.089 45.2428C101.228 44.7714 95.9418 44.121 92.4651 40.3052C90.442 37.496 89.9713 34.2914 90.0103 30.9075C90.0069 30.6111 90.0035 30.3147 90 30.0093C90.0126 26.7574 90.7994 23.936 93.0329 21.5179C97.4455 17.3023 103.921 16.9462 109.726 17.0132Z" fill="white"/>
<path d="M204.063 29.8164C206.969 32.1179 207.899 35.348 208.417 38.8828C208.646 41.0888 208.605 43.2981 208.592 45.5135C208.59 46.0338 208.59 46.554 208.589 47.0743C208.587 48.4307 208.581 49.7871 208.575 51.1434C208.567 52.7778 208.565 54.4122 208.561 56.0466C208.556 58.5179 208.545 60.9891 208.534 63.4604C204.665 63.4604 200.796 63.4604 196.81 63.4604C196.636 61.8906 196.481 60.4767 196.471 58.9236C196.468 58.5743 196.465 58.2251 196.462 57.8653C196.46 57.4961 196.457 57.1269 196.455 56.7465C196.449 56.1553 196.443 55.5641 196.437 54.9729C196.421 53.5273 196.408 52.0817 196.399 50.6361C196.394 49.8211 196.387 49.0063 196.377 48.1914C196.368 47.4277 196.363 46.664 196.361 45.9003C196.343 42.653 196.343 42.653 194.931 39.8173C193.644 38.7346 191.819 38.7247 190.214 38.7687C188.876 38.8985 187.647 39.1211 186.743 40.1827C185.744 41.825 185.636 43.3812 185.612 45.2591C185.609 45.4566 185.606 45.654 185.603 45.8575C185.594 46.5061 185.587 47.1547 185.579 47.8034C185.573 48.2547 185.567 48.706 185.561 49.1574C185.545 50.3422 185.53 51.5271 185.516 52.712C185.501 53.9223 185.485 55.1326 185.469 56.3429C185.438 58.7154 185.408 61.0879 185.379 63.4604C183.715 63.4676 182.05 63.4729 180.386 63.4765C179.819 63.478 179.253 63.48 178.686 63.4825C177.874 63.486 177.061 63.4877 176.248 63.489C175.866 63.4913 175.866 63.4913 175.476 63.4936C174.869 63.4936 174.262 63.4786 173.655 63.4604C173.18 62.9856 173.325 62.4661 173.325 61.8098C173.324 61.5164 173.323 61.2229 173.322 60.9206C173.323 60.5959 173.323 60.2713 173.324 59.9368C173.323 59.5971 173.323 59.2573 173.322 58.9072C173.321 57.7778 173.322 56.6485 173.323 55.5191C173.323 54.7382 173.322 53.9573 173.322 53.1764C173.322 51.5374 173.322 49.8983 173.324 48.2592C173.325 46.3617 173.325 44.4641 173.323 42.5666C173.322 40.9402 173.322 39.3137 173.322 37.6873C173.323 36.7147 173.323 35.7421 173.322 34.7695C173.321 33.6857 173.322 32.6021 173.324 31.5183C173.323 31.1937 173.323 30.8691 173.322 30.5346C173.323 30.2411 173.324 29.9477 173.325 29.6453C173.325 29.3888 173.325 29.1322 173.325 28.8679C173.362 28.2879 173.362 28.2879 173.655 27.9948C174.479 27.9688 175.296 27.961 176.12 27.9662C176.367 27.9666 176.614 27.967 176.868 27.9674C177.659 27.9691 178.451 27.9728 179.242 27.9765C179.778 27.978 180.313 27.9793 180.848 27.9805C182.163 27.9835 183.478 27.9892 184.793 27.9948C184.986 29.6391 185.18 31.2834 185.379 32.9776C185.766 32.4939 186.153 32.0103 186.552 31.512C190.971 26.8126 198.703 26.3145 204.063 29.8164Z" fill="white"/>
<path d="M304.819 28.178C305.199 28.1746 305.58 28.1712 305.972 28.1677C310.584 28.1815 315.154 28.997 318.631 32.2265C318.976 32.5983 318.976 32.5983 319.328 32.9776C319.521 33.1831 319.714 33.3886 319.914 33.6004C323.678 39.0119 323.627 46.3438 322.657 52.6157C321.971 56.4297 320.167 59.7409 316.983 61.9949C313.765 63.8755 310.109 64.4731 306.431 64.6328C306.18 64.6449 305.928 64.657 305.67 64.6694C300.685 64.7897 295.31 64.0852 291.298 60.9083C287.949 57.6698 286.84 52.9374 286.705 48.4251C286.699 47.7946 286.698 47.1641 286.701 46.5336C286.703 46.2015 286.704 45.8694 286.705 45.5272C286.775 40.3049 287.702 35.7783 291.372 31.8876C294.952 28.5223 300.156 28.1363 304.819 28.178ZM299.433 39.8655C297.536 42.5508 297.664 46.1967 298.024 49.317C298.335 50.9805 298.999 52.1928 300.184 53.4216C302.41 54.6248 305.244 54.6732 307.677 54.1543C309.082 53.6857 310.078 53.3294 310.903 52.0385C311.75 50.166 311.818 48.299 311.835 46.2772C311.838 46.0186 311.841 45.76 311.844 45.4935C311.816 43.3785 311.488 41.4658 310.186 39.7556C307.213 37.5091 302.309 37.3648 299.433 39.8655Z" fill="white"/>
<path d="M130.569 27.9948C134.921 27.9948 139.274 27.9948 143.758 27.9948C144.762 30.5049 145.656 33.0118 146.488 35.5789C146.593 35.9021 146.593 35.9021 146.701 36.2319C148.01 40.2686 149.088 44.3328 150.036 48.4698C150.148 49.0882 150.148 49.0882 150.5 49.3914C150.536 49.2143 150.572 49.0371 150.61 48.8546C151.495 44.6253 152.592 40.5043 153.889 36.3849C153.956 36.1681 154.024 35.9512 154.094 35.7278C154.292 35.095 154.494 34.4632 154.696 33.8317C154.812 33.4688 154.928 33.106 155.048 32.7321C155.619 31.1293 156.294 29.5653 156.948 27.9948C161.107 27.9948 165.266 27.9948 169.551 27.9948C169.348 29.2169 169.181 30.0793 168.753 31.191C168.649 31.4651 168.544 31.7391 168.436 32.0214C168.265 32.4641 168.265 32.4641 168.089 32.9157C167.969 33.2294 167.849 33.5431 167.725 33.8663C167.328 34.9019 166.928 35.9365 166.529 36.9711C166.249 37.6994 165.969 38.4276 165.69 39.156C165.04 40.8474 164.389 42.5382 163.737 44.2288C163.022 46.0838 162.309 47.9396 161.596 49.7956C160.638 52.2901 159.679 54.7841 158.718 57.2777C157.74 59.818 156.764 62.3594 155.79 64.9016C155.313 66.147 154.835 67.3922 154.358 68.6374C154.095 69.3228 153.833 70.0083 153.571 70.694C153.209 71.6396 152.847 72.5849 152.484 73.5301C152.376 73.8135 152.268 74.097 152.156 74.389C152.058 74.6456 151.959 74.9021 151.857 75.1664C151.772 75.3906 151.686 75.6147 151.597 75.8456C151.379 76.357 151.379 76.357 151.086 76.6501C150.198 76.6761 149.317 76.6838 148.428 76.6787C148.162 76.6783 147.896 76.6779 147.621 76.6774C146.767 76.6758 145.913 76.6721 145.059 76.6684C144.481 76.6669 143.904 76.6656 143.326 76.6644C141.907 76.6611 140.488 76.6561 139.069 76.6501C139.246 75.1836 139.913 74.0345 140.583 72.7447C143.57 67.3262 143.57 67.3262 144.186 61.4029C143.644 59.7987 142.821 58.3487 141.976 56.8857C140.97 55.0842 140.293 53.1231 139.553 51.2015C139.071 49.9589 138.571 48.7237 138.074 47.4874C136.635 43.8982 135.203 40.3063 133.775 36.7127C133.494 36.0065 133.213 35.3005 132.931 34.5947C132.537 33.6049 132.143 32.6146 131.75 31.6242C131.63 31.3247 131.511 31.0251 131.387 30.7165C131.279 30.4429 131.171 30.1694 131.059 29.8875C130.964 29.6482 130.869 29.4089 130.771 29.1624C130.569 28.581 130.569 28.581 130.569 27.9948Z" fill="white"/>
<path d="M328.121 28.581C331.99 28.581 335.859 28.581 339.845 28.581C339.859 30.0069 339.874 31.4329 339.888 32.902C339.899 33.8103 339.909 34.7186 339.92 35.627C339.938 37.0658 339.955 38.5045 339.968 39.9434C339.979 41.1046 339.993 42.2658 340.008 43.4269C340.014 43.8679 340.018 44.3089 340.022 44.7499C339.896 48.7955 339.896 48.7955 341.237 52.4804C343.326 53.8366 346.127 53.5605 348.474 53.172C349.418 52.8406 349.8 52.5431 350.397 51.7362C351.197 49.4267 351.086 47.0256 351.104 44.6101C351.11 44.1469 351.115 43.6837 351.121 43.2205C351.136 42.0082 351.148 40.7958 351.159 39.5835C351.173 38.1252 351.191 36.6669 351.208 35.2087C351.234 32.9995 351.254 30.7903 351.276 28.581C355.145 28.581 359.014 28.581 363 28.581C363 40.1879 363 51.7949 363 63.7535C359.324 63.7535 355.649 63.7535 351.862 63.7535C351.403 63.2945 351.39 62.7496 351.258 62.1231C351.18 61.7598 351.18 61.7598 351.101 61.3892C351.062 61.2022 351.023 61.0151 350.983 60.8225C350.862 60.9358 350.741 61.0492 350.616 61.1659C347.422 64.0462 343.747 64.6562 339.552 64.6328C336.687 64.4356 333.425 63.8398 331.345 61.7018C329.01 58.7722 328.071 55.5419 328.087 51.8401C328.087 51.5883 328.087 51.3365 328.087 51.0771C328.087 50.2476 328.09 49.4182 328.092 48.5888C328.093 48.0126 328.093 47.4364 328.093 46.8602C328.094 45.3457 328.097 43.8313 328.101 42.3168C328.104 40.4986 328.105 38.6804 328.107 36.8621C328.11 34.1018 328.116 31.3414 328.121 28.581Z" fill="white"/>
<path d="M244 18.0293C248.256 18.0293 252.511 18.0293 256.896 18.0293C257.829 20.0808 258.708 22.0842 259.479 24.1913C259.627 24.5905 259.627 24.5905 259.778 24.9978C260.089 25.8376 260.398 26.678 260.707 27.5185C261.115 28.6262 261.525 29.7337 261.934 30.8411C262.031 31.1047 262.129 31.3684 262.229 31.64C263.179 35.0321 263.179 35.0321 264.81 37.9603C264.886 37.7492 264.962 37.5381 265.041 37.3206C266.73 32.6518 268.467 28.0047 270.269 23.3784C270.36 23.1441 270.452 22.9098 270.546 22.6684C270.805 22.0027 271.065 21.3372 271.325 20.6718C271.403 20.4719 271.481 20.272 271.561 20.066C272.103 18.6848 272.103 18.6848 272.431 18.0293C276.687 18.0293 280.943 18.0293 285.327 18.0293C285.046 19.437 284.581 20.5566 283.963 21.8316C283.798 22.1758 283.798 22.1758 283.63 22.527C283.269 23.2817 282.906 24.0353 282.543 24.789C282.29 25.3166 282.038 25.8442 281.785 26.372C281.267 27.4568 280.747 28.5413 280.228 29.6256C279.518 31.1065 278.813 32.5893 278.111 34.0733C278.004 34.2979 277.898 34.5225 277.788 34.7539C277.263 35.8621 276.743 36.9719 276.23 38.0856C275.354 39.979 274.476 41.8268 273.401 43.6175C269.821 49.8264 270.528 56.7957 270.672 63.7535C266.707 63.7535 262.741 63.7535 258.655 63.7535C258.698 62.8316 258.742 61.9097 258.787 60.9598C259.065 52.2979 257.797 46.2258 253.539 38.722C252.464 36.8104 251.556 34.8234 250.643 32.8309C250.176 31.8165 249.7 30.807 249.224 29.7969C249.039 29.4019 248.853 29.0068 248.668 28.6116C248.18 27.5714 247.69 26.532 247.2 25.4927C246.811 24.6673 246.423 23.8414 246.035 23.0154C245.852 22.6256 245.669 22.2359 245.485 21.8464C245.233 21.3134 244.983 20.7796 244.733 20.2459C244.519 19.793 244.519 19.793 244.302 19.3311C244 18.6155 244 18.6155 244 18.0293Z" fill="white"/>
<path d="M243.121 29.1672C243.121 32.5526 243.121 35.9379 243.121 39.4259C239.896 39.1328 239.896 39.1328 238.987 39.04C232.721 38.3479 232.721 38.3479 226.981 40.3601C225.625 42.329 225.393 44.1518 225.424 46.4787C225.421 46.7305 225.418 46.9823 225.414 47.2418C225.422 48.8735 225.682 49.9861 226.414 51.4431C226.51 51.7333 226.607 52.0235 226.707 52.3224C231.613 53.4318 236.15 53.2806 241.14 52.7985C241.431 52.771 241.722 52.7435 242.021 52.7151C242.283 52.6891 242.544 52.663 242.814 52.6361C243.012 52.6293 243.21 52.6225 243.414 52.6155C243.707 52.9086 243.707 52.9086 243.74 53.8298C243.74 54.2376 243.738 54.6454 243.735 55.0531C243.735 55.2674 243.735 55.4817 243.734 55.7024C243.732 56.3894 243.729 57.0763 243.725 57.7632C243.724 58.2278 243.722 58.6925 243.721 59.1571C243.718 60.2985 243.713 61.4398 243.707 62.5811C239.898 63.943 236.119 64.1022 232.103 64.1335C231.524 64.138 230.944 64.1459 230.365 64.1539C225.76 64.1506 221.132 63.4469 217.62 60.2362C213.346 55.7702 213.369 49.2204 213.491 43.4167C213.647 38.821 214.802 34.4399 218.235 31.2304C224.758 25.7775 235.519 27.2669 243.121 29.1672Z" fill="white"/>
<path d="M41.2805 6.00086C41.4785 6.00133 41.6765 6.00181 41.8805 6.00229C44.9986 6.01476 48.0124 6.17314 51.0646 6.85798C51.264 6.90101 51.4635 6.94404 51.669 6.98837C59.5309 8.72831 67.5047 12.5796 72.0074 19.5369C74.076 22.8696 75.6677 26.9331 75.1286 30.922C74.5826 32.0748 73.9984 32.7918 72.7998 33.2508C71.5344 33.3882 70.3835 33.4246 69.1935 32.9435C67.9454 31.8467 67.4954 30.9639 67.2366 29.321C66.4761 25.0526 64.3548 21.9184 60.8972 19.2781C53.0862 13.9407 43.0256 12.9106 33.8947 14.4899C28.1235 15.592 22.9072 17.9531 18.7204 22.1244C18.5753 22.2635 18.4302 22.4026 18.2807 22.5459C15.7994 25.1445 14.9664 28.395 15.0261 31.8701C15.0897 33.3309 15.4739 34.5369 16.1329 35.8383C16.2975 36.1636 16.2975 36.1636 16.4654 36.4953C19.3686 41.7194 24.8072 44.859 30.3985 46.5244C31.3304 46.7828 32.2671 47.0117 33.2106 47.2235C33.4624 47.2809 33.7142 47.3382 33.9737 47.3973C35.2568 47.6446 36.5391 47.7616 37.8409 47.8582C38.2571 47.8897 38.2571 47.8897 38.6817 47.9217C39.2415 47.9623 39.8015 47.9995 40.3618 48.0328C43.1029 48.2237 43.1029 48.2237 44.1768 49.4392C45.337 50.8993 46.2312 52.5283 47.1509 54.1451C48.3868 56.289 49.6194 58.4085 51.0646 60.4199C51.2233 60.642 51.3821 60.8642 51.5457 61.0931C52.5154 62.3985 53.255 63.3217 54.8973 63.6867C56.6447 63.344 57.7299 61.8978 58.6978 60.4846C61.5282 55.7394 63.0833 50.1544 64.5066 44.8583C64.6251 44.4183 64.6251 44.4183 64.7461 43.9695C64.8929 43.4159 65.0359 42.8613 65.1743 42.3055C65.6268 40.5815 66.0937 39.3552 67.6359 38.3349C68.7377 37.9698 69.9059 37.9567 70.9977 38.3632C71.8878 38.8433 72.6145 39.3243 73.0586 40.2371C73.6145 42.5973 72.8466 44.7053 72.1853 46.9647C72.0658 47.3822 71.9464 47.7998 71.8271 48.2173C70.4033 53.1479 68.8098 57.9788 66.331 62.4899C66.1886 62.7644 66.0461 63.0389 65.8994 63.3218C63.9908 66.8443 61.1062 69.9196 57.2746 71.2875C54.4844 71.9709 52.0532 71.423 49.6252 69.9614C45.3409 67.0652 41.2188 61.3227 39.4716 56.48C39.1866 55.9513 39.1866 55.9513 38.5006 55.8332C38.2235 55.8052 37.9464 55.7771 37.6609 55.7482C37.3518 55.7129 37.0427 55.6776 36.7242 55.6412C36.3919 55.6065 36.0596 55.5717 35.7173 55.5359C26.712 54.4696 17.7089 50.9611 11.7341 43.8597C8.30477 39.3676 6.60829 34.246 7.07651 28.5933C7.29221 27.1768 7.68286 25.8181 8.11153 24.4532C8.18624 24.214 8.26096 23.9749 8.33794 23.7285C9.38734 20.7911 11.4162 18.3966 13.5453 16.1731C13.7068 15.9953 13.8682 15.8175 14.0345 15.6344C18.2181 11.1783 24.4183 8.60317 30.2511 7.18142C30.4617 7.12997 30.6722 7.07852 30.8891 7.02551C34.3449 6.23077 37.7502 5.98331 41.2805 6.00086Z" fill="white"/>
<path d="M55.1935 28.006C56.2229 28.537 56.8294 29.0823 57.2746 30.1458C57.5811 31.4424 57.5707 32.2942 57.0159 33.5096C56.4112 34.3964 55.9371 34.9179 54.9458 35.3208C53.6539 35.5042 52.6386 35.4636 51.4688 34.868C50.2854 33.8289 49.8616 33.1153 49.7394 31.5376C49.7936 30.4732 50.1512 29.6853 50.8058 28.852C52.0624 27.7255 53.6074 27.414 55.1935 28.006Z" fill="white"/>
<path d="M29.5881 27.817C30.9717 28.3226 31.7761 29.0881 32.4343 30.4045C32.6436 32.0893 32.4086 33.1806 31.3993 34.5446C30.3939 35.4891 29.266 35.4508 27.9476 35.4118C26.6978 35.2466 26.0305 34.6527 25.2216 33.736C24.6966 32.3944 24.687 30.994 25.2378 29.6606C26.5211 28.156 27.6214 27.6152 29.5881 27.817Z" fill="white"/>
<path d="M42.2669 27.817C43.4653 28.4727 44.4173 29.0929 44.8545 30.4045C44.9901 31.6969 44.9968 32.7022 44.4178 33.8815C43.6316 34.7527 43.1089 35.2515 41.9132 35.3936C40.621 35.4396 39.6654 35.4154 38.6444 34.5446C37.6391 33.3997 37.2698 32.753 37.295 31.2051C37.4159 30.0266 37.9224 29.2999 38.7738 28.5124C39.8744 27.7695 40.9663 27.6347 42.2669 27.817Z" fill="white"/>
</svg>
