<svg width="2753" height="2000" viewBox="0 0 2753 2000" fill="none" xmlns="http://www.w3.org/2000/svg">
<path d="M952.7 249C933.6 255.5 922.8 307.3 922.8 307.3C922.8 307.3 952.7 315.7 960.4 311.3C960.4 311.3 969.1 272.7 972.2 274.1L952.7 249Z" fill="#6A97CE"/>
<path d="M992.2 230.2C992.2 230.2 988.8 247.8 989.5 254.7C990.2 261.6 986.9 284 972.2 284C957.5 284.1 969.4 255.6 970.8 248.8C972.2 242 972.5 221 972.5 221L992.2 230.2Z" fill="#F7A491"/>
<path d="M972.2 231.5C972.4 225.7 972.5 220.9 972.5 220.9L992.2 230.1C992.2 230.1 991.5 233.7 990.8 238.3C982.2 240.1 975.9 236.9 972.2 231.5Z" fill="#F47458"/>
<path d="M999.4 181.7C999.4 181.7 1007 185.9 1009.8 195C1012.6 204.1 1009.4 227.6 989.8 233.3C970.2 239 961.7 220.3 965.8 205.8C969.8 191.2 978.5 172.8 999.4 181.7Z" fill="#F7A491"/>
<path d="M963.3 200.1C963.7 204 965.8 207 968.1 206.8C970.4 206.6 971.9 203.2 971.5 199.3C971.1 195.4 969 192.4 966.7 192.6C964.4 192.9 962.9 196.2 963.3 200.1Z" fill="#F7A491"/>
<path d="M997.1 180.5C997.1 180.5 1000.7 206.7 1009.1 211.5C1017.6 216.2 1014 227.9 1014 227.9C1014 227.9 1021.7 200.9 1015 192.2C1008.3 183.4 997.1 180.5 997.1 180.5Z" fill="#13375B"/>
<path d="M1004.1 215.2C1001.8 218.6 1001.8 222.7 1004.1 224.2C1006.4 225.8 1010.1 224.2 1012.5 220.8C1014.8 217.4 1014.8 213.3 1012.5 211.8C1010.1 210.3 1006.4 211.8 1004.1 215.2Z" fill="#F7A491"/>
<path d="M975.5 216.7L989.3 220.2C989.3 220.2 987.6 225.4 981.5 224.1C974.1 222.4 975.5 216.7 975.5 216.7Z" fill="white"/>
<path d="M1019.4 249.5C1032.9 247.1 1044 307.3 1044 307.3C1044 307.3 1014.1 315.7 1006.4 311.3C1006.4 311.3 997.7 272.7 994.6 274.1L1019.4 249.5Z" fill="#9BC1F9"/>
<path d="M1955.8 1403.6C1966.7 1405.4 1966.1 1407.2 1967.5 1407.3C1969.2 1407.5 1988.9 1397.6 1988.9 1397.6C1988.9 1397.6 2047.2 1368.8 2050.3 1367.1L2092.4 1314.1L2124.8 1329.1C2124.8 1329.1 2077.5 1385.4 2074.5 1387.9C2071.5 1390.4 1987.9 1419.7 1980.6 1422.5C1980.6 1422.5 1973.3 1429.2 1968.5 1433.3C1963.8 1437.3 1957.4 1439 1955.9 1439.9C1955.7 1440 1950.4 1442.8 1943 1444.4C1936.6 1445.8 1941.9 1441.5 1941.9 1441.5C1941.9 1441.5 1953.2 1436.7 1952.6 1435.9C1952.2 1435.2 1946.2 1438.2 1939.1 1439.8C1937.3 1440.2 1935.5 1440.6 1933.9 1441C1929.6 1441.9 1927.7 1439.5 1932 1437.7C1933.5 1437.1 1936.1 1436.1 1938 1435.7C1940.1 1435.3 1941.8 1434.2 1943.5 1433.5C1946.9 1432.2 1949.3 1431.3 1949.2 1431.2C1949 1431 1949.5 1430.3 1947.6 1430.7C1945.3 1431.2 1940.6 1433.2 1937.1 1433.6C1935.1 1433.8 1931 1434.5 1931 1434.5C1931 1434.5 1923.8 1435.2 1923.7 1434.2C1923.6 1432 1928 1430.7 1930.8 1430.8C1932.5 1429.9 1936.9 1429.3 1936.9 1429.3C1936.9 1429.3 1945.3 1426 1944.8 1424.7C1944.6 1424.2 1939.5 1425 1934.1 1425.3C1928.4 1425.7 1924.3 1425.7 1924 1424.6C1923.5 1422.8 1928.1 1422.2 1928.1 1422.2C1928.1 1422.2 1932.1 1421.6 1933.4 1421.3C1934.9 1421 1939.4 1419.5 1939.4 1419.5C1939.4 1419.5 1954.8 1413.8 1954.3 1412.7C1953.7 1411.6 1951.2 1409.2 1950.1 1409.2C1949 1409.2 1947.1 1410.3 1946 1410.3C1944.9 1410.3 1942.6 1410.1 1942.4 1408.7C1942.2 1407.3 1948.3 1404.5 1948.3 1404.5C1948.3 1404.5 1952.7 1403.1 1955.8 1403.6Z" fill="#F8A492"/>
<path d="M2063.1 1347.1C2063.1 1347.1 2073.6 1356.6 2078 1359.8C2081.6 1362.4 2099.3 1370.9 2099.3 1370.9C2099.3 1370.9 2116.9 1343.9 2124.6 1330.4C2133.9 1314 2140.4 1289.6 2138.2 1288.9C2132 1287 2123.5 1285.9 2115.6 1289.5C2088.4 1302.1 2063.1 1347.1 2063.1 1347.1Z" fill="#355389"/>
<path d="M1966 1417.7C1961.3 1418.4 1956.5 1417.5 1954.5 1413.3C1954.1 1418.4 1961.7 1420.9 1966 1417.7Z" fill="#FE875E"/>
<path d="M660.6 1228.6C661.2 1212.9 658.9 1197.4 652 1182.8C646 1170.2 631.1 1163.1 617.5 1163.1C574.4 1163 568.9 1220.3 541.4 1242.3C533 1249 523.6 1254.5 515.7 1261.8C486.4 1288.7 499.6 1338.4 526.5 1361.9C545.2 1378.2 574.5 1387.5 597.5 1374.7C609.5 1368 618.6 1357 625.1 1344.8C634.3 1327.6 640.3 1307.7 646.8 1289.3C653.9 1269.8 659.8 1249.5 660.6 1228.6Z" fill="#0F3B16"/>
<path d="M667.7 1304.6C654.2 1263.7 636.5 1264.4 636.5 1264.4L650.9 1351.4C659.2 1349.1 670 1344.1 678.4 1341.7C675.5 1328.8 671 1314.7 667.7 1304.6Z" fill="#F7CC7F"/>
<path d="M735.7 1444L686.5 1406.4C686.5 1406.4 681.5 1371.4 674.9 1340.3C666.6 1342.6 659.1 1349.2 650.8 1351.4L663.3 1421L727.8 1454.3L746 1477.7L750.1 1453.7L735.7 1444Z" fill="#F48C7F"/>
<path d="M1620.6 1273.7C1621.3 1258.4 1626 1244.3 1633.6 1232.2C1634.6 1230.7 1635.5 1229 1636.3 1227.2C1653.6 1190.1 1626.8 1147.4 1585.9 1145.5L1384.9 1136.1L1375.5 1337.1C1373.6 1378 1330.9 1404.8 1293.8 1387.5C1292 1386.7 1290.4 1385.8 1288.8 1384.8C1276.7 1377.2 1262.6 1372.5 1247.3 1371.8C1198.9 1369.5 1158 1408.1 1158 1457.1C1158 1501.4 1192.7 1538.8 1236.9 1542.1C1252.6 1543.3 1267.6 1540.1 1280.8 1533.7C1282.4 1532.9 1284.2 1532.2 1286.1 1531.5C1325.2 1517.9 1365.6 1549.1 1363.6 1590.4L1354.3 1789.6L1812.2 1811C1920.2 1816 2011.9 1732.6 2016.9 1624.6L2038.3 1166.7L1838 1157.3C1796.9 1155.4 1766.1 1195.5 1779.8 1234.3C1780.5 1236.2 1781.2 1237.9 1782 1239.5C1789 1253.4 1792.2 1269.4 1790.6 1286.2C1786.3 1329.5 1749.4 1362.9 1705.9 1362.9C1656.9 1363 1618.3 1322.1 1620.6 1273.7Z" fill="#04890A"/>
<path d="M1060.6 957.3C1061.4 972.6 1058.1 987.1 1051.6 999.8C1050.8 1001.4 1050.1 1003.2 1049.4 1005C1035.8 1043.6 1066.6 1083.5 1107.5 1081.4L1308.4 1071.3L1298.3 870.4C1296.2 829.5 1336.2 798.7 1374.7 812.3C1376.5 813 1378.3 813.7 1379.9 814.5C1392.6 820.9 1407.2 824.2 1422.4 823.5C1470.8 821.1 1507.7 778.8 1503 730C1498.7 685.9 1460.6 652.1 1416.3 653.1C1400.5 653.5 1385.9 658 1373.5 665.7C1371.9 666.7 1370.3 667.5 1368.5 668.4C1330.9 685.7 1287.7 658.6 1285.6 617.2L1275.6 418L817.8 441C709.8 446.4 626.7 538.4 632.1 646.4L655.1 1104.2L855.4 1094.1C896.5 1092 923.3 1049.1 905.9 1011.8C905.1 1010 904.2 1008.4 903.2 1006.8C894.9 993.6 890.1 978 890.2 961.1C890.3 917.6 923.8 880.8 967.1 876.6C1015.9 871.9 1058.2 908.9 1060.6 957.3Z" fill="#169823"/>
<path d="M1471.9 846.4C1456.6 846.4 1442.3 842.4 1429.9 835.3C1428.3 834.4 1426.6 833.6 1424.8 832.9C1387 817.4 1345.6 846.1 1345.6 887V1088.2H1546.8C1587.7 1088.2 1616.5 1129.6 1600.9 1167.4C1600.2 1169.2 1599.3 1170.9 1598.4 1172.5C1591.4 1184.9 1587.3 1199.3 1587.3 1214.5C1587.3 1263 1627.7 1302 1676.7 1299.7C1721 1297.6 1756.7 1261.3 1757.9 1216.9C1758.3 1201.1 1754.5 1186.3 1747.4 1173.5C1746.5 1171.9 1745.7 1170.2 1745 1168.3C1729.6 1129.8 1758.8 1088.1 1800.3 1088.1H1999.7V629.8C1999.7 521.7 1912 434 1803.9 434H1345.5V634.5C1345.5 675.6 1387 704.6 1425.1 689.1C1426.9 688.4 1428.6 687.6 1430.2 686.7C1443.8 679.1 1459.6 675.1 1476.5 676C1519.9 678.3 1555 713.6 1557.1 757C1559.4 806 1520.4 846.4 1471.9 846.4Z" fill="#11B121"/>
<path d="M525.8 1734.1C525.8 1734.1 522.8 1755.2 517.5 1762C515.7 1764.3 512.5 1767.2 510.4 1771.3C507.1 1777.7 508.9 1787.3 511.4 1792.6C512.6 1795.3 511.3 1795.3 514.1 1796.2C522.5 1798.8 531.4 1794.4 534.9 1786.4C536.9 1781.9 538.6 1775.9 539 1768.4C539.9 1749.2 545.8 1739.5 545.8 1739.5L525.8 1734.1Z" fill="#F7A491"/>
<path d="M617.3 1743.7C617.3 1743.7 619.2 1767.5 617.7 1775.3C616.9 1779.4 612.3 1788 614.4 1791.9C616.5 1795.8 618.9 1796.8 618.9 1796.8L672.9 1797.7C675.8 1797.7 673.9 1795.9 671.5 1794.1C667.6 1791.2 664.5 1789.3 652.1 1783.3C651.3 1782.9 648.3 1781 647.3 1780.4C644.6 1778.8 641.9 1776.2 639.6 1773.6C635.7 1769.3 635.4 1748.3 635.4 1748.3L617.3 1743.7Z" fill="#F7A491"/>
<path d="M659.4 1427.2C659.4 1427.2 666.2 1465.9 661.7 1491.2C657.2 1516.5 635.8 1751.5 635.8 1751.5L612 1752.8C612 1752.8 607 1654.6 607.9 1641C608.8 1627.3 615.9 1604.5 615.9 1604.5L613.5 1525.3L643.5 1421.2L659.4 1427.2Z" fill="#355389"/>
<path d="M589.5 1419.1C589.5 1419.1 570.8 1447.4 566.3 1470.8C561.8 1494.2 569.6 1566.1 561 1596.8C556.4 1613.4 538.7 1639 536.1 1660.5C533.4 1682 522.9 1738.1 522.9 1738.1L546.7 1742.8L602 1602.5L645.4 1475.7L656.5 1410.4L589.5 1419.1Z" fill="#466EB6"/>
<path d="M604.7 1258.2C604.7 1258.2 579.9 1256.6 570.1 1267.3C560.3 1278 591.9 1362.9 593.7 1376.5C595.5 1390.1 584.6 1426.4 584.6 1426.4C584.6 1426.4 642.9 1438.2 659.6 1427.1C659.6 1427.1 661.4 1328.9 659.6 1319.2C657.8 1309.4 642.9 1269.8 639.4 1265.9C635.6 1262.1 604.7 1258.2 604.7 1258.2Z" fill="#F7CC7F"/>
<path d="M612.9 1224.9C612.9 1224.9 612.8 1225.6 612.5 1226.9C611.4 1232.9 607.1 1252.7 604.3 1258.2C600.8 1264.8 616.2 1285.8 631 1283.2C635.4 1282.4 627.3 1263.9 627.7 1261.9C628.4 1258.1 629.5 1253 630.5 1247.7C631.1 1244.7 631.7 1241.7 632.2 1238.9C633.8 1230.9 635.1 1224.3 635.1 1224.3L612.9 1224.9Z" fill="#F7A491"/>
<path d="M612.6 1226.9C612.8 1225.7 613 1224.9 613 1224.9L635.2 1224.3C635.2 1224.3 633.9 1230.9 632.3 1238.9C631.7 1241.7 631.2 1244.7 630.6 1247.7C627.2 1247.2 623.6 1245.5 620 1242.4C616.1 1239 613.5 1234.8 612 1230.4C612.2 1229.1 612.4 1227.9 612.6 1226.9Z" fill="#0F7B1A"/>
<path d="M627.9 1174.4C627.9 1174.4 617.4 1173.2 610.9 1181.7C604.3 1190.2 597.3 1216.5 613.6 1230.8C629.9 1245.1 646 1228.9 648.4 1211.8C650.7 1194.6 651.6 1173.8 627.9 1174.4Z" fill="#F7A491"/>
<path d="M653.1 1211.5C651.2 1215.3 647.9 1217.4 645.8 1216.2C643.7 1215 643.6 1211 645.6 1207.2C647.5 1203.4 650.8 1201.3 652.9 1202.5C654.9 1203.6 655 1207.7 653.1 1211.5Z" fill="#F7A491"/>
<path d="M629 1171.6C629 1171.6 615 1196.6 605 1197.8C595 1199 593.7 1212.2 593.7 1212.2C593.7 1212.2 597.3 1181.6 607.2 1175.7C617.1 1169.8 629 1171.6 629 1171.6Z" fill="#0F3B16"/>
<path d="M536.6 1782.2C523.6 1784.6 515 1777 510.5 1771.3C507.2 1777.7 505.6 1787.4 508 1792.7C510.1 1797.4 516.4 1797.2 521.3 1797.4C526.5 1797.6 530.5 1794.7 533.1 1790.2C534.3 1788 535.6 1785.4 536.6 1782.2Z" fill="#0F7B1A"/>
<path d="M647.2 1780.3C632.9 1784 622.4 1781.5 616.5 1779.1C615 1783.4 613 1788.8 614 1792C615.3 1795.8 617.2 1796.7 618.8 1796.7C631.8 1797 666.6 1797.5 676.5 1797.6C677.9 1797.6 678.7 1796 677.8 1794.9C675.3 1792.1 648.2 1781 647.2 1780.3Z" fill="#0F7B1A"/>
<path d="M607.7 1204C608.5 1208.4 606.9 1212.5 604 1213.1C601.2 1213.7 598.2 1210.6 597.4 1206.1C596.6 1201.7 598.2 1197.6 601.1 1197C603.9 1196.4 606.9 1199.6 607.7 1204Z" fill="#F7A491"/>
<path d="M624 1219.4L636.6 1220C636.6 1220 636.1 1224.8 630.5 1224.7C623.8 1224.5 624 1219.4 624 1219.4Z" fill="white"/>
<path d="M1700 213.3C1701.6 213.4 1705.9 214.8 1712.2 226.7C1720.2 241.9 1732 287.8 1732 287.8L1696.9 300.9L1692.4 291.3L1685 217.5C1684.9 217.5 1699.5 213.2 1700 213.3Z" fill="#DD513A"/>
<path d="M1653.6 206.6C1663.6 206.6 1688.4 209.5 1700 213.2C1700 213.2 1708.5 285.9 1692.4 341.2C1688.8 353.6 1695.4 392.5 1695.4 392.5L1591.5 391.1C1591.5 391.1 1603.8 297 1599.2 281.8C1594.6 266.6 1594.5 213.6 1594.5 213.6C1594.5 213.6 1595.2 213.5 1617.9 209.6C1628.2 207.9 1642.9 206.6 1653.6 206.6Z" fill="#0F7B1A"/>
<path d="M1641.5 527.5C1641.5 527.5 1643.8 554 1648 561.4C1652.2 568.7 1647.8 581.2 1647.6 583C1647.4 584.7 1638.7 587.2 1624.9 585.7C1611.1 584.2 1611.3 581 1612.4 575.9C1613.5 570.8 1620.9 564.1 1621.3 559.2C1621.7 554.3 1617.1 536.7 1617.1 536.7L1641.5 527.5Z" fill="#F7A491"/>
<path d="M1683.6 370.6C1683.6 370.6 1755.4 366.6 1771.4 376.3C1787.4 386 1760 433.6 1760 433.6C1760 433.6 1710.1 431.3 1612.3 436.9C1589.1 438.2 1587.1 376.5 1591.5 371.4C1595.8 366.4 1683.6 370.6 1683.6 370.6Z" fill="#E0973F"/>
<path d="M1623.1 587.7C1608.9 586.2 1610.7 579.2 1611.8 573.9C1612.5 570.6 1616.6 566.7 1619 563C1620.3 564 1622.3 565.8 1628.5 567.6C1634.9 569.5 1643.7 565.7 1649.3 563.4C1651.3 570.8 1651.4 580.3 1651.2 581.7C1651 583.5 1637.4 589.3 1623.1 587.7Z" fill="#DD513A"/>
<path d="M1631 422C1633.9 443.7 1648.1 551.7 1648.1 551.7L1615.2 555.8C1615.2 555.8 1574.7 414.9 1576.8 393.3C1578.9 371.7 1594 369.9 1594 369.9C1594 369.9 1623.4 364.5 1631 422Z" fill="#F7CC7F"/>
<path d="M1593.2 221.8C1602.9 218.2 1607.7 305.7 1609 341.8C1626.2 343.5 1656.2 341.8 1663.7 341.3C1667.2 341 1675.3 338.1 1678.8 337.6C1682.4 337.1 1685.6 336.9 1687.4 337.2C1688 337.3 1706 344.6 1707.5 346.3C1709.4 348.3 1714.5 353.3 1713.7 355.5C1712.8 357.7 1703.8 349.4 1703.8 349.4L1699.4 346.9C1704.9 352.3 1715.4 359.3 1713.9 361.9C1712.4 364.4 1703 357.2 1696.2 352.4C1702 357.6 1709.2 367 1707.5 368.4C1706 369.7 1697.9 358.9 1689.1 355.8C1685.9 354.6 1682.6 357.8 1680.1 358.2C1678.2 358.5 1675.3 359.1 1673.5 358.6L1664.1 355.9C1660.9 356.2 1660.8 358.1 1657.6 358.8C1653.8 359.6 1647.6 360.4 1642.8 361.6C1615.1 368.4 1605.9 371.5 1597.4 371.5C1571.7 371.4 1570.2 230.4 1593.2 221.8Z" fill="#F7A491"/>
<path d="M1574.7 304C1572.9 267.1 1573.1 221.6 1593.8 213.8C1602 210.7 1616.4 229.2 1613.8 304.7C1602.8 305.7 1586.6 306.4 1574.7 304Z" fill="#DD513A"/>
<path d="M1737.8 550.2C1737.8 550.2 1734.9 559.4 1740.1 565.5C1745.2 571.6 1766.6 577.6 1769.4 580.9C1772.2 584.2 1772 587 1772 587L1712 585.3L1712.7 567.2L1715.5 554.2L1737.8 550.2Z" fill="#F7A491"/>
<path d="M1743.8 568.6C1743.8 568.6 1728.4 574.8 1720.9 571.1C1713.5 567.4 1713.7 566.4 1711.5 567.8C1709.3 569.2 1708.6 586.2 1708.6 586.2L1776.1 588.2C1780.8 588.1 1783.2 584.6 1779.4 581.7C1776.8 579.7 1773.8 578.3 1772 577.3C1766.7 574.2 1743.8 568.6 1743.8 568.6Z" fill="#DD513A"/>
<path d="M1735.5 387.6C1740.1 377.8 1750.7 365.1 1769.2 372.8C1786.9 380.1 1791.7 398 1786.1 416.4C1780.5 434.8 1743.7 542.8 1742.5 557.6L1713.1 557.8C1713.1 557.8 1718.4 472.3 1719.7 451.6C1721 431.8 1727.5 404.5 1735.5 387.6Z" fill="#F7CC7F"/>
<path d="M1783.2 288.2H1685C1682.4 288.2 1680.1 289.8 1679.1 292.2L1648.9 366.1H1594.8C1593.3 366.1 1592.1 367.3 1592.1 368.8C1592.1 370.3 1593.3 371.5 1594.8 371.5H1748.8C1753 371.5 1756.9 369 1758.6 365.1L1789 297.1C1790.9 293 1787.8 288.2 1783.2 288.2Z" fill="black"/>
<path d="M1730.3 331.2C1729.6 334.5 1726.8 336.7 1723.9 336.2C1721 335.6 1719.2 332.5 1719.9 329.1C1720.6 325.8 1723.5 323.6 1726.4 324.1C1729.2 324.8 1731 327.9 1730.3 331.2Z" fill="white"/>
<path d="M1676.9 117.8C1673.9 116.8 1671 115.7 1668.2 114.3C1665 112.8 1660.9 111 1658.3 110.6C1652.8 109.8 1643.4 110.3 1638.2 116C1631.7 123 1620.2 117.3 1622.5 154C1625.1 195.6 1648.3 191.1 1648.8 190.4C1649.4 189.7 1669.4 163.8 1669.4 163.8C1669.4 163.8 1676.4 179.2 1676.4 178.6C1676.6 178 1712.4 129.8 1676.9 117.8Z" fill="#0E2E35"/>
<path d="M1659.3 193.4L1661.3 208.3C1661.3 208.3 1665.8 229.7 1660 233.9C1654.2 238 1635.5 207.7 1635.5 207.7L1637.5 170L1659.3 193.4Z" fill="#F7A491"/>
<path d="M1636.9 182.2C1641.7 195.1 1653 203 1661 206L1659.3 193.4L1637.5 170L1636.9 182.2Z" fill="#0F7B1A"/>
<path d="M1658.2 129C1670.4 127 1681.3 136.8 1681 149.1C1680.9 154.4 1680.4 161 1679.3 168.2C1676.6 185.4 1664.9 200.5 1657.2 199.1C1649.5 197.7 1630 182.9 1633.4 158.5C1635.5 143.4 1645.4 131.1 1658.2 129Z" fill="#F7A491"/>
<path d="M1638.8 161.4C1638.1 165.2 1635.1 167.8 1632 167.3C1628.9 166.8 1627 163.3 1627.6 159.5C1628.3 155.7 1631.3 153.1 1634.4 153.6C1637.5 154.1 1639.4 157.6 1638.8 161.4Z" fill="#F7A491"/>
<path d="M1634.4 153.6C1634.4 153.6 1643.8 155.9 1647.2 149.9C1650.7 143.9 1663.1 130.9 1678.9 136.3C1694.7 141.7 1665 123.2 1663.7 123.2C1662.4 123.2 1647.3 123.1 1647.3 123.1C1647.3 123.1 1635.6 132.7 1635.2 133.8C1634.8 134.9 1631.4 146.4 1631.4 146.4L1634.4 153.6Z" fill="#0E2E35"/>
<path d="M1651.5 178.7L1668.5 182C1668.5 182 1666.9 188.4 1659.3 187.2C1650.2 185.7 1651.5 178.7 1651.5 178.7Z" fill="white"/>
<path d="M1363.3 1365.2C1364 1367.4 1364.3 1368.2 1365.2 1369.7C1370.5 1379.4 1382.9 1393.3 1382.9 1393.3L1392.5 1371.7C1392.5 1371.7 1390.9 1364.9 1388.2 1355.2C1378.9 1357.6 1370.1 1359 1363.3 1365.2Z" fill="#F8A492"/>
<path d="M1418.3 1346.4C1418.3 1346.4 1364.8 1369.4 1363.1 1369C1362 1368.7 1341.2 1333.9 1340.9 1301.1C1340.8 1286 1356.5 1267.7 1374.1 1271.3C1382.9 1273.1 1382.8 1275.6 1395.9 1294.6C1409 1313.6 1418.3 1346.4 1418.3 1346.4Z" fill="#0F3B16"/>
<path d="M1463.9 1759.5C1463.9 1759.5 1462.6 1780.5 1462.6 1780.6C1462.1 1783.3 1460.3 1789.9 1460.3 1792.3C1460.3 1801.4 1503.6 1784.6 1493.9 1780.5C1493 1780.1 1488.4 1777.4 1488.1 1774.3C1487.7 1769.5 1486.5 1759.9 1486.5 1759.9L1463.9 1759.5Z" fill="#F7A491"/>
<path d="M1493.8 1780.3C1493.8 1780.3 1483.6 1783.1 1478.4 1783.8C1473.2 1784.5 1466.3 1778.6 1462.7 1780.2C1458.7 1781.9 1458.8 1797.6 1458.8 1797.6C1458.8 1797.6 1513.3 1802.1 1528.6 1797.4C1534.7 1795.7 1514.6 1786.8 1493.8 1780.3Z" fill="#DD513A"/>
<path d="M1375.4 1759.5C1375.4 1759.5 1374.1 1780.5 1374.1 1780.6C1373.6 1783.3 1371.8 1789.9 1371.8 1792.3C1371.8 1801.4 1415.1 1784.6 1405.4 1780.5C1404.5 1780.1 1398.6 1775.3 1398.3 1772.2C1397.9 1767.4 1398.1 1759.8 1398.1 1759.8L1375.4 1759.5Z" fill="#F7A491"/>
<path d="M1405.3 1780.3C1405.3 1780.3 1395.1 1783.1 1389.9 1783.8C1384.7 1784.5 1377.8 1778.6 1374.2 1780.2C1370.2 1781.9 1370 1797.6 1370 1797.6C1370 1797.6 1424.7 1802.8 1440.1 1797.4C1446.1 1795.5 1426.1 1786.8 1405.3 1780.3Z" fill="#DD513A"/>
<path d="M1388.7 1376.8L1426.8 1323.4C1427 1322.9 1427.3 1322 1427.8 1320.5C1429.7 1315.2 1433.7 1304.2 1437.2 1293.2V1293.1C1438.3 1289.3 1440.6 1282.6 1442.8 1276.1C1445.3 1268.9 1448.4 1260 1448.5 1258.5C1448.4 1258.2 1448.2 1257.8 1448 1257.2C1446.6 1253.6 1444.7 1244.9 1444 1241.2C1443.6 1238.8 1443.2 1233 1446 1233C1450.5 1233 1448.3 1238.8 1450.4 1242.4C1451.2 1240 1452.7 1235.2 1453.5 1230.3L1454.2 1219C1454.3 1218.1 1453.4 1211.9 1456.6 1211.9H1456.7C1459.5 1212.1 1459.5 1218.8 1460.6 1230C1461 1228.7 1461.3 1227.1 1461.6 1225.7C1461.6 1224.9 1462.1 1221.5 1462.6 1219.8C1462 1216.7 1462.4 1211.7 1465.7 1212.2C1467.4 1212.4 1467.2 1219.3 1467.2 1219.3C1467.2 1220.2 1467.1 1227.5 1467.1 1229C1467.4 1226.6 1468.8 1216.1 1471.4 1216.1C1473.6 1216.1 1473.7 1218.9 1473.7 1221.1C1473.7 1222.4 1472.3 1233.7 1472.2 1235.1C1473.2 1233.4 1474.4 1223.4 1475.4 1223.4C1479.6 1223.4 1478.1 1237.6 1476.5 1241.3C1476.4 1241.7 1476.2 1242.4 1476 1243.3C1475.5 1245.8 1474.6 1250.1 1472.4 1253.9C1469.7 1258.5 1466.1 1265.7 1465.5 1266.8C1465.1 1269.1 1463.8 1277.2 1462.2 1287.4C1461.5 1291.8 1460.8 1296.6 1460 1301.5C1459.9 1302.6 1459.1 1306 1456 1318.8C1451.9 1336.4 1451.4 1337.1 1451.3 1337.4C1449.5 1340.6 1408.4 1396.4 1406.7 1398.7L1405.7 1400.1L1388.7 1376.8Z" fill="#F7A491"/>
<path d="M1459.5 1252.3C1459.5 1252.3 1456.4 1244.4 1450.9 1244.4C1450.9 1244.4 1454 1243.3 1456.6 1245.4C1459.2 1247.5 1459.5 1252.3 1459.5 1252.3Z" fill="#0F7B1A"/>
<path d="M1379.4 1237.1L1374.5 1268.1C1374.5 1268.1 1393.2 1283.1 1404.1 1279.9C1413.2 1277.2 1407 1265.3 1407 1265.3C1407 1265.3 1402.1 1248.7 1403.6 1240.1C1405.1 1231.4 1379.4 1237.1 1379.4 1237.1Z" fill="#F7A491"/>
<path d="M1383 1246.4C1387.7 1248.6 1396.9 1251.6 1404.2 1252.4C1403.5 1248.1 1403.1 1243.5 1403.7 1240.1C1404.4 1236.1 1399.3 1235.1 1393.6 1235.3C1386.2 1235.9 1379.5 1237.1 1379.5 1237.1L1378.6 1243.1C1379.9 1244.5 1381.4 1245.7 1383 1246.4Z" fill="#FE875E"/>
<path d="M1355.9 1201.3C1355.1 1201.3 1363.3 1236 1375.9 1241.9C1388.5 1247.8 1407.4 1244.8 1410.9 1235.4C1414.8 1225.1 1400.6 1189.7 1382.8 1185.2C1365 1180.8 1355.9 1201.3 1355.9 1201.3Z" fill="#F7A491"/>
<path d="M1370.5 1169.5C1360.4 1175.3 1355.8 1183.9 1354.2 1187.5C1349.5 1189.7 1343.7 1194.6 1341 1207.7C1337.6 1223.8 1349.6 1236.2 1362.4 1239.9C1375.1 1243.6 1377.1 1252.1 1377.1 1252.1L1378.5 1243C1378.5 1243 1375.7 1235.1 1371.4 1231.1C1367.1 1227.1 1373.4 1221.4 1374 1216.7C1374.4 1213.1 1371.8 1206.1 1372.3 1200.1C1372.3 1200.1 1379.4 1189.4 1386.4 1186.7C1398.3 1182.2 1383.4 1162 1370.5 1169.5Z" fill="#0F3B16"/>
<path d="M1375.8 1222.7C1377.4 1226.7 1376.8 1230.7 1374.3 1231.6C1371.8 1232.5 1368.5 1230 1366.8 1226C1365.2 1222 1365.8 1218 1368.3 1217.1C1370.8 1216.2 1374.2 1218.7 1375.8 1222.7Z" fill="#F7A491"/>
<path d="M1422.9 1377.7L1496.4 1365.7C1496.4 1365.7 1488 1344.6 1485.1 1344.6C1482.2 1344.6 1429.5 1367.6 1429.5 1367.6L1425.3 1376L1422.9 1377.7Z" fill="#F8A492"/>
<path d="M1385.2 1428.1C1385.2 1428.1 1377.9 1463.5 1380.9 1490.4C1383.9 1517.3 1384.1 1612.7 1384.1 1612.7L1372.7 1765.4L1399.8 1766C1399.8 1766 1431.9 1613.3 1431.3 1617.3C1430.7 1621.3 1442.1 1509.8 1442.1 1509.8L1403.9 1424.7L1385.2 1428.1Z" fill="#184655"/>
<path d="M1392.4 1426.4C1392.4 1426.4 1387.6 1458.3 1393.6 1472.3C1399.6 1486.3 1444.8 1623.6 1445.4 1634.8C1446 1646 1461.1 1769.8 1461.1 1769.8L1492.6 1768.9L1499.4 1631.3L1485.2 1458.4L1471.4 1414.7L1392.4 1426.4Z" fill="#0F3B16"/>
<path d="M1374.5 1268.1C1374.5 1268.1 1382.3 1273.2 1389.5 1272.6C1396.7 1272 1407 1265.3 1407 1265.3L1405.6 1260.5C1405.6 1260.5 1386.9 1257.8 1386.4 1258.1C1385.9 1258.4 1374.5 1268.1 1374.5 1268.1Z" fill="#F7A491"/>
<path d="M1457.2 1343.6C1457.2 1343.6 1485 1369.8 1497.5 1365.4C1510 1360.9 1515.2 1345.6 1484.6 1323.2C1457.3 1303.1 1457.2 1343.6 1457.2 1343.6Z" fill="#F8A492"/>
<path d="M1476 1376C1471.9 1353.5 1441.9 1283.6 1439.6 1270.7C1438.4 1264.4 1422.3 1264.3 1406.9 1265.1C1390.7 1266 1374.5 1268 1374.5 1268C1374.5 1268 1360.1 1270.4 1353.8 1276.3C1347.5 1282.2 1345.8 1298.6 1354.9 1329.7C1362.1 1354.3 1371 1367.8 1375.4 1385.6C1376.3 1391.6 1377.1 1397.5 1378.1 1404.4C1379.7 1431.2 1378.1 1466.5 1378.1 1466.5C1378.1 1466.5 1456.4 1482.7 1485.7 1458.1C1485.6 1458.3 1480.3 1399 1476 1376Z" fill="#355389"/>
<path d="M1496 1327.7C1496 1327.7 1465.3 1353.1 1463.5 1353.1C1462.3 1353.1 1419.7 1321.7 1409.8 1295.9C1404.4 1281.6 1415.8 1265.7 1428.8 1265.7C1437.8 1265.7 1441.9 1268.1 1459.8 1283.2C1477.7 1298.3 1496 1327.7 1496 1327.7Z" fill="#466EB6"/>
<path d="M955.7 196C960.7 183.9 965.9 171.8 978.9 165.6C989.5 160.6 1000.5 162.5 1009.9 169.6C1036.5 189.6 1013.3 211.7 1043.6 249.6C1053 261.4 1064.4 270.9 1070 284.7C1077.9 304 1068.5 313.3 1053.4 322.6C981.3 366.9 943.5 275.9 944.9 255.1C946 239.7 952.5 203.8 955.7 196Z" fill="#0F3B16"/>
<path d="M880.9 431.8C883.9 431.3 891.3 426 893.9 425.6C895.9 425.2 900.3 424.6 902.1 424.3C904.4 415.8 916 369.4 917.3 355.8C918.7 341.1 929.1 277.3 929.1 277.3L956.1 282.2C956.1 282.2 944.9 331.3 941.8 355C939.1 375.4 916.7 421.4 913.9 426.2C913.9 426.3 913.9 426.4 913.9 426.6C913.5 433.8 910 431.4 910 431.4L904.4 432.8C904.4 432.8 884.4 434.7 883.1 435.2C881.8 435.7 877.9 432.3 880.9 431.8Z" fill="#F7A491"/>
<path d="M805.1 521.5C799.3 536.9 796.2 551.7 796 553.5C795.9 554.4 797.1 558.5 797 559.4C785.3 575.4 768.4 578.9 754 579.9C761.4 572.7 772.2 565.9 772.7 563.6C773.5 560 778 543.9 780.2 521.5C789.1 525.7 795.1 522.4 805.1 521.5Z" fill="#F7A491"/>
<path d="M971.2 349.2L997 421.8C997 421.8 955.6 429.6 940.1 432.4C924.6 435.2 838.1 439 835.9 440.6C834.3 441.7 816.4 499.6 808.4 531.5C799.3 533.5 783.8 531.1 775.6 528.3C780.1 482.7 796.2 410.4 801.3 402.5C809.6 389.7 971.2 349.2 971.2 349.2Z" fill="#256653"/>
<path d="M870.4 553.3C867.5 569.5 867.4 584.7 867.4 586.5C867.4 587.4 869.4 591.3 869.5 592.2C861 610.1 845.1 616.7 831.1 620.4C837 612 846.3 603.3 846.4 600.9C846.5 597.2 847.9 580.5 845.8 558.2C855.5 560.5 860.8 556.1 870.4 553.3Z" fill="#F7A491"/>
<path d="M1001.3 353L1011.3 370.1C1026.5 396.1 1014.9 429.6 986.8 440.5C986.6 440.6 986.5 440.6 986.4 440.7C971.7 446.4 887.4 466.3 885.5 468.2C884.1 469.6 877.4 529.8 875.5 562.6C867 566.3 851.3 566.8 842.7 565.6C838.5 519.9 840.8 445.9 844.4 437.2C850.1 423 1001.3 353 1001.3 353Z" fill="#327F6B"/>
<path d="M866.2 587C868.4 584.5 876.7 598.2 878.7 601.1C881 604.4 880.4 606.8 880.1 607.4C879.4 608.8 835.9 634.3 825.3 636.1C824.3 636.3 822.6 635.6 822.1 635.3C818 631.6 837 604.6 845.6 601C851.1 598.6 856.1 598.1 866.2 587Z" fill="#0F3B16"/>
<path d="M794.6 554C797.3 552 802.8 566.9 804.3 570.2C806 573.9 804.9 576.2 804.5 576.6C803.5 577.8 756 594.8 745.3 594.6C744.3 594.6 742.7 593.6 742.3 593.2C738.9 588.8 762.7 565.8 771.8 563.9C777.6 562.6 782.6 563 794.6 554Z" fill="#0F3B16"/>
<path d="M970.8 239.8C970.3 239.8 969.6 239.6 968.9 239.4C965.4 238.8 957.6 237.8 951.6 240.4C944.3 243.5 932.9 272.4 933.6 302.1C933.9 306.6 934.1 310.7 934.4 313.5C936.3 335.9 942.7 378 943 378.2C951.7 383.8 1004.5 362 1008.1 357.2C1011.7 352.4 1013.9 294.2 1015.6 291.3L1019.1 240.6C1013 238.8 980.2 239.8 970.8 239.8Z" fill="#9BC1F9"/>
<path d="M1044.1 429.7C1044.8 429.7 1103.6 426.7 1103.6 426.7C1103.6 426.7 1079.2 444.2 1078.7 444.2C1078.2 444.2 1059.3 436.7 1058.4 436.7C1057.5 436.7 1044.1 429.7 1044.1 429.7Z" fill="#50BFA5"/>
<path d="M2235.5 1760.3C2235.5 1760.3 2236.7 1780.9 2236.7 1781C2237.1 1783.6 2238.8 1790.1 2238.8 1792.5C2238.8 1801.5 2199.1 1784.9 2208 1780.9C2208.8 1780.5 2213 1777.8 2213.3 1774.8C2213.7 1770.1 2214.7 1760.6 2214.7 1760.6L2235.5 1760.3Z" fill="#F7A491"/>
<path d="M2207.6 1781C2207.6 1781 2216.9 1783.7 2221.7 1784.4C2226.5 1785.1 2232.8 1779.3 2236.1 1780.9C2239.8 1782.6 2239.7 1798 2239.7 1798C2239.7 1798 2189.7 1802.4 2175.6 1797.8C2170.1 1796.1 2188.6 1787.4 2207.6 1781Z" fill="#F7CC7F"/>
<path d="M2301.7 1759.3C2301.7 1759.3 2302.9 1779.9 2302.9 1780C2303.3 1782.6 2305 1789.1 2305 1791.5C2305 1800.5 2265.3 1783.9 2274.2 1779.9C2275 1779.5 2280.5 1774.8 2280.7 1771.8C2281.1 1767.1 2280.9 1759.6 2280.9 1759.6L2301.7 1759.3Z" fill="#F7A491"/>
<path d="M2274.2 1779.8C2274.2 1779.8 2283.5 1782.5 2288.3 1783.2C2293.1 1783.9 2299.4 1778.1 2302.7 1779.7C2306.4 1781.4 2306.6 1796.8 2306.6 1796.8C2306.6 1796.8 2257 1798.8 2242.3 1796.6C2236.5 1795.8 2255.2 1786.1 2274.2 1779.8Z" fill="#F7CC7F"/>
<path d="M2289.9 1431.4C2289.9 1431.4 2296.6 1466.2 2293.9 1492.6C2291.2 1519 2290.9 1612.8 2290.9 1612.8L2303.5 1762.8L2276.5 1763.4C2276.5 1763.4 2247.1 1613.4 2247.6 1617.3C2248.1 1621.2 2237.7 1511.7 2237.7 1511.7L2272.8 1428.1L2289.9 1431.4Z" fill="#355389"/>
<path d="M2280.5 1408.9C2280.5 1408.9 2311 1441 2299.6 1476.1C2295 1490.2 2252.6 1624.8 2252 1635.8C2251.5 1646.8 2237.6 1768.4 2237.6 1768.4L2208.7 1767.5L2202.5 1632.3L2210.8 1450.2L2228.3 1419.5L2280.5 1408.9Z" fill="#466EB6"/>
<path d="M2095.4 1304.4C2105.4 1293.3 2127.1 1277.4 2127.1 1277.4C2127.1 1277.4 2140 1266.3 2145.3 1264.5C2153.1 1261.8 2166.4 1254.7 2185.6 1283.8C2199.4 1304.7 2286.3 1412.7 2300.5 1416.4L2207.4 1461C2204.8 1439.7 2158.8 1399.5 2152.2 1392C2137.4 1375.2 2085.9 1314.9 2095.4 1304.4Z" fill="#0F7B1A"/>
<path d="M2099.7 1259.1L2128.7 1276.1C2128.7 1276.1 2129.5 1300.9 2120 1307.3C2112 1312.7 2106 1299.7 2106 1299.7C2106 1299.7 2095.2 1284.7 2087 1280.1C2078.9 1275.5 2099.7 1259.1 2099.7 1259.1Z" fill="#F7A491"/>
<path d="M2104.6 1270C2103.5 1275.2 2101 1282.6 2097.1 1288.8C2093.9 1285.3 2090.3 1281.9 2087.1 1280.1C2083.3 1278 2085.7 1273.3 2089.4 1268.9C2094.6 1263.5 2099.7 1259 2099.7 1259L2105.3 1262.3C2105.7 1264.5 2104.9 1268.3 2104.6 1270Z" fill="#0F7B1A"/>
<path d="M2084.6 1216.6C2085.1 1216 2108.9 1245.7 2106 1259.6C2103.1 1273.5 2088.6 1286.2 2078.6 1282.7C2067.5 1278.8 2046.9 1243.9 2054.3 1226.9C2061.7 1209.9 2084.6 1216.6 2084.6 1216.6Z" fill="#F7A491"/>
<path d="M2058.5 1207.2C2068.9 1201.4 2085.9 1199.8 2098.5 1206.4C2114.1 1214.6 2117.6 1235.1 2112.8 1247.6C2107.9 1260.1 2113.5 1267.2 2113.5 1267.2L2105.2 1262.4C2105.2 1262.4 2100.4 1254.9 2099.7 1248.9C2099.1 1242.9 2090.3 1244 2086 1241.2C2082.7 1239.1 2078.5 1232.3 2073.2 1228.8C2073.2 1228.8 2059.8 1227.2 2053.2 1230.9C2042 1237.1 2043.6 1215.5 2058.5 1207.2Z" fill="#0F3B16"/>
<path d="M2092.8 1246.2C2092.7 1250.7 2094.8 1254.3 2097.5 1254.3C2100.2 1254.3 2102.4 1250.8 2102.5 1246.3C2102.6 1241.8 2100.5 1238.2 2097.8 1238.2C2095.1 1238.2 2092.9 1241.7 2092.8 1246.2Z" fill="#F7A491"/>
<path d="M2068.4 1269.8L2081 1260.4C2081 1260.4 2084.3 1265.5 2078.9 1269.8C2072.3 1275 2068.4 1269.8 2068.4 1269.8Z" fill="white"/>
<path d="M2036.6 1457.6C2039.8 1453 2041.1 1446.3 2045.5 1441.2C2047 1439.5 2049.3 1437.6 2052 1435.6C2073 1423.3 2127.8 1391.6 2130 1389.1C2132.5 1386.2 2169.9 1324 2169.9 1324L2136.3 1316.4L2103.5 1374.4C2100.8 1376.6 2048.6 1415.1 2048.6 1415.1C2048.6 1415.1 2038.2 1423.2 2032.6 1427C2029.7 1428.7 2027 1429.8 2024.5 1430.6C2021.4 1431.7 2015.6 1434.6 2014.4 1435.6C2013 1436.8 2010.3 1439.4 2008.7 1441C2007.1 1442.6 2005.1 1444.3 2004.3 1445.3C2003.8 1445.9 2002.4 1446.7 2001.3 1447.2C1999.7 1448 1999.9 1450.3 2001.6 1450.8C2003.2 1451.3 2005.4 1450.3 2006.7 1449.6C2010.5 1447.8 2015.1 1443 2015.3 1443.6C2015.5 1444.2 2010.9 1454.4 2010.4 1455.6C2009.9 1456.8 2004.6 1468.8 2004.3 1471.4C2004 1474.1 2005.6 1474.7 2006.8 1473.7C2007.8 1472.9 2016.5 1456.9 2016.5 1456.9C2016.5 1456.9 2017.6 1454.9 2018 1456C2018.4 1457.2 2010.6 1471.7 2009.8 1474C2009 1476.4 2009.6 1478.3 2011.8 1477.5C2014.5 1476.5 2021.9 1460.5 2021.9 1460.5C2021.9 1460.5 2022.9 1458.5 2023.5 1459.2C2024.2 1459.9 2017.3 1472.1 2017.2 1473.5C2017.1 1474.9 2018.4 1476.3 2020.2 1475.1C2022.4 1473.7 2028.9 1459.4 2028.9 1459.4C2028.9 1459.4 2029.7 1458.5 2030 1459.1C2030.3 1459.8 2025.1 1470.6 2025.5 1472.2C2025.8 1473.5 2027 1473.3 2027 1473.3C2030 1473.5 2033.5 1462.2 2036.6 1457.6Z" fill="#F8A492"/>
<path d="M2160.7 1356.9C2160.7 1356.9 2149.8 1353.4 2142.7 1350.2C2138 1348 2117.5 1337.8 2117.5 1337.8C2117.5 1337.8 2126.3 1300.5 2132.3 1287.1C2154.2 1237.9 2179.1 1271.8 2182.5 1279.7C2190.2 1297.5 2160.7 1356.9 2160.7 1356.9Z" fill="#355389"/>
<path d="M1396.6 1228.1L1407 1220.3C1407 1220.3 1409.8 1224.5 1405.3 1228.1C1399.8 1232.4 1396.6 1228.1 1396.6 1228.1Z" fill="white"/>
<path d="M1104.9 426.6C1104.7 426 1104.1 426 1103.5 425.9C1098 425.7 1092.6 425.5 1087.2 424.7C1086.3 424.6 1085.4 424.4 1084.6 424C1083.1 423.4 1081.6 423.4 1080.1 423.8C1079.3 424 1078.4 424.1 1077.6 424.1C1074.9 424.1 1067 421.4 1063 420.7C1062.1 420.5 1061.4 419.8 1061.1 418.9C1057.1 403.2 1048.6 368.1 1047.5 356.6C1046.1 341.8 1035.9 275.2 1035.9 275.2L1008.6 282.8C1008.6 282.8 1019.8 332 1022.9 355.8C1025.3 374.2 1043.7 413.3 1049.5 424.5C1052.3 432.9 1058.6 433.1 1060.1 433.3C1060.9 433.4 1061.7 433.8 1062.3 434.5C1063.3 435.7 1064.4 436.7 1065.7 437.5C1066.7 438.1 1067.4 438.9 1068.1 439.8C1069.3 441.5 1070.3 443.3 1071.3 445C1072 446.2 1072.7 446.5 1073.7 446.3C1074.8 446 1075.3 445.2 1075.3 443.9C1075.3 442 1074.6 440.2 1073.7 438.5C1072.8 436.9 1072.8 436 1073.9 434.6C1074.5 433.8 1075.1 433 1076 432.3C1076.8 431.6 1077.7 431.1 1078.8 431.3C1080.8 431.8 1082.7 432.2 1084.8 432.4L1086.5 432.7C1086.6 432.7 1087.4 432.9 1087.4 432.9C1087.5 432.9 1090.4 433.3 1091.4 433.3C1092.2 433.3 1093.5 433.4 1094.6 433.4C1095.6 433.4 1097.7 432.9 1097.8 432.9C1098.8 432.9 1099.6 432.5 1100.3 431.9C1100.6 431.6 1100.9 431.3 1100.7 430.9C1100.6 430.5 1100.2 430.3 1099.8 430.2C1099.1 430.1 1095.8 429.7 1095.8 429.5C1096.8 429.5 1100 429.4 1101 429.4C1102.4 429.4 1103.5 428.9 1104.5 427.9C1104.8 427.6 1105.2 427.2 1104.9 426.6Z" fill="#F7A491"/>
<path d="M693.6 1324C694.5 1321.4 682.1 1319.4 681.4 1316.8C680.7 1314.2 697.1 1314 697.7 1311.7C698.8 1307.5 679.8 1310.8 680.2 1308.9C680.6 1306.9 700 1302.6 697.9 1299.2C695.8 1295.8 678.2 1305.8 677.7 1303.6C677.2 1301.3 694.9 1295.8 694.6 1290.8C694.4 1288.1 665.5 1304.1 662.2 1302.7C658.8 1301.2 665.8 1288.7 663.1 1286.8C660.4 1284.9 652.8 1312.3 650.9 1313.2C649.1 1314.1 610 1336.4 596.1 1339.9C594.4 1335.2 590.8 1329 589.3 1324.6C581.5 1330.1 575.7 1332.9 567.7 1338C573.5 1352.6 581.8 1368.6 585.9 1370.4C598.3 1376 646.1 1336.3 655.6 1329.6C665.2 1322.8 670.6 1325 677.1 1322.9C683.5 1320.7 692.7 1326.6 693.6 1324Z" fill="#F7A491"/>
<path d="M566 1345C566 1345 555.3 1297.7 557.2 1284C559.1 1270.3 575.3 1257.5 586.6 1262.3C597.9 1267 603 1333 603 1333L566 1345Z" fill="#F7CC7F"/>
<path d="M1184.6 1385.3C1199.9 1385.3 1214.2 1389.3 1226.6 1396.4C1228.2 1397.3 1229.9 1398.1 1231.7 1398.8C1269.5 1414.3 1310.9 1385.6 1310.9 1344.7V1143.5H1109.7C1068.8 1143.5 1040 1102.1 1055.6 1064.3C1056.3 1062.5 1057.2 1060.8 1058 1059.2C1065 1046.8 1069.1 1032.4 1069.1 1017.2C1069.1 968.7 1028.7 929.7 979.7 932C935.4 934.1 899.7 970.4 898.5 1014.8C898.1 1030.6 901.9 1045.4 909 1058.2C909.9 1059.8 910.7 1061.5 911.4 1063.4C926.8 1101.9 897.6 1143.6 856.1 1143.6H656.8V1602C656.8 1710.1 744.5 1797.8 852.6 1797.8H1311V1597.3C1311 1556.2 1269.5 1527.2 1231.4 1542.7C1229.6 1543.4 1227.9 1544.2 1226.3 1545.1C1212.7 1552.7 1196.9 1556.7 1180 1555.8C1136.6 1553.5 1101.5 1518.2 1099.4 1474.8C1097.1 1425.8 1136.1 1385.3 1184.6 1385.3Z" fill="#127F08"/>
<path d="M904.4 1855.4L796 1773.9L1004.2 1763.6L904.4 1855.4Z" fill="#127F08"/>
<path opacity="0.1" d="M818 1979L1129.5 1959.9C1274 1987 1422 1985.2 1565.9 1954.6L1949 1977.5C1964.6 1978.4 1980.2 1977.4 1995.5 1974.5C2078 1958.8 2288.5 1921.2 2320 1877.9C2476.8 1662.9 2462.5 1093.2 2345.6 1016.1C2201.1 920.8 2430.5 591.2 2208 484.2C2062.7 414.3 1831.6 490.5 1862.7 303.6C1905.8 44.5001 1402 -21.9 1030.8 48C629.5 123.5 954.3 414.2 513 489C286.1 527.5 371.6 937.2 392.8 1005.3C411.2 1064.5 533.1 1158.5 363.7 1287.9C170.8 1435.2 402.2 1793.2 559 1911C606.9 1947 760.6 1968.2 818 1979Z" fill="#9BC1F9"/>
</svg>
